<svg id="svgLogo" data-name="Layer 1" xmlns="http://www.w3.org/2000/svg" xmlns:xlink="http://www.w3.org/1999/xlink" viewBox="0 0 298.08 217.6"><defs><linearGradient id="linear-gradient" x1="217.44" y1="62.32" x2="284.9" y2="179.16" gradientUnits="userSpaceOnUse"><stop offset="0" stop-opacity="0"></stop><stop offset="0.13" stop-opacity="0.32"></stop><stop offset="1"></stop></linearGradient><linearGradient id="linear-gradient-2" x1="88.99" y1="21.73" x2="168.02" y2="158.61" xlink:href="#linear-gradient"></linearGradient><linearGradient id="linear-gradient-3" x1="144.62" y1="-15.26" x2="205.7" y2="90.52" xlink:href="#linear-gradient"></linearGradient><linearGradient id="linear-gradient-4" x1="211.44" y1="1.31" x2="248.59" y2="65.64" xlink:href="#linear-gradient"></linearGradient><linearGradient id="linear-gradient-5" x1="138.98" y1="86.99" x2="211.16" y2="86.99" xlink:href="#linear-gradient"></linearGradient><linearGradient id="linear-gradient-6" x1="21.81" y1="31.32" x2="109.69" y2="183.53" xlink:href="#linear-gradient"></linearGradient></defs><title>Blue Perspective</title><polyline points="297.63 48.03 218.69 215.65 210.31 96.21 238.18 50.85" style="fill:none;stroke-miterlimit:10;stroke:url(#linear-gradient)"></polyline><path d="M333.62,279.22,466,337.61l-95.55-3.41-36.85-55m-2.06-1.73,38.5,57.44,99.83,3.56-138.34-61Z" transform="translate(-331.04 -172.52)"></path><polyline points="76.56 29.05 105.76 133.31 158.12 163.72 201.13 133.41 190.55 116.8 135.62 22.84" style="fill:none;stroke-miterlimit:10;stroke:url(#linear-gradient-2)"></polyline><path d="M526.78,182.55" transform="translate(-331.04 -172.52)" style="fill:none;stroke:#000;stroke-miterlimit:10;stroke-width:0.25px"></path><polyline points="195.73 10.03 177.98 104.97 139.58 38.99 117.78 0.24" style="fill:none;stroke-miterlimit:10;stroke:url(#linear-gradient-3)"></polyline><path d="M515.73,189.67" transform="translate(-331.04 -172.52)" style="fill:none;stroke:#000;stroke-miterlimit:10;stroke-width:0.25px"></path><polyline points="184.69 17.15 177.98 45.58 207.35 52.46 210.31 87.03 286.69 28.12" style="fill:none;stroke-miterlimit:10;stroke:url(#linear-gradient-4)"></polyline><path d="M537.82,262.82l17,34.16-5.76,89.86-65-42.59,53.74-81.43m.09-1.5L483,344.47l66.7,43.71,5.86-91.35-17.69-35.51Z" transform="translate(-331.04 -172.52)"></path><polygon points="139.58 38.99 204.14 55.1 210.61 135.06 151.99 125.73 139.58 38.99" style="fill:none;stroke-miterlimit:10;stroke:url(#linear-gradient-5)"></polygon><polyline points="100.93 59.38 138.86 165.97 122.45 170.25 0.52 103.22 4.5 41.63" style="fill:none;stroke-miterlimit:10;stroke:url(#linear-gradient-6)"></polyline><path d="M611.45,261.33,584,357.14l-27.31-14.06,54.76-81.75m2-4.39-57.89,86.42,28.87,14.87,29-101.29Z" transform="translate(-331.04 -172.52)"></path>
<polygon id="blue" points="139.58 38.99 203.58 54.9 209.99 133.86 151.88 124.64 139.58 38.99" style="fill: rgb(0, 157, 224); opacity: 0.697575;" class="velocity-animating"></polygon></svg>