<svg id="Layer_1" data-name="Layer 1" xmlns="http://www.w3.org/2000/svg" xmlns:xlink="http://www.w3.org/1999/xlink" viewBox="0 0 688.49 499.53"><defs><style>.cls-1,.cls-3,.cls-4,.cls-5,.cls-6,.cls-7{fill:none;stroke-miterlimit:10;stroke-width:0.25px;}.cls-1{stroke:url(#linear-gradient);}.cls-2{fill:#010101;}.cls-3{stroke:url(#linear-gradient-2);}.cls-4{stroke:#010101;}.cls-5{stroke:url(#linear-gradient-3);}.cls-6{stroke:url(#linear-gradient-4);}.cls-7{stroke:url(#linear-gradient-5);}</style><linearGradient id="linear-gradient" x1="503.98" y1="144.12" x2="658.24" y2="411.31" gradientUnits="userSpaceOnUse"><stop offset="0" stop-opacity="0"/><stop offset="0.13" stop-opacity="0.32"/><stop offset="1"/></linearGradient><linearGradient id="linear-gradient-2" x1="205.21" y1="50.05" x2="387.61" y2="365.97" xlink:href="#linear-gradient"/><linearGradient id="linear-gradient-3" x1="334.06" y1="-35.91" x2="474.13" y2="206.71" xlink:href="#linear-gradient"/><linearGradient id="linear-gradient-4" x1="489.66" y1="2.8" x2="574.71" y2="150.12" xlink:href="#linear-gradient"/><linearGradient id="linear-gradient-5" x1="49.82" y1="72.49" x2="252.47" y2="423.47" xlink:href="#linear-gradient"/></defs><title>BA_logo</title><polyline class="cls-1" points="688.38 110.75 505.52 499.05 486.1 222.36 550.67 117.29"/><path class="cls-2" d="M14.86,257.34,333.34,397.78l-229.83-8.2L14.86,257.34m-.69-.58,89.19,133.06,231.26,8.25L14.17,256.76Z" transform="translate(-14.04 -14.11)"/><polyline class="cls-3" points="176.27 66.8 243.92 308.3 365.21 378.75 464.84 308.54 440.33 270.06 313.09 52.4"/><path class="cls-4" d="M466.38,36.83" transform="translate(-14.04 -14.11)"/><polyline class="cls-5" points="452.34 22.72 411.21 242.65 322.25 89.83 271.76 0.06"/><path class="cls-4" d="M440.8,53.33" transform="translate(-14.04 -14.11)"/><polyline class="cls-6" points="426.76 39.22 411.21 105.08 479.26 121.02 486.1 201.1 663.04 64.64"/><path class="cls-2" d="M492.14,219.8l40.75,81.8L519.35,512.71,365.4,411.84l126.74-192m0-.5L365.05,411.91,519.57,513.16l13.57-211.61-41-82.25Z" transform="translate(-14.04 -14.11)"/><path class="cls-2" d="M336.6,104.27l149,37.17,14.95,184.73L365.28,304.63,336.6,104.27m-.3-.33,28.76,200.91,135.78,21.62-15-185.23L336.3,103.94Z" transform="translate(-14.04 -14.11)"/><polyline class="cls-7" points="232.73 137.06 320.58 383.97 282.59 393.88 0.13 238.61 9.35 95.94"/><path class="cls-2" d="M666.56,210.62l-66.7,232.81L533.5,409.25,666.56,210.62m.68-1.46L533.14,409.35,600,443.78l67.22-234.63Z" transform="translate(-14.04 -14.11)"/></svg>