<svg height="512.62854" viewBox="0 0 437.55115 512.62854" width="437.55115" xmlns="http://www.w3.org/2000/svg"><circle cx="103.19117" cy="179.22455" fill="#2f2e41" r="30"/><circle cx="105.71115" cy="184.72055" fill="#a0616a" r="24.561"/><g transform="translate(-381.22442 -193.68573)"><path d="m580.47357 453.11426a10.51855 10.51855 0 0 0 -1.072 1.264l-49.562-1.751-5.669-10.631-17.162 6.458 8.206 19.8a8 8 0 0 0 8.263 4.889l56.085-6.158a10.50026 10.50026 0 1 0 .911-13.866z" fill="#a0616a"/><path d="m500.40658 458.01428a4.81194 4.81194 0 0 1 -2.643-3.017l-6.9-23.169a13.37727 13.37727 0 1 1 24.208-11.392l13.372 20.235a4.8171 4.8171 0 0 1 -1.981 7.02l-22.04105 10.289a4.811 4.811 0 0 1 -4.011.03z" fill="#ccc"/><path d="m549.22159 693.24127 10.768-5.862-17.485-44.322-15.892 8.651z" fill="#a0616a"/><path d="m544.56158 691.22028 21.205-11.544a15.386 15.386 0 0 1 20.86969 6.15747l.0003.00055.239.439-34.72 18.9z" fill="#2f2e41"/><path d="m430.73458 693.28925h12.259l5.833-47.288h-18.1z" fill="#a0616a"/><path d="m427.60656 689.28729h24.145a15.386 15.386 0 0 1 15.386 15.386v.501h-39.53z" fill="#2f2e41"/><path d="m506.91558 483.41425 4 48 44.619 133.856a4 4 0 0 1 -2.52991 5.05957q-.16684.05566-.3381.09644l-13.675 3.256a4 4 0 0 1 -4.5-2.091l-57.043-113.157a2 2 0 0 0 -3.739.471l-25.1 114.362a4 4 0 0 1 -3.907 3.142h-12.726a3.993 3.993 0 0 1 -4.00046-3.98553q0-.03424.00046-.06848c1.166-79.3-2.68-169.653 27.936-183.946l5-13z" fill="#3f3d56"/><path d="m459.47558 478.81427-5.154-31.177a30.877 30.877 0 0 1 9.769-28.006 30.36108 30.36108 0 0 1 28.331-6.925c.292.078.585.159.878.241a30.783 30.783 0 0 1 22.222 27.346c.984 13.54.1 33.184-9.678 49.87l-.19.324z" fill="#ccc"/><path d="m511.36859 365.35226a33.39994 33.39994 0 0 1 -19.091 5.9 20.47 20.47 0 0 0 8.114 3.338 67.35852 67.35852 0 0 1 -27.514.155 17.807 17.807 0 0 1 -5.76-1.978 7.2889 7.2889 0 0 1 -3.555-4.755c-.6-3.449 2.083-6.582 4.876-8.693a35.967 35.967 0 0 1 30.224-6.04c3.376.873 6.758 2.347 8.951 5.059s2.843 6.892.753 9.684z" fill="#2f2e41"/><path d="m484.02157 342.76227c2.847-11.5-7.357-24.268-19.2-24.029-12.013.243-20.854 11.1-26.931 21.464s-12.115 22.117-23.269 26.58a24.029 24.029 0 0 1 -32.946-22.894c-1.5 12.593.577 26.219 8.7 35.96s23.233 14.13 34.1 7.584c6.2-3.739 10.169-10.237 13.438-16.7s6.178-13.279 11.131-18.564 12.612-8.792 19.506-6.569c2.736.883 5.191 2.6 8.018 3.126s6.386-.82 6.772-3.669z" fill="#2f2e41"/><path d="m424.82159 551.20526a10.743 10.743 0 0 1 2.743-16.243l21.305-95.5 21.613 8.871-27.737 91.081a10.8 10.8 0 0 1 -17.924 11.791z" fill="#a0616a"/><path d="m440.43057 453.16425a4.812 4.812 0 0 1 -.336-4l8.193-22.745a13.37759 13.37759 0 0 1 26.245 5.2l-1.245 24.222a4.81686 4.81686 0 0 1 -5.76 4.475l-23.85-4.8a4.812 4.812 0 0 1 -3.246-2.357z" fill="#ccc"/><path d="m681.50659 197.34473a5.982 5.982 0 0 0 -5.468-3.659h-109.16099a5.92 5.92 0 0 0 -5.917 5.917v138.095a5.92 5.92 0 0 0 5.917 5.917h109.161a5.925 5.925 0 0 0 5.917-5.917v-138.093a5.80986 5.80986 0 0 0 -.44901-2.26zm-.865 140.352a4.609 4.609 0 0 1 -4.6 4.6h-109.16399a4.6 4.6 0 0 1 -4.6-4.6v-138.092a4.609 4.609 0 0 1 4.6-4.6h109.161a4.62606 4.62606 0 0 1 4.273 2.9 5.11465 5.11465 0 0 1 .173.519 4.55869 4.55869 0 0 1 .158 1.188z" fill="#ccc"/><path d="m658.7236 226.29175h-32.88a2.6305 2.6305 0 0 1 0-5.261h32.879a2.631 2.631 0 0 1 0 5.261z" fill="#ccc"/><path d="m658.7236 240.10175h-32.88a2.6305 2.6305 0 0 1 0-5.261h32.879a2.631 2.631 0 0 1 0 5.261z" fill="#ccc"/><path d="m608.97759 247.96475h-24.033a2.962 2.962 0 0 1 -2.959-2.959v-28.355a2.962 2.962 0 0 1 2.959-2.959h24.033a2.963 2.963 0 0 1 2.959 2.959v28.355a2.962 2.962 0 0 1 -2.959 2.959z" fill="#ccc"/><path d="m658.4946 268.37775h-74.307a2.6305 2.6305 0 0 1 0-5.261h74.307a2.63049 2.63049 0 0 1 0 5.261z" fill="#ccc"/><path d="m658.4946 282.19174h-74.307a2.63049 2.63049 0 0 1 0-5.261h74.307a2.63049 2.63049 0 1 1 0 5.261z" fill="#ccc"/><path d="m658.4946 295.99673h-74.307a2.63049 2.63049 0 0 1 0-5.261h74.307a2.63049 2.63049 0 0 1 0 5.261z" fill="#ccc"/><path d="m658.4946 309.80975h-74.307a2.63049 2.63049 0 0 1 0-5.261h74.307a2.63049 2.63049 0 0 1 0 5.261z" fill="#ccc"/><path d="m658.4946 323.61575h-74.307a2.63049 2.63049 0 0 1 0-5.261h74.307a2.63049 2.63049 0 0 1 0 5.261z" fill="#ccc"/><path d="m747.43456 278.88326a7.6 7.6 0 0 0 -6.95-4.65h-138.725a7.524 7.524 0 0 0 -7.52 7.52v175.5a7.524 7.524 0 0 0 7.52 7.52h138.73a7.53 7.53 0 0 0 7.52-7.52v-175.5a7.38544 7.38544 0 0 0 -.57-2.87z" fill="#e6e6e6"/><path d="m736.13867 454.91992h-129.64453c-1.86816-.00195-3.33105-2.0459-3.33105-4.65283v-162.7998c.00195-2.60938 1.46582-4.65284 3.33105-4.65284h129.64453c1.86914.00244 3.332 2.0459 3.332 4.65284v162.7998c-.00192 2.60891-1.46579 4.65283-3.332 4.65283z" fill="#fff"/><path d="m747.43456 278.88326a7.6 7.6 0 0 0 -6.95-4.65h-138.725a7.524 7.524 0 0 0 -7.52 7.52v175.5a7.524 7.524 0 0 0 7.52 7.52h138.73a7.53 7.53 0 0 0 7.52-7.52v-175.5a7.38544 7.38544 0 0 0 -.57-2.87zm-1.1 178.37a5.857 5.857 0 0 1 -5.85 5.85h-138.725a5.851 5.851 0 0 1 -5.85-5.848v-175.501a5.858 5.858 0 0 1 5.85-5.85h138.73a5.879 5.879 0 0 1 5.43 3.68 6.48151 6.48151 0 0 1 .22.66 5.80007 5.80007 0 0 1 .2 1.51z" fill="#3f3d56"/><path d="m718.48455 315.66827h-41.786a3.343 3.343 0 0 1 0-6.686h41.786a3.343 3.343 0 1 1 0 6.686z" fill="#3f3d56"/><path d="m718.48455 333.21828h-41.786a3.343 3.343 0 0 1 0-6.686h41.786a3.343 3.343 0 1 1 0 6.686z" fill="#3f3d56"/><path d="m655.25856 343.21127h-30.537a3.765 3.765 0 0 1 -3.761-3.761v-36.036a3.765 3.765 0 0 1 3.761-3.761h30.537a3.765 3.765 0 0 1 3.761 3.761v36.036a3.765 3.765 0 0 1 -3.761 3.761z" fill="#2795fe"/><path d="m718.19457 369.15426h-94.436a3.343 3.343 0 0 1 0-6.686h94.436a3.343 3.343 0 1 1 0 6.686z" fill="#e6e6e6"/><path d="m718.19457 386.70425h-94.436a3.343 3.343 0 0 1 -.01855-6.686h94.45456a3.343 3.343 0 0 1 0 6.686z" fill="#e6e6e6"/><path d="m718.19457 404.2543h-94.436a3.343 3.343 0 0 1 0-6.686h94.436a3.343 3.343 0 1 1 .01855 6.686z" fill="#e6e6e6"/><path d="m718.19457 421.80428h-94.436a3.343 3.343 0 1 1 -.01855-6.686h94.45456a3.343 3.343 0 0 1 0 6.686z" fill="#e6e6e6"/><path d="m718.19457 439.35427h-94.436a3.343 3.343 0 1 1 -.01855-6.686h94.45456a3.343 3.343 0 0 1 0 6.686z" fill="#e6e6e6"/></g><circle cx="383.55115" cy="67.62854" fill="#2795fe" r="54"/><path d="m773.28057 263.10526v-29.791h-15.342v29.791h-7.163l7.416 12.845 7.418 12.847 7.418-12.847 7.417-12.847z" fill="#fff" transform="translate(-381.22442 -193.68573)"/><path d="m784.8496 706.31427h-381a1 1 0 1 1 0-2h381a1 1 0 0 1 0 2z" fill="#e6e6e6" transform="translate(-381.22442 -193.68573)"/><path d="m752.29859 697.42127c-9.6 6.915-22.039 7.262-34.063 6.413-1.679-.118-3.346-.257-5-.407h-.033c-.079-.008-.159-.015-.235-.02l-1.02-.1.08.152.25.472c-.09-.158-.18-.313-.27-.471-.026-.047-.056-.095-.082-.142-3.115-5.421-6.2-11.04-6.992-17.23-.815-6.425 1.475-13.7 7.129-16.857a11.40586 11.40586 0 0 1 2.341-.981q.507-.15 1.028-.26a12.23 12.23 0 0 1 14.223 15.9c4.794-4.916 3.9-12.89 2.246-19.555s-3.663-14.081-.293-20.067a13.23294 13.23294 0 0 1 8.865-6.232c.113-.024.227-.049.34-.07a17.8481 17.8481 0 0 1 12.823 2.247c7.069 4.455 10.7 12.9 11.878 21.174 1.9 13.31299-2.30201 28.17298-13.215 36.034z" fill="#f2f2f2" transform="translate(-381.22442 -193.68573)"/></svg>