<svg height="863.94314" viewBox="0 0 1101.64822 863.94314" width="1101.64822" xmlns="http://www.w3.org/2000/svg"><path d="m552.97717 632.92725.00559-1.84761c3.67356.01111 7.40285-.05247 11.08546-.18748l.06794 1.846c-3.70697.13677-7.46107.20028-11.15899.18909zm-11.15439-.25029c-3.69294-.15642-7.43975-.38971-11.13581-.69319l.15127-1.84172c3.67216.30251 7.39417.5339 11.06274.68934zm33.45353-.57173-.141-1.84267c3.6673-.28121 7.37906-.64167 11.03151-1.07088l.21593 1.8357c-3.6773.43184-7.41388.79401-11.10644 1.07785zm-55.68986-1.2593c-3.68249-.4532-7.39855-.9859-11.04584-1.58333l.29917-1.82319c3.62248.59374 7.3142 1.12275 10.97189 1.57226zm77.84956-1.34224-.289-1.82511c3.62541-.57365 7.29619-1.23195 10.91036-1.95449l.36216 1.81092c-3.63813.72878-7.33374 1.3906-10.98353 1.96868zm-99.86801-2.26894c-3.63371-.748-7.29466-1.58008-10.88235-2.47052l.44522-1.79384c3.56379.88584 7.20041 1.71149 10.80933 2.454zm121.7476-2.11167-.43619-1.79492c3.58036-.8688 7.1858-1.82142 10.71655-2.832l.50842 1.77711c-3.55518 1.01682-7.185 1.97567-10.78883 2.84981zm-143.4036-3.26837c-3.55923-1.0401-7.14119-2.16508-10.64629-3.34394l.58943-1.75187c3.48167 1.17157 7.03974 2.28925 10.57509 3.32206zm164.85576-2.86924-.57977-1.75389c3.49153-1.15418 7.0077-2.39578 10.45187-3.69175l.65112 1.72887c-3.46762 1.30491-7.00818 2.55545-10.52318 3.71677zm-186.03276-4.25941c-3.46177-1.32487-6.9485-2.74-10.36379-4.20819l.72954-1.69729c3.39231 1.45816 6.85607 2.86423 10.29487 4.1791zm206.8902-3.58433-.71977-1.702c3.38237-1.43149 6.77856-2.94954 10.0937-4.513l.78843 1.67157c-3.33769 1.57328-6.75737 3.10209-10.16233 4.54343zm-227.43644-5.24735c-3.35079-1.60418-6.70986-3.29679-9.98354-5.03152l.86509-1.63189c3.25162 1.722 6.58772 3.40374 9.916 4.997zm247.574-4.24789-.85531-1.63752c3.25966-1.70164 6.525-3.49077 9.70479-5.31627l.92038 1.60164c-3.20149 1.83806-6.48853 3.63885-9.76988 5.35215zm-267.32637-6.21321c-3.21369-1.87166-6.423-3.829-9.53937-5.81765l.99386-1.55749c3.09517 1.975 6.28336 3.91969 9.47544 5.77956zm286.64633-4.88153-.98365-1.564c3.1035-1.952 6.21633-3.99789 9.25169-6.08188l1.04514 1.52266c-3.05528 2.09839-6.1889 4.1586-9.3132 6.12322zm-305.4807-7.131c-3.04823-2.121-6.08851-4.32863-9.03668-6.5621l1.11537-1.47228c2.92883 2.21806 5.94886 4.41117 8.97638 6.51859zm323.85747-5.48519-1.10663-1.47955c2.93649-2.19347 5.87691-4.48346 8.73984-6.80709l1.16451 1.43464c-2.88195 2.33892-5.84221 4.64418-8.79774 6.85202zm-341.65859-7.99625c-2.86072-2.35317-5.713-4.79652-8.47776-7.26305l1.22965-1.37809c2.74673 2.44933 5.58015 4.87729 8.422 7.21415zm358.97458-6.05689-1.2206-1.3861c2.76044-2.43041 5.50945-4.95018 8.1701-7.48828l1.27489 1.33756c-2.67787 2.55428-5.44495 5.09023-8.22439 7.53682zm-375.6313-8.80023c-2.65658-2.569-5.30338-5.23183-7.86622-7.91422l1.33577-1.2767c2.5462 2.66519 5.17547 5.31081 7.815 7.86173zm391.7744-6.60008-1.32738-1.28541c2.55543-2.64039 5.09493-5.37195 7.54877-8.12l1.37808 1.23144c-2.47014 2.76515-5.02683 5.51559-7.59947 8.17397zm-407.18286-9.534c-2.45424-2.78487-4.87845-5.64994-7.20613-8.5156l1.43464-1.16451c2.3115 2.84666 4.72 5.69273 7.1576 8.45771zm422.04988-7.11364-1.427-1.17387c2.3441-2.84677 4.6578-5.77483 6.87766-8.7023l1.47229 1.11628c-2.23436 2.94724-4.56435 5.89419-6.92295 8.75986zm-436.11344-10.19522c-2.21684-2.96363-4.40319-6.01106-6.498-9.05909l1.52266-1.04694c2.08086 3.02814 4.25238 6.05567 6.45485 8.99941zm449.60389-7.59825-1.51578-1.05507c2.10832-3.028 4.18082-6.13365 6.15856-9.23062l1.55749.99387c-1.99132 3.11771-4.07744 6.24409-6.20027 9.29182zm-462.23-10.77137c-1.96956-3.12792-3.90322-6.33962-5.74757-9.54651l1.60164-.92038c1.83179 3.1852 3.75289 6.37521 5.709 9.48233zm474.25422-8.05619-1.59558-.93083c1.85986-3.19028 3.67576-6.45467 5.39778-9.70133l1.63188.866c-1.73291 3.26831-3.56151 6.55432-5.43408 9.7662zm-485.35845-11.25925c-1.71061-3.27413-3.37856-6.6293-4.95724-9.97246l1.67068-.78844c1.56837 3.32057 3.22511 6.65316 4.92407 9.90559zm495.82945-8.48719-1.66638-.79935c1.59235-3.322 3.13985-6.72346 4.598-10.11081l1.69728.73089c-1.46817 3.40982-3.02565 6.83474-4.6289 10.17927zm-505.336-11.644c-1.444-3.40767-2.83463-6.88373-4.13374-10.33243l1.72886-.65112c1.29062 3.42431 2.67181 6.87779 4.106 10.262zm514.17938-8.89815-1.72547-.66061c1.32122-3.45186 2.58854-6.97065 3.76463-10.45726l1.75006.59032c-1.18337 3.51091-2.45887 7.05223-3.78921 10.52751zm-522.0353-11.95485c-1.16492-3.51592-2.27277-7.10382-3.29275-10.66257l1.77621-.50843c1.0133 3.53437 2.11356 7.0979 3.27043 10.59034zm529.17565-9.219-1.77376-.51823c1.031-3.52227 2.00534-7.12141 2.89665-10.69917l1.792.44611c-.89673 3.6021-1.8775 7.22648-2.91489 10.77129zm-535.32545-12.231c-.87595-3.60068-1.689-7.26521-2.4178-10.89337l1.81182-.364c.72348 3.60379 1.53118 7.24484 2.4009 10.82114zm540.71724-9.41942-1.81032-.374c.74251-3.59629 1.4221-7.26316 2.02039-10.89781l1.82319.30007c-.60198 3.65895-1.28616 7.35016-2.03326 10.9717zm-545.10959-12.457c-.58033-3.64933-1.095-7.36791-1.52955-11.05286l1.83479-.21593c.4319 3.66058.94307 7.35389 1.51988 10.97885zm548.7325-9.56191-1.83426-.22613c.45131-3.65588.83423-7.36522 1.13669-11.02474l1.84172.15217c-.30526 3.68429-.69006 7.41842-1.14415 11.09866zm-551.34577-12.59561c-.2861-3.69123-.50118-7.43951-.63929-11.14107l1.846-.06884c.13728 3.67675.3511 7.40021.635 11.06707zm553.19032-9.638-1.84556-.07911c.15638-3.68121.24255-7.40955.25456-11.08176l.0011-.61211 1.8476.006-.00108.608c-.0121 3.70025-.09835 7.45292-.25662 11.15897zm-552.17872-12.65514-1.84761-.006.00147-.31034c.01179-3.6041.09364-7.254.24386-10.84363l1.84557.07731c-.14879 3.56621-.23012 7.19172-.24184 10.77642zm550.38147-10.19841c-.14046-3.6691-.35744-7.39257-.64674-11.06622l1.84268-.14463c.29013 3.69845.50883 7.44629.65011 11.1402zm-549.4547-11.94751-1.84172-.15037c.30259-3.69877.68379-7.43337 1.13243-11.101l1.83426.22432c-.44586 3.64329-.82427 7.35354-1.12497 11.02705zm547.71994-10.14938c-.43375-3.64525-.94853-7.33857-1.53206-10.97709l1.82512-.29219c.58616 3.66288 1.10537 7.381 1.54084 11.05154zm-545.029-11.85-1.82319-.29826c.59746-3.65631 1.27758-7.34888 2.02244-10.974l1.80943.37129c-.7394 3.60121-1.41492 7.26854-2.00871 10.90095zm541.52262-10.03432c-.72976-3.61283-1.54153-7.2521-2.41308-10.818l1.79493-.43889c.87779 3.58986 1.69489 7.2544 2.42908 10.89115zm-537.0667-11.67696-1.79339-.44431c.89045-3.5931 1.86762-7.21839 2.90411-10.77583l1.77376.51687c-1.02964 3.53356-1.99996 7.13451-2.88448 10.70327zm531.80441-9.85274c-1.01691-3.53212-2.12033-7.0943-3.28172-10.58721l1.7539-.58247c1.16853 3.51638 2.28 7.1025 3.30314 10.65855zm-525.60418-11.427-1.75143-.58852c1.18069-3.51412 2.4517-7.05771 3.778-10.5321l1.72638.65881c-1.31765 3.45143-2.58046 6.97114-3.75295 10.46182zm518.61261-9.60582c-1.30139-3.441-2.68664-6.89227-4.11729-10.2584l1.70023-.72249c1.44049 3.38872 2.8356 6.863 4.14594 10.32706zm-510.6856-11.15357-1.69818-.72909c1.46317-3.40854 3.01707-6.83527 4.61808-10.18382l1.66684.79665c-1.59052 3.32647-3.13352 6.73024-4.5867 10.11626zm502.03817-9.19227c-1.57064-3.317-3.23055-6.64776-4.934-9.89975l1.63572-.85757c1.716 3.27414 3.38759 6.62707 4.96808 9.96708zm-492.45887-10.84361-1.6337-.8633c1.73294-3.27684 3.55794-6.56466 5.42372-9.77251l1.5974.929c-1.85353 3.18627-3.66628 6.45248-5.38742 9.70681zm482.19235-8.752c-1.8372-3.18658-3.761-6.37479-5.71937-9.47695l1.56215-.98637c1.97184 3.123 3.9082 6.33287 5.758 9.54023zm-471.03123-10.43339-1.55839-.993c1.99227-3.12714 4.07521-6.25578 6.19036-9.29862l1.51669 1.05462c-2.10109 3.02263-4.16954 6.13012-6.14866 9.237zm459.2137-8.2858c-2.08582-3.02681-4.261-6.05255-6.46434-8.99178l1.47775-1.10843c2.21866 2.95913 4.40817 6.00476 6.50745 9.05236zm-446.55094-9.93161-1.4732-1.11448c2.2362-2.95628 4.56215-5.906 6.91306-8.768l1.4279 1.173c-2.33552 2.84266-4.64606 5.77295-6.86776 8.70948zm433.265-7.78832c-2.321-2.85075-4.73306-5.69368-7.1671-8.44962l1.3843-1.22331c2.45112 2.77449 4.8785 5.63641 7.21563 8.50661zm-419.18718-9.34729-1.379-1.22874c2.462-2.76339 5.01556-5.51655 7.59-8.183l1.3292 1.28361c-2.5572 2.64846-5.094 5.38364-7.54016 8.12813zm404.51913-7.26119c-2.548-2.66113-5.18-5.30315-7.824-7.85318l1.28271-1.3301c2.66109 2.56723 5.31106 5.22689 7.87526 7.90567zm-389.12168-8.686-1.2767-1.33576c2.67425-2.55655 5.4391-5.09521 8.21675-7.54632l1.22241 1.38521c-2.75951 2.43491-5.50582 4.95739-8.16242 7.49685zm373.16588-6.70289c-2.7526-2.44979-5.58919-4.87415-8.42969-7.20515l1.17207-1.42835c2.85939 2.34685 5.71487 4.78706 8.48546 7.2536zm-356.54931-7.95656-1.16632-1.43283c2.87426-2.33847 5.83188-4.6469 8.79009-6.862l1.10753 1.47866c-2.93872 2.20025-5.87645 4.49389-8.73126 6.81615zm339.40464-6.11141c-2.94009-2.22171-5.96329-4.41167-8.98317-6.50914l1.05327-1.5176c3.04059 2.11152 6.08359 4.316 9.04438 6.55265zm-321.67658-7.16587-1.04784-1.52176c3.05256-2.10062 6.18394-4.164 9.30734-6.13312l.98546 1.56306c-3.10261 1.95561-6.21319 4.00507-9.24496 6.09182zm303.45286-5.48786c-3.10869-1.97777-6.2987-3.91838-9.48269-5.76784l.929-1.5974c3.2038 1.86171 6.41541 3.81547 9.54571 5.8064zm-284.72825-6.31747-.92174-1.60164c3.20058-1.84212 6.48583-3.64653 9.76358-5.36209l.85711 1.63661c-3.25651 1.70431-6.51962 3.49661-9.69895 5.32707zm265.537-4.83284c-3.25749-1.72024-6.59541-3.3979-9.92189-4.98621l.79574-1.66729c3.349 1.59875 6.71034 3.28776 9.98855 5.0198zm-245.936-5.42333-.78979-1.67067c3.33683-1.57734 6.75427-3.10977 10.15788-4.55472l.72158 1.70068c-3.38063 1.43505-6.77547 2.95721-10.08976 4.52466zm225.89514-4.14421c-3.391-1.45319-6.8561-2.85521-10.29987-4.16829l.65881-1.72638c3.46629 1.32172 6.95574 2.73374 10.36834 4.19647zm-205.54443-4.49243-.65247-1.72887c3.46135-1.30673 7.00011-2.56089 10.51785-3.72806l.58157 1.7539c-3.49375 1.15917-7.00863 2.40524-10.44695 3.70303zm184.78-3.42342c-3.48754-1.16933-7.04653-2.283-10.57874-3.30989l.51642-1.77376c3.55565 1.03377 7.13807 2.1547 10.649 3.33177zm-163.74315-3.55681-.51023-1.77532c3.5565-1.02224 7.18543-1.98561 10.78567-2.86382l.438 1.79493c-3.57632.87242-7.18087 1.82958-10.71344 2.84421zm142.4602-2.63079c-3.56426-.88179-7.20225-1.70338-10.81208-2.44187l.37039-1.81033c3.63418.74354 7.2965 1.57107 10.8851 2.45835zm-120.92785-2.61974-.36486-1.81093c3.62456-.72972 7.31928-1.39606 10.98171-1.98086l.29175 1.82422c-3.63852.58127-7.30842 1.24318-10.9086 1.96757zm99.2143-1.82449c-3.63151-.59107-7.32369-1.11647-10.97419-1.56054l.22342-1.83427c3.67485.44731 7.39182.976 11.04723 1.57161zm-77.32774-1.66882-.21773-1.83481c3.67683-.43544 7.413-.80258 11.10465-1.09l.14373 1.84178c-3.66732.28614-7.37865.65024-11.03066 1.08303zm55.3265-1.01037c-3.6618-.29751-7.38427-.5253-11.06369-.67672l.07641-1.84647c3.70377.15285 7.45059.38207 11.13674.68146zm-33.2292-.71357-.06975-1.84605c3.69481-.14038 7.44847-.2084 11.15678-.20259l-.00333 1.84762c-3.68356-.00573-7.41282.06191-11.08371.20102z" fill="#3f3d56" transform="translate(-49.17589 -18.02843)"/><path d="m1032.068 458.105-176.096 305.011-58.213 100.827-11.091-6.402-110.761-63.947-82.683-47.74-300.639-173.568 42.063-572.286z" fill="#f1f1f1"/><g transform="translate(-49.17589 -18.02843)"><path d="m259.03685 598.59243c8.84877-36.15483 37.51244-65.29834 73.892-73.77306a100.82808 100.82808 0 0 1 58.17758 3.73958c18.93572 7.14323 35.17754 19.8477 50.29257 33.00677 29.1982 25.41982 57.48 51.88081 92.75037 68.84306 31.50445 15.15112 66.97959 21.58585 101.23622 12.55071a105.32434 105.32434 0 0 0 42.1734-21.73337c12.50857-10.82863 21.30955-25.006 27.14844-40.38015 12.23861-32.22492 11.99584-67.47385 21.33952-100.45 4.81543-16.99482 12.45848-33.04934 24.66594-46.00028 12.06828-12.8033 27.428-22.18486 43.72054-28.624 38.63563-15.26963 80.453-14.03159 121.2661-13.49266 38.57223.50935 78.09954-.15525 114.22956-15.34538 16.1-6.76892 31.12931-16.33722 43.008-29.248 12.6543-13.75383 21.08526-30.66852 27.12126-48.22435 3.11591-9.06268 5.59769-18.3225 7.83-27.63773.83083-3.467-4.5126-4.9464-5.34484-1.47351-4.62144 19.28486-10.36549 38.59-20.52676 55.76272a106.897 106.897 0 0 1 -39.14685 38.30687c-34.04114 19.55694-74.22733 22.53045-112.63059 22.44479-41.21478-.09194-83.37526-3.15928-123.41014 8.77732-32.57985 9.71384-62.56288 29.176-77.64924 60.54406-15.01738 31.22466-15.54193 66.65722-23.01783 99.94238-3.713 16.53169-9.26525 32.80779-19.2227 46.68605-9.92528 13.83341-24.14035 24.16978-39.87565 30.475-33.64319 13.481-71.15928 9.52675-103.817-4.77167-36.61147-16.02949-65.93681-42.73483-95.57408-68.80965-14.27649-12.56042-29.29157-24.79-46.61916-32.907a105.2615 105.2615 0 0 0 -147.36155 70.318c-.84784 3.46416 4.49591 4.94216 5.34485 1.47351z" fill="#3f3d56"/><path d="m651.59675 734.51839h-92.82008a324.64211 324.64211 0 0 1 0-110.6701h92.82008a199.13292 199.13292 0 0 0 0 110.6701z" fill="#ff6584"/><path d="m304.38372 623.63111h92.82009a324.64211 324.64211 0 0 0 0-110.6701h-92.82009a199.13274 199.13274 0 0 1 0 110.6701z" fill="#6c63ff"/><path d="m324.054 559.51779a22.21844 22.21844 0 0 1 19.22985 1.44566c4.8769 2.72518 9.30138 6.05318 14.961 6.92169a23.13152 23.13152 0 0 0 13.582-2.07552c5.40714-2.64366 8.74467-7.73247 13.37368-11.38242 2.59709-2.04778-1.06412-5.66445-3.6363-3.6363-4.52113 3.56489-7.74512 8.74936-13.25268 10.93964-5.89625 2.34486-11.63561 1.14832-16.98344-1.93277-4.31094-2.48369-8.32851-5.3263-13.27794-6.40687a27.15439 27.15439 0 0 0 -15.36317 1.1681c-3.07488 1.14308-1.7444 6.1155 1.36708 4.95881z" fill="#f2f2f2"/><path d="m324.054 584.37323a22.21844 22.21844 0 0 1 19.22985 1.44566c4.8769 2.72519 9.30138 6.05318 14.961 6.92169a23.13152 23.13152 0 0 0 13.582-2.07552c5.40714-2.64366 8.74467-7.73247 13.37368-11.38242 2.59709-2.04778-1.06412-5.66445-3.6363-3.6363-4.52113 3.56489-7.74512 8.74936-13.25268 10.93964-5.89625 2.34486-11.63561 1.14832-16.98344-1.93277-4.31094-2.48369-8.32851-5.3263-13.27794-6.40687a27.15439 27.15439 0 0 0 -15.36322 1.16808c-3.07488 1.14308-1.7444 6.1155 1.36708 4.95881z" fill="#f2f2f2"/><path d="m626.29448 656.3683a22.21845 22.21845 0 0 0 -19.22986 1.44566c-4.8769 2.72518-9.30137 6.05318-14.961 6.92169a23.13149 23.13149 0 0 1 -13.582-2.07552c-5.40714-2.64366-8.74468-7.73247-13.37368-11.38242-2.59709-2.04778 1.06411-5.66445 3.6363-3.6363 4.52112 3.56489 7.74512 8.74936 13.25267 10.93964 5.89626 2.34486 11.63561 1.14832 16.98345-1.93277 4.31093-2.48369 8.32851-5.32631 13.27794-6.40687a27.1544 27.1544 0 0 1 15.36322 1.16808c3.07488 1.14308 1.7444 6.1155-1.36708 4.95881z" fill="#f2f2f2"/><path d="m626.29448 680.36665a22.21846 22.21846 0 0 0 -19.22986 1.44567c-4.8769 2.72518-9.30137 6.05318-14.961 6.92169a23.13149 23.13149 0 0 1 -13.582-2.07552c-5.40714-2.64366-8.74468-7.73247-13.37368-11.38242-2.59709-2.04779 1.06411-5.66445 3.6363-3.6363 4.52112 3.56488 7.74512 8.74935 13.25267 10.93964 5.89626 2.34485 11.63561 1.14831 16.98345-1.93278 4.31093-2.48369 8.32851-5.3263 13.27794-6.40686a27.1544 27.1544 0 0 1 15.36322 1.16807c3.07488 1.14309 1.7444 6.1155-1.36708 4.95881z" fill="#f2f2f2"/><path d="m626.29448 704.365a22.21842 22.21842 0 0 0 -19.22986 1.44567c-4.8769 2.72518-9.30137 6.05317-14.961 6.92168a23.1314 23.1314 0 0 1 -13.582-2.07551c-5.40714-2.64367-8.74468-7.73248-13.37368-11.38242-2.59709-2.04779 1.06411-5.66446 3.6363-3.6363 4.52112 3.56488 7.74512 8.74935 13.25267 10.93963 5.89626 2.34486 11.63561 1.14832 16.98345-1.93277 4.31093-2.48369 8.32851-5.3263 13.27794-6.40687a27.1544 27.1544 0 0 1 15.36322 1.16808c3.07488 1.14308 1.7444 6.1155-1.36708 4.95881z" fill="#f2f2f2"/><path d="m809.31268 226.02392c-19.86488-33.56549-59.16595-35.12979-59.16595-35.12979s-38.29665-4.89734-62.86372 46.22332c-22.89846 47.64866-54.50126 93.65441-5.08779 104.80861l8.92551-27.78017 5.52752 29.84837a193.34033 193.34033 0 0 0 21.14218.36134c52.91783-1.7085 103.31407.49986 101.69139-18.48928-2.15709-25.24338 8.94486-67.54568-10.16914-99.8424z" fill="#2f2e41"/><path d="m673.70017 544.75356-66.99395 46.52358s-39.07981 40.94075-11.16566 40.94075 39.0798-35.35789 39.0798-35.35789l85.60339-37.21886z" fill="#ffb8b8"/><path d="m700.68385 363.31161s-58.61971 181.442-40.01028 190.74667 59.55018 14.88754 59.55018 14.88754z" fill="#d0cde1"/><path d="m700.68385 363.31161s-58.61971 181.442-40.01028 190.74667 59.55018 14.88754 59.55018 14.88754z" opacity=".1"/><path d="m905.14765 781.14423-58.21314 100.82734-11.09067-6.40239c-21.19568-81.31157-46.76251-178.22208-46.76251-178.22208l-63.99846 114.275-82.68294-47.7396c19.7901-42.60567 53.62776-142.83309 53.62776-142.83309l150.744-76.2976s48.38241 29.7751 50.24227 102.353 1.85986 115.38066 1.85986 115.38066 2.45979 7.07097 6.27383 18.65876z" fill="#2f2e41"/></g><circle cx="688.72682" cy="250.37508" fill="#ffb8b8" r="48.38452"/><path d="m736.97224 308.41378s11.16566 35.35792 0 48.38452 61.41112-18.60943 61.41112-18.60943-26.0532-37.21886-18.60943-53.96735z" fill="#ffb8b8" transform="translate(-49.17589 -18.02843)"/><path d="m805.77639 316.12183a47.68848 47.68848 0 0 1 -4.60161 6.249c-1.861 1.86094-13.02661 3.72188-14.88755 7.44377s-29.30137 9.02715-29.30137 9.02715l-9.77843 3.99945s-46.52358 11.16566-46.52358 20.47038-3.72189 37.21886-3.72189 37.21886-14.88755 16.74849-5.58283 57.68924c3.5852 15.77488 8.58232 46.37644 5.77992 78.8098-4.47071 51.74133-17.64581 107.57469-3.919 111.0064 22.33132 5.58283 85.60339 7.44377 106.07376-20.47038s22.33132-52.1064 44.66264-53.96735-3.72189-78.15961-3.72189-78.15961l27.91415-182.37243s-46.62505-16.21992-62.39232 3.05572z" fill="#d0cde1" transform="translate(-49.17589 -18.02843)"/><path d="m749.578 606.76284h92.82009a324.64261 324.64261 0 0 0 0-110.6701h-92.82009a199.13274 199.13274 0 0 1 0 110.6701z" fill="#6c63ff" transform="translate(-49.17589 -18.02843)"/><path d="m768.88071 533.80526a22.2184 22.2184 0 0 1 19.22985 1.44567c4.8769 2.72518 9.30138 6.05318 14.961 6.92169a23.13152 23.13152 0 0 0 13.582-2.07552c5.40714-2.64366 8.74467-7.73247 13.37368-11.38242 2.59709-2.04779-1.06412-5.66445-3.6363-3.6363-4.52113 3.56488-7.74512 8.74935-13.25268 10.93963-5.89625 2.34486-11.63561 1.14832-16.98345-1.93277-4.31093-2.48369-8.32851-5.3263-13.27793-6.40686a27.15434 27.15434 0 0 0 -15.36323 1.16807c-3.07488 1.14309-1.74439 6.1155 1.36709 4.95881z" fill="#f2f2f2" transform="translate(-49.17589 -18.02843)"/><path d="m768.88071 557.80362a22.21844 22.21844 0 0 1 19.22985 1.44566c4.8769 2.72519 9.30138 6.05318 14.961 6.92169a23.13144 23.13144 0 0 0 13.582-2.07552c5.40714-2.64366 8.74467-7.73247 13.37368-11.38241 2.59709-2.04779-1.06412-5.66446-3.6363-3.6363-4.52113 3.56488-7.74512 8.74935-13.25268 10.93963-5.89625 2.34486-11.63561 1.14832-16.98345-1.93277-4.31093-2.48369-8.32851-5.3263-13.27793-6.40687a27.15443 27.15443 0 0 0 -15.36323 1.16808c-3.07488 1.14308-1.74439 6.1155 1.36709 4.95881z" fill="#f2f2f2" transform="translate(-49.17589 -18.02843)"/><path d="m902.59618 429.37509-66.994 46.52358s-39.07981 40.94075-11.16566 40.94075 39.0798-35.35792 39.0798-35.35792l85.60339-37.21887z" fill="#ffb8b8" transform="translate(-49.17589 -18.02843)"/><path d="m787.50357 222.78829-38.82757-20.33829-24.36047 3.78a43.54985 43.54985 0 0 0 -35.797 33.41791l-4.55526 20.119 27.6153-1.06214 7.71468-18.00091v17.70424l12.74233-.49012 7.39576-28.65843 4.62227 30.50742 45.29893-.9245z" fill="#2f2e41" transform="translate(-49.17589 -18.02843)"/><path d="m855.14213 316.788 13.0266-3.72189s132.127 53.96735 128.40508 100.49093 1.86094 46.52358-20.47038 48.38452-87.46432-20.47037-85.60338-24.19226 14.88754-22.3313 14.88754-22.3313l-50.24546-39.0798z" fill="#d0cde1" transform="translate(-49.17589 -18.02843)"/><circle cx="737.11134" cy="250.37508" fill="#ffb8b8" r="7.44377"/><path d="m859.42631 392.65069c48.56512-2.62 97.80583 4.27457 145.58633-7.478 3.46207-.85156 1.99572-6.19817-1.47351-5.34485-47.26019 11.62456-96.06929 4.68808-144.11282 7.28-3.54794.19141-3.57039 5.73546 0 5.54284z" fill="#3f3d56" transform="translate(-49.17589 -18.02843)"/><path d="m1073.79952 473.44935 77.02459-51.79557a324.64225 324.64225 0 0 0 -61.75626-91.837l-77.02459 51.79556a199.13282 199.13282 0 0 1 61.75626 91.83701z" fill="#6c63ff" transform="translate(-49.17589 -18.02843)"/><path d="m1054.34587 409.27a22.21844 22.21844 0 0 1 16.76416-9.531c5.5677-.46 11.09634-.16727 16.27749-2.60475a23.13139 23.13139 0 0 0 10.11248-9.30141c3.01178-5.21108 2.94169-11.29633 4.74621-16.90824 1.01243-3.14853-4.04391-4.10671-5.04663-.98836-1.76247 5.48112-1.54478 11.58239-4.89288 16.47327-3.58438 5.23606-9.01475 7.44582-15.17184 7.87326-4.96328.34456-9.88341.22758-14.59355 2.09278a27.15443 27.15443 0 0 0 -12.097 9.5423c-1.91375 2.66441 1.965 6.04822 3.90156 3.3521z" fill="#f2f2f2" transform="translate(-49.17589 -18.02843)"/><path d="m1068.21573 429.89566a22.21844 22.21844 0 0 1 16.76416-9.531c5.5677-.46 11.09634-.16727 16.27749-2.60475a23.13152 23.13152 0 0 0 10.1125-9.30134c3.01177-5.21108 2.94168-11.29633 4.7462-16.90824 1.01243-3.14854-4.04391-4.10671-5.04663-.98836-1.76247 5.48112-1.54478 11.58239-4.89288 16.47327-3.58438 5.23606-9.01475 7.44582-15.17184 7.87326-4.96328.34456-9.88341.22757-14.59355 2.09278a27.15443 27.15443 0 0 0 -12.097 9.5423c-1.91375 2.66441 1.965 6.04822 3.90156 3.3521z" fill="#f2f2f2" transform="translate(-49.17589 -18.02843)"/><path d="m49.33874 69.22895h389.29357v100.22865h-389.29357z" fill="#3f3d56" transform="matrix(.99999465 .00327022 -.00327022 .99999465 -48.78431 -18.82567)"/><circle cx="46.68685" cy="100.67885" fill="#6c63ff" r="27.27194"/><path d="m153.14181 96.085h112.83096v8.02116h-112.83096z" fill="#fff" transform="matrix(.99999465 .00327022 -.00327022 .99999465 -48.84744 -18.71319)"/><path d="m153.0785 115.55776h248.65592v8.02116h-248.65592z" fill="#fff" transform="matrix(.99999465 .00327022 -.00327022 .99999465 -48.7834 -18.93497)"/><path d="m153.01554 134.80844h248.65592v8.02116h-248.65592z" fill="#fff" transform="matrix(.99999465 .00327022 -.00327022 .99999465 -48.72044 -18.93466)"/><path d="m49.33874 336.22895h389.29357v100.22865h-389.29357z" fill="#3f3d56" transform="matrix(.99999465 .00327022 -.00327022 .99999465 -47.91117 -18.82425)"/><circle cx="46.68685" cy="367.67885" fill="#6c63ff" r="27.27194"/><path d="m153.14181 363.085h112.83096v8.02116h-112.83096z" fill="#fff" transform="matrix(.99999465 .00327022 -.00327022 .99999465 -47.97429 -18.71176)"/><path d="m153.0785 382.55776h248.65592v8.02116h-248.65592z" fill="#fff" transform="matrix(.99999465 .00327022 -.00327022 .99999465 -47.91025 -18.93354)"/><path d="m153.01554 401.80844h248.65592v8.02116h-248.65592z" fill="#fff" transform="matrix(.99999465 .00327022 -.00327022 .99999465 -47.8473 -18.93323)"/><path d="m143.01601 202.82836h389.29357v100.22865h-389.29357z" fill="#3f3d56" transform="matrix(-.99999465 .00327022 -.00327022 -.99999465 626.97505 486.75136)"/><circle cx="436.60967" cy="234.27826" fill="#6c63ff" r="27.27194"/><path d="m315.67553 229.6844h112.83096v8.02116h-112.83096z" fill="#fff" transform="matrix(-.99999465 .00327022 -.00327022 -.99999465 695.76837 448.14347)"/><path d="m179.91389 249.15717h248.65592v8.02116h-248.65592z" fill="#fff" transform="matrix(-.99999465 .00327022 -.00327022 -.99999465 560.1341 487.31078)"/><path d="m179.97685 268.40785h248.65592v8.02116h-248.65592z" fill="#fff" transform="matrix(-.99999465 .00327022 -.00327022 -.99999465 560.32296 525.81183)"/></svg>