<?xml version="1.0" standalone="no"?>
<!DOCTYPE svg PUBLIC "-//W3C//DTD SVG 20010904//EN"
 "http://www.w3.org/TR/2001/REC-SVG-20010904/DTD/svg10.dtd">
<svg version="1.0" xmlns="http://www.w3.org/2000/svg"
 width="700.000000pt" height="700.000000pt" viewBox="0 0 700.000000 700.000000"
 preserveAspectRatio="xMidYMid meet">
<metadata>
Created by potrace 1.14, written by Peter Selinger 2001-2017
</metadata>
<g transform="translate(0.000000,700.000000) scale(0.100000,-0.100000)"
fill="#000000" stroke="none">
<path d="M3348 5505 c-2 -1 -57 -6 -123 -9 -66 -4 -133 -9 -150 -11 -16 -2
-84 -11 -150 -20 -94 -13 -272 -46 -370 -70 -95 -22 -298 -85 -312 -97 -7 -6
-13 -7 -13 -3 0 4 -7 2 -15 -5 -8 -7 -15 -9 -15 -6 0 4 -12 1 -27 -7 -52 -27
-137 -62 -145 -60 -4 2 -8 -2 -8 -8 0 -5 -4 -7 -10 -4 -5 3 -10 2 -10 -2 0 -7
-51 -34 -72 -37 -4 0 -16 -8 -25 -16 -10 -8 -39 -26 -63 -39 -55 -29 -224
-148 -305 -214 -77 -62 -221 -210 -280 -287 -26 -34 -73 -102 -104 -152 l-58
-91 -64 -19 c-93 -27 -91 -26 -134 -42 -22 -8 -50 -15 -62 -16 -62 -1 -121
-139 -149 -346 -3 -27 -8 -52 -10 -55 -6 -11 -18 -265 -18 -389 0 -368 56
-684 132 -754 20 -17 218 -90 274 -100 33 -6 42 -15 77 -74 109 -186 288 -380
496 -538 121 -91 364 -225 520 -285 191 -75 469 -156 590 -174 23 -3 52 -8 65
-11 28 -6 191 -29 270 -39 71 -8 309 -19 425 -19 128 0 414 12 424 18 3 2 40
7 81 10 41 4 82 9 90 11 8 2 38 6 65 10 117 14 332 64 500 116 535 166 982
493 1209 886 33 58 47 73 71 78 17 4 92 27 167 51 156 51 163 57 203 171 20
59 30 109 60 298 14 88 14 569 0 695 -31 281 -87 438 -156 440 -16 0 -229 62
-279 81 -16 6 -39 35 -65 81 -58 105 -173 250 -281 355 -319 312 -766 527
-1304 627 -120 22 -157 28 -250 41 -14 2 -52 6 -85 9 -33 3 -89 9 -125 12 -67
6 -476 14 -482 9z"/>
</g>
</svg>
