<svg height="681.8936" viewBox="0 0 808.84067 681.8936" width="808.84067" xmlns="http://www.w3.org/2000/svg"><g transform="translate(-195.57967 -109.0532)"><path d="m866.24553 659.31387-268.34508-122.50465 138.17481-302.67037 268.34507 122.50466z" fill="#f2f2f2"/><path d="m907.12341 483.47827-203.14462-92.7394a1.58594 1.58594 0 0 1 1.31725-2.88543l203.14462 92.7394a1.58594 1.58594 0 0 1 -1.31725 2.88543z" fill="#fff"/><path d="m918.41962 458.73405-203.14462-92.7394a1.58594 1.58594 0 1 1 1.31725-2.88543l203.14462 92.7394a1.58594 1.58594 0 1 1 -1.31725 2.88543z" fill="#fff"/><path d="m929.71583 433.98984-203.14462-92.73941a1.58594 1.58594 0 1 1 1.31725-2.88543l203.14462 92.7394a1.58595 1.58595 0 0 1 -1.31725 2.88544z" fill="#fff"/><path d="m941.012 409.24562-203.14458-92.73941a1.58594 1.58594 0 1 1 1.31725-2.88543l203.14462 92.73941a1.58594 1.58594 0 0 1 -1.31725 2.88543z" fill="#fff"/><path d="m896.91469 505.84036-203.14462-92.73936a1.58594 1.58594 0 1 1 1.31725-2.88543l203.14462 92.7394a1.58594 1.58594 0 0 1 -1.31725 2.88543z" fill="#fff"/><path d="m930.83742 372.9484-158.68169-72.44123a3.9649 3.9649 0 0 1 -2.22982-4.77891 3.816 3.816 0 0 1 5.20033-2.25249l158.63343 72.41923a4.00065 4.00065 0 0 1 2.261 4.85011 3.81579 3.81579 0 0 1 -5.18325 2.20329z" fill="#fff"/><path d="m320.27065 356.64351 268.34507-122.50466 138.17481 302.67037-268.34507 122.50465z" fill="#f2f2f2"/><path d="m417.56758 483.47827 203.14461-92.7394a1.58594 1.58594 0 1 0 -1.31725-2.88543l-203.14462 92.7394a1.58594 1.58594 0 1 0 1.31726 2.88543z" fill="#fff"/><path d="m406.27137 458.73405 203.14463-92.7394a1.58594 1.58594 0 0 0 -1.31726-2.88543l-203.14462 92.7394a1.58594 1.58594 0 1 0 1.31726 2.88543z" fill="#fff"/><path d="m394.97516 433.98984 203.14462-92.73941a1.58594 1.58594 0 0 0 -1.31726-2.88543l-203.14462 92.7394a1.58595 1.58595 0 0 0 1.31726 2.88544z" fill="#fff"/><path d="m383.679 409.24562 203.14462-92.73941a1.58594 1.58594 0 1 0 -1.31726-2.88543l-203.14467 92.73941a1.58594 1.58594 0 0 0 1.31726 2.88543z" fill="#fff"/><path d="m427.7763 505.84036 203.14462-92.73936a1.58594 1.58594 0 0 0 -1.31726-2.88543l-203.14466 92.73936a1.58594 1.58594 0 1 0 1.31726 2.88543z" fill="#fff"/><path d="m393.85356 372.9484 158.68169-72.44123a3.96488 3.96488 0 0 0 2.22982-4.77891 3.816 3.816 0 0 0 -5.20032-2.25249l-158.63344 72.41923a4.00067 4.00067 0 0 0 -2.261 4.85011 3.81579 3.81579 0 0 0 5.18325 2.20329z" fill="#fff"/><path d="m222.40481 714.03126c1.69423-26.24429 16.317-52.871 40.65983-62.82314a121.16927 121.16927 0 0 0 4.93287 83.04447c4.43053 10.10062 10.41006 20.87363 7.43637 31.49487-1.85017 6.60882-7.02235 11.888-12.94859 15.34869-5.92661 3.46069-12.6203 5.33966-19.23087 7.18405l-1.25323 1.16816c-12.05459-23.37347-21.29061-49.17281-19.59638-75.4171z" fill="#f0f0f0"/><path d="m263.34042 651.68609a103.56706 103.56706 0 0 0 -22.24942 59.71 44.59937 44.59937 0 0 0 1.33347 13.91012 25.57977 25.57977 0 0 0 7.05351 11.46684c3.04906 2.97518 6.51244 5.66536 8.78518 9.32991a15.66257 15.66257 0 0 1 1.52111 12.71858c-1.50058 5.29374-4.81379 9.73259-8.20469 13.96082-3.76494 4.69464-7.74992 9.51126-9.11223 15.51981-.16506.728-1.28505.42933-1.12024-.29759 2.37018-10.45385 12.00015-16.88329 16.20867-26.422 1.96377-4.45092 2.5981-9.52061.24636-13.9565-2.05648-3.879-5.62559-6.6562-8.73886-9.64195a27.29558 27.29558 0 0 1 -7.31456-10.95513 41.23112 41.23112 0 0 1 -1.86335-13.80753 100.47854 100.47854 0 0 1 5.51711-30.9156 105.40343 105.40343 0 0 1 17.12084-31.44219c.46185-.58333 1.27593.24285.8171.82236z" fill="#fff"/><path d="m240.987 704.37553a15.53836 15.53836 0 0 1 -12.771-15.548.58005.58005 0 0 1 1.15934-.01084 14.38817 14.38817 0 0 0 11.90924 14.43856c.73455.12924.43276 1.24874-.29759 1.12023z" fill="#fff"/><path d="m247.73331 735.46815a29.94891 29.94891 0 0 0 12.329-18.01017c.16764-.72741 1.28767-.42894 1.12024.29759a31.15139 31.15139 0 0 1 -12.86755 18.71514c-.619.41865-1.19736-.58618-.5817-1.00256z" fill="#fff"/><path d="m250.4132 671.958a8.79547 8.79547 0 0 0 8.29544-.916c.61341-.42629 1.19112.579.5817 1.00255a9.856 9.856 0 0 1 -9.17473 1.0337.599.599 0 0 1 -.41132-.70892.58248.58248 0 0 1 .70891-.41132z" fill="#fff"/><path d="m341.5588 693.24718c-.37545.27708-.75091.55416-1.12626.841a115.83119 115.83119 0 0 0 -14.09954 12.41973c-.34231.34372-.684.69721-1.01576 1.05a122.11237 122.11237 0 0 0 -24.32369 37.80982 118.58674 118.58674 0 0 0 -5.489 17.16153c-1.92168 8.08117-3.36229 16.99612-7.71329 23.77108a20.34637 20.34637 0 0 1 -1.46623 2.04693l-42.80152 2.53933c-.10017-.04305-.20024-.07635-.30088-.11936l-1.7043.17952c.05071-.30679.10989-.6239.16059-.9307.02867-.17809.06688-.35674.09555-.53483.02214-.11891.04474-.2379.05792-.34646.00722-.03961.01492-.07924.02271-.10913.01318-.10857.037-.208.05071-.3068q.48887-2.66019 1.01683-5.32276c-.00058-.00978-.00058-.00978.00838-.02012 2.71642-13.51815 6.58525-26.9283 12.36649-39.32491.17406-.37291.34707-.75556.54068-1.12963a113.15757 113.15757 0 0 1 9.23324-15.99213 100.03668 100.03668 0 0 1 6.19893-8.00172 83.18731 83.18731 0 0 1 19.85692-16.7988c14.87044-9.016 32.45882-13.17575 49.1586-9.19806.42712.1021.8452.20464 1.27292.31647z" fill="#f0f0f0"/><path d="m341.49481 693.79613a103.56714 103.56714 0 0 0 -53.71447 34.27942 44.59967 44.59967 0 0 0 -7.31015 11.90929 25.57987 25.57987 0 0 0 -1.272 13.40234c.64324 4.21125 1.78888 8.44441 1.39723 12.73869a15.66261 15.66261 0 0 1 -6.44294 11.07089c-4.38533 3.3233-9.70324 4.87269-14.95637 6.20714-5.83259 1.48165-11.91431 2.92822-16.6196 6.90551-.57011.4819-1.28453-.4309-.71528-.91207 8.18639-6.9198 19.74636-6.25544 28.84956-11.33772 4.24772-2.37149 7.8065-6.03745 8.59949-10.99517.69343-4.33531-.48423-8.70159-1.17237-12.95995a27.29557 27.29557 0 0 1 .75547-13.15093 41.2313 41.2313 0 0 1 6.82531-12.1464 100.47866 100.47866 0 0 1 23.01843-21.3627 105.40368 105.40368 0 0 1 32.6004-14.7969c.72-.18769.87255.9621.15729 1.14856z" fill="#fff"/><path d="m291.92419 722.40742a15.53837 15.53837 0 0 1 -.836-20.10319c.46083-.58635 1.39363.10222.93219.68934a14.38819 14.38819 0 0 0 .81585 18.69857c.5087.54544-.40628 1.2576-.91207.71528z" fill="#fff"/><path d="m278.59082 751.29486a29.94894 29.94894 0 0 0 20.68738-6.9572c.5718-.47987 1.28639.43278.71528.91207a31.15143 31.15143 0 0 1 -21.54181 7.19584c-.74632-.03843-.60311-1.18893.13915-1.15071z" fill="#fff"/><path d="m318.96807 702.199a8.79545 8.79545 0 0 0 7.17495 4.263c.74643.029.60242 1.17947-.13915 1.15071a9.856 9.856 0 0 1 -7.94787-4.69847.599.599 0 0 1 .0984-.81367.58246.58246 0 0 1 .81367.09839z" fill="#fff"/><path d="m861.997 661.85822h-401.25611v-452.58262h401.25611z" fill="#fff"/><path d="m861.997 661.85822h-401.25611v-452.58262h401.25611zm-399.09877-2.15729h396.94143v-448.268h-396.94148z" fill="#cacaca"/><path d="m813.24987 421.18544h-303.76187a2.15729 2.15729 0 1 1 0-4.31458h303.7619a2.15729 2.15729 0 0 1 0 4.31458z" fill="#e4e4e4"/><path d="m813.24987 384.18544h-303.76187a2.15729 2.15729 0 1 1 0-4.31458h303.7619a2.15729 2.15729 0 0 1 0 4.31458z" fill="#e4e4e4"/><path d="m813.24987 347.18544h-303.76187a2.15729 2.15729 0 1 1 0-4.31458h303.7619a2.15729 2.15729 0 0 1 0 4.31458z" fill="#e4e4e4"/><path d="m813.24987 310.18544h-303.76187a2.15729 2.15729 0 1 1 0-4.31458h303.7619a2.15729 2.15729 0 0 1 0 4.31458z" fill="#e4e4e4"/><path d="m813.24987 454.62344h-303.76187a2.15729 2.15729 0 1 1 0-4.31458h303.7619a2.15729 2.15729 0 0 1 0 4.31458z" fill="#e4e4e4"/><path d="m813.24987 620.62344h-303.76187a2.15729 2.15729 0 1 1 0-4.31458h303.7619a2.15729 2.15729 0 0 1 0 4.31458z" fill="#e4e4e4"/><path d="m740.48441 585.9937h-158.231a3.99339 3.99339 0 0 1 -3.989-3.989v-93.07708a3.99338 3.99338 0 0 1 3.989-3.989h158.231a3.99337 3.99337 0 0 1 3.989 3.989v93.07706a3.99338 3.99338 0 0 1 -3.989 3.98902z" fill="#fff"/><path d="m687.64325 532.82035a8.8014 8.8014 0 0 0 -12.64552-.226l-44.53038 44.53065a6.28787 6.28787 0 0 1 -8.86881.01331l-6.59513-6.58189a8.78014 8.78014 0 0 0 -12.41958 0l-12.76433 12.77817h143.09883v-1.82165z" fill="#2ca8ff"/><path d="m740.48441 585.9937h-158.231a3.99339 3.99339 0 0 1 -3.989-3.989v-93.07708a3.99338 3.99338 0 0 1 3.989-3.989h158.231a3.99337 3.99337 0 0 1 3.989 3.989v93.07706a3.99338 3.99338 0 0 1 -3.989 3.98902zm-158.23099-98.3957a1.3312 1.3312 0 0 0 -1.32967 1.32967v93.07706a1.33119 1.33119 0 0 0 1.32967 1.32967h158.231a1.33119 1.33119 0 0 0 1.32968-1.32967v-93.07711a1.3312 1.3312 0 0 0 -1.32968-1.32967z" fill="#3f3d56"/><path d="m359.01738 570.43562a10.05575 10.05575 0 0 0 -8.67173-12.74978l-8.29088-34.75975-12.7075 13.5408 9.82137 30.9325a10.11027 10.11027 0 0 0 19.84874 3.03623z" fill="#ffb6b6"/><path d="m336.85563 557.82806a4.505 4.505 0 0 1 -2.70763-2.47619l-17.579-42.99751a46.37343 46.37343 0 0 1 -1.64817-32.60257l11.264-35.28292a14.49652 14.49652 0 1 1 28.87239 2.642l-14.93809 56.81578 10.00513 44.62172a4.51466 4.51466 0 0 1 -2.20041 4.67919l-7.41611 4.23741a4.50564 4.50564 0 0 1 -2.62316.57567 4.45469 4.45469 0 0 1 -1.02895-.21258z" fill="#e4e4e4"/></g><path d="m203.799 669.082h12.259l5.833-47.288h-18.095z" fill="#ffb6b6"/><path d="m396.25093 774.13262 24.144-.001h.001a15.3873 15.3873 0 0 1 15.38647 15.38623v.5l-39.53076.00146z" fill="#2f2e41" transform="translate(-195.57967 -109.0532)"/><path d="m134.799 669.082h12.259l5.833-47.288h-18.095z" fill="#ffb6b6"/><path d="m327.25093 774.13262 24.144-.001h.001a15.3873 15.3873 0 0 1 15.38647 15.38623v.5l-39.53076.00146z" fill="#2f2e41" transform="translate(-195.57967 -109.0532)"/><path d="m406.76052 539.61811-71.89678-6.32584s-7.10322 45.32584-6.10322 63.32584 2 46 2 46l-8 122 31-4 4-101 13-55 15 70 10 90 27-3-9-109s7.99997-98-7-113z" fill="#2f2e41" transform="translate(-195.57967 -109.0532)"/><circle cx="182.18086" cy="277.56493" fill="#ffb8b8" r="20"/><path d="m399.66234 431.2756-14.28451-11.3709s-15.469-11.93613-24.54315-3.11136l-4.07412 5.82477s-23.09822 8.65749-23.09822 19.65749l1.09822 60.34251s-8 31 4 33l69.90178 5.65749-.90178-57.65749z" fill="#e4e4e4" transform="translate(-195.57967 -109.0532)"/><path d="m362.26052 404.11811s-21-15-10-33c7.63117-12.48737 23.44413-11.49893 32.414-9.72226a15.154 15.154 0 0 1 11.086 8.72226c1.5 3.5 1.5 7-4.5 7-12 0-6 9-6 9s-8 2-6 9-17 9-17 9z" fill="#2f2e41" transform="translate(-195.57967 -109.0532)"/><path d="m471.81865 536.66284a10.05576 10.05576 0 0 0 -13.94451-6.58077l-24.79214-25.73572-4.072 18.11774 24.16736 21.66143a10.11027 10.11027 0 0 0 18.64135-7.46268z" fill="#ffb6b6" transform="translate(-195.57967 -109.0532)"/><path d="m446.32471 537.05427a4.505 4.505 0 0 1 -3.58993-.75841l-36.97666-28.11642a46.37345 46.37345 0 0 1 -17.97415-27.2502l-8.21132-36.11559a14.49652 14.49652 0 1 1 26.215-12.38415l15.97959 56.5317 31.27651 33.36137a4.51469 4.51469 0 0 1 .48026 5.1484l-4.2374 7.41612a4.50564 4.50564 0 0 1 -1.96754 1.82787 4.45492 4.45492 0 0 1 -.99436.33931z" fill="#e4e4e4" transform="translate(-195.57967 -109.0532)"/><path d="m954.23551 139.23028h-577.55578a.83826.83826 0 0 1 0-1.67651h577.55578a.83826.83826 0 0 1 0 1.67651z" fill="#cacaca" transform="translate(-195.57967 -109.0532)"/><circle cx="199.96734" cy="9.22077" fill="#3f3d56" r="9.22077"/><circle cx="231.82092" cy="9.22077" fill="#3f3d56" r="9.22077"/><circle cx="263.67451" cy="9.22077" fill="#3f3d56" r="9.22077"/><path d="m935.15042 114.69325h-22.63281a1.67651 1.67651 0 0 1 0-3.353h22.63281a1.67651 1.67651 0 0 1 0 3.353z" fill="#3f3d56" transform="translate(-195.57967 -109.0532)"/><path d="m935.15042 120.98014h-22.63281a1.67651 1.67651 0 0 1 0-3.353h22.63281a1.67651 1.67651 0 0 1 0 3.353z" fill="#3f3d56" transform="translate(-195.57967 -109.0532)"/><path d="m935.15042 127.267h-22.63281a1.67651 1.67651 0 0 1 0-3.353h22.63281a1.67651 1.67651 0 0 1 0 3.353z" fill="#3f3d56" transform="translate(-195.57967 -109.0532)"/><path d="m577.57967 790.2756h-381a1 1 0 1 1 0-2h381a1 1 0 0 1 0 2z" fill="#cacaca" transform="translate(-195.57967 -109.0532)"/><path d="m780.15534 271.01854h-237.27654a5.39326 5.39326 0 0 1 -5.45881-4.65385 5.19076 5.19076 0 0 1 5.1625-5.72493h237.20438a5.44194 5.44194 0 0 1 5.53758 4.72437 5.19046 5.19046 0 0 1 -5.16911 5.65441z" fill="#2ca8ff" transform="translate(-195.57967 -109.0532)"/></svg>