<?xml version="1.0" encoding="utf-8"?>
<!-- Generator: Adobe Illustrator 26.0.2, SVG Export Plug-In . SVG Version: 6.00 Build 0)  -->
<svg version="1.1" id="Layer_1" xmlns="http://www.w3.org/2000/svg" xmlns:xlink="http://www.w3.org/1999/xlink" x="0px" y="0px"
	 viewBox="0 0 1920 1080" style="enable-background:new 0 0 1920 1080;" xml:space="preserve">
<style type="text/css">
	.st0{fill:url(#SVGID_1_);}
	.st1{opacity:0.5;fill:url(#SVGID_00000042015949033500953380000005639899161561558668_);}
	.st2{opacity:0.5;fill:url(#SVGID_00000127761135572613096710000005495714886643599240_);}
	.st3{opacity:0.5;fill:url(#SVGID_00000051345755799833253170000018115332170279572613_);}
	.st4{opacity:0.8;fill:#FFFFFF;}
	.st5{fill:url(#SVGID_00000178196958624312927570000004081644963998056330_);}
	.st6{fill:#2C2A46;}
	.st7{fill:url(#SVGID_00000064320359507882942580000007739600251726147986_);}
	.st8{fill:#00A99D;}
	.st9{opacity:0.5;fill:url(#SVGID_00000136405025040014758680000007773331553103724928_);}
	.st10{opacity:0.5;}
	.st11{fill:#FFFFFF;}
	.st12{opacity:0.6;}
	.st13{fill:#002D73;}
	.st14{opacity:0.1;fill:url(#SVGID_00000148639531007869752970000005192233108064209071_);}
	.st15{clip-path:url(#SVGID_00000074424256489453332870000018162835975022883482_);fill:#FFFFFF;}
	.st16{fill:url(#SVGID_00000169522293604886227880000014516966891185465263_);}
	.st17{opacity:0.5;fill:url(#SVGID_00000030445420999411655690000001713581301013735049_);}
	.st18{opacity:0.5;fill:url(#SVGID_00000177474315034705419470000001972560134477429413_);}
	.st19{fill:url(#SVGID_00000088098025907149903330000012488042875480217227_);}
	.st20{opacity:0.5;fill:url(#SVGID_00000139977733432117442960000010794762568579669124_);}
	.st21{opacity:0.5;fill:url(#SVGID_00000099623603128175047650000005834731735994053281_);}
	.st22{opacity:0.5;fill:#00A99D;}
	.st23{fill:url(#SVGID_00000018915828435357164860000004515354490577077668_);}
	.st24{opacity:0.5;fill:url(#SVGID_00000165955177741367184450000004596932927373328044_);}
	.st25{fill:url(#SVGID_00000031891065851672216180000007179416910021674636_);}
	.st26{opacity:0.5;fill:url(#SVGID_00000044159377898347697000000015558032248908710049_);}
	.st27{opacity:0.5;fill:url(#SVGID_00000047742361006292653980000008408370002659445919_);}
	.st28{filter:url(#Adobe_OpacityMaskFilter);}
	.st29{fill:url(#SVGID_00000005962251165279587860000017377850312513011850_);}
	.st30{opacity:0.5;mask:url(#SVGID_00000089546608509676745730000001688056102641129622_);fill:#00A99D;}
	.st31{filter:url(#Adobe_OpacityMaskFilter_00000153675407603776725940000007883470166736434606_);}
	.st32{fill:url(#SVGID_00000000908684667531941650000000875242602968998836_);}
	.st33{opacity:0.5;mask:url(#SVGID_00000006701360065097486510000008240206208249374083_);fill:#00A99D;}
	.st34{filter:url(#Adobe_OpacityMaskFilter_00000141435052635051212720000015294480228399236248_);}
	.st35{fill:url(#SVGID_00000008106809678488662430000017509231571182632620_);}
	.st36{opacity:0.5;mask:url(#SVGID_00000029032615974941579600000002671229536725666470_);fill:#00A99D;}
	.st37{filter:url(#Adobe_OpacityMaskFilter_00000016797293152164774520000006612147422974258862_);}
	.st38{fill:url(#SVGID_00000144307897406844227830000011829758226063048626_);}
	.st39{opacity:0.5;mask:url(#SVGID_00000031897663563167995180000012757899007991965367_);fill:#00A99D;}
</style>
<g>
	<linearGradient id="SVGID_1_" gradientUnits="userSpaceOnUse" x1="489.0827" y1="225.7018" x2="1487.8009" y2="886.1451">
		<stop  offset="0" style="stop-color:#F3F6FA"/>
		<stop  offset="0.1851" style="stop-color:#EAEFF6"/>
		<stop  offset="0.485" style="stop-color:#D2DDEA"/>
		<stop  offset="0.8604" style="stop-color:#ABC0D7"/>
		<stop  offset="1" style="stop-color:#9BB4CF"/>
	</linearGradient>
	<path class="st0" d="M1630,540c0,341.6-299.2,511.3-668.3,511.3c-369.1,0-668.3-179.7-668.3-511.3c0-331.7,299.2-511.3,668.3-511.3
		C1330.8,28.7,1630,198.4,1630,540z"/>
	
		<linearGradient id="SVGID_00000165196180806904639410000007846682167586486173_" gradientUnits="userSpaceOnUse" x1="961.6636" y1="446.2336" x2="961.6636" y2="1089.5562">
		<stop  offset="0" style="stop-color:#F3F6FA"/>
		<stop  offset="0.1851" style="stop-color:#EAEFF6"/>
		<stop  offset="0.485" style="stop-color:#D2DDEA"/>
		<stop  offset="0.8604" style="stop-color:#ABC0D7"/>
		<stop  offset="1" style="stop-color:#9BB4CF"/>
	</linearGradient>
	<path style="opacity:0.5;fill:url(#SVGID_00000165196180806904639410000007846682167586486173_);" d="M961.7,28.7
		c-369.1,0-668.3,179.6-668.3,511.3c0,331.7,299.2,511.3,668.3,511.3c369.1,0,668.3-169.8,668.3-511.3
		C1630,198.4,1330.8,28.7,961.7,28.7z M961.7,918.9c-278.3,0-503.9-155.3-503.9-405.4c0-250.1,225.6-405.4,503.9-405.4
		c278.3,0,503.9,147.9,503.9,405.4C1465.5,771.1,1240,918.9,961.7,918.9z"/>
	
		<linearGradient id="SVGID_00000010269019690206986070000004955694147853033393_" gradientUnits="userSpaceOnUse" x1="994.9942" y1="676.3374" x2="1093.6479" y2="1084.1078">
		<stop  offset="0" style="stop-color:#F3F6FA"/>
		<stop  offset="0.1851" style="stop-color:#EAEFF6"/>
		<stop  offset="0.485" style="stop-color:#D2DDEA"/>
		<stop  offset="0.8604" style="stop-color:#ABC0D7"/>
		<stop  offset="1" style="stop-color:#9BB4CF"/>
	</linearGradient>
	<path style="opacity:0.5;fill:url(#SVGID_00000010269019690206986070000004955694147853033393_);" d="M961.7,28.7
		c-294.5,0-544.6,143.7-633.5,337.8c21-32,46.3-103.7,75.7-126.2c5.9-7.1,11.8-14.2,17.7-21.4c43.2-37.3,93.9-82,146-109.3
		c61.1-27.7,125.4-53,192.8-59.8c75.3-12,150.7-13.8,226-5.2c159.3,18.2,324.4,88.7,452.5,195.1c67.1,55.7,115.7,182,103.6,268.4
		c-8.4,60.2-44.9,113.2-88.4,155.7C1086,1023,770.6,1113.4,383.9,780.5c-25.7-22.1-48.8-129.7-65.1-159.5c-1.3-2.4-2.3-4.9-3.2-7.4
		c-4.4-13.5-8.2-30.7-11.1-41.8c-3.1-11.9-8.2-27.9-11-42c0,3.4-0.1,6.7-0.1,10.2c0,331.7,299.2,511.3,668.3,511.3
		c369.1,0,668.3-169.8,668.3-511.3C1630,198.4,1330.8,28.7,961.7,28.7z"/>
	
		<linearGradient id="SVGID_00000058547237030007347480000010566804809594971551_" gradientUnits="userSpaceOnUse" x1="1213.9326" y1="706.4087" x2="1456.462" y2="865.7849">
		<stop  offset="0" style="stop-color:#F3F6FA"/>
		<stop  offset="0.1851" style="stop-color:#EAEFF6"/>
		<stop  offset="0.485" style="stop-color:#D2DDEA"/>
		<stop  offset="0.8604" style="stop-color:#ABC0D7"/>
		<stop  offset="1" style="stop-color:#9BB4CF"/>
	</linearGradient>
	<path style="opacity:0.5;fill:url(#SVGID_00000058547237030007347480000010566804809594971551_);" d="M1224.8,72.1
		c29.8,5.9,80.1,51.1,104.1,70.3c36,28.9,88.8,102.8,113.9,141.7c35.8,55.7,49.5,167,47.2,233.3c-2.3,69.1-61.2,180.6-105.3,225.7
		c-44.1,45.1-98.7,78.6-155.4,106c-233.8,113-601.8,97.2-762.2,47.9c10.7,14.7,66.2,49.8,97,61c37.4,13.6,76.2,43.5,115.2,51.1
		c87.8,17.2,177.8,22.6,267.1,22.6c360.7,0,653.2-167.8,653.2-501.6C1599.7,288.5,1446.4,115.7,1224.8,72.1z"/>
	<path class="st4" d="M820.6,334.2c10,42.7-39.7,90.9-110.9,107.5c-71.2,16.6-137.1-4.5-147-47.3c-10-42.7,39.6-90.8,110.9-107.5
		C744.8,270.3,810.6,291.5,820.6,334.2z"/>
	<g>
		
			<linearGradient id="SVGID_00000126315671151441744950000005416690984903399102_" gradientUnits="userSpaceOnUse" x1="961.6934" y1="686.0311" x2="961.6934" y2="431.5712">
			<stop  offset="0" style="stop-color:#F3F6FA"/>
			<stop  offset="0.1851" style="stop-color:#EAEFF6"/>
			<stop  offset="0.485" style="stop-color:#D2DDEA"/>
			<stop  offset="0.8604" style="stop-color:#ABC0D7"/>
			<stop  offset="1" style="stop-color:#9BB4CF"/>
		</linearGradient>
		<path style="fill:url(#SVGID_00000126315671151441744950000005416690984903399102_);" d="M550.1,661.1V349.6
			c0-7.3,5.9-13.3,13.3-13.3H1360c7.3,0,13.3,5.9,13.3,13.3v311.5c0,7.3-5.9,13.3-13.3,13.3H563.4
			C556.1,674.3,550.1,668.4,550.1,661.1z"/>
		<path class="st6" d="M1350.2,663.8H573.1c-6.9,0-12.4-5.6-12.4-12.4v-292c0-6.9,5.6-12.4,12.4-12.4h777.1
			c6.9,0,12.4,5.6,12.4,12.4v292C1362.6,658.2,1357.1,663.8,1350.2,663.8z"/>
		
			<linearGradient id="SVGID_00000057854216583759291780000002337061860999655576_" gradientUnits="userSpaceOnUse" x1="560.7148" y1="505.3484" x2="1362.6484" y2="505.3484">
			<stop  offset="0" style="stop-color:#FFFFFF"/>
			<stop  offset="1" style="stop-color:#000000"/>
		</linearGradient>
		<path style="fill:url(#SVGID_00000057854216583759291780000002337061860999655576_);" d="M1350.2,663.8H573.1
			c-6.9,0-12.4-5.6-12.4-12.4v-292c0-6.9,5.6-12.4,12.4-12.4h777.1c6.9,0,12.4,5.6,12.4,12.4v292
			C1362.6,658.2,1357.1,663.8,1350.2,663.8z"/>
		<g>
			<path class="st8" d="M835.4,502.4c0,46.4-37.6,84.1-84.1,84.1c-46.4,0-84.1-37.7-84.1-84.1c0-46.4,37.7-84.1,84.1-84.1
				C797.8,418.3,835.4,456,835.4,502.4z"/>
			<path class="st8" d="M1267.3,502.4c0,46.4-37.7,84.1-84.1,84.1c-46.5,0-84.1-37.7-84.1-84.1c0-46.4,37.7-84.1,84.1-84.1
				C1229.6,418.3,1267.3,456,1267.3,502.4z"/>
		</g>
		
			<linearGradient id="SVGID_00000026842515948967323290000015588057232204637360_" gradientUnits="userSpaceOnUse" x1="961.6816" y1="404.2333" x2="961.6816" y2="558.6465">
			<stop  offset="0" style="stop-color:#2ADEFF"/>
			<stop  offset="5.677563e-02" style="stop-color:#29CFEF"/>
			<stop  offset="0.3122" style="stop-color:#2291AC"/>
			<stop  offset="0.5434" style="stop-color:#1D5F77"/>
			<stop  offset="0.7422" style="stop-color:#1A3C50"/>
			<stop  offset="0.9011" style="stop-color:#182639"/>
			<stop  offset="1" style="stop-color:#171E30"/>
		</linearGradient>
		<path style="opacity:0.5;fill:url(#SVGID_00000026842515948967323290000015588057232204637360_);" d="M713.5,543.4
			c88.1-23.1,177.9-33.4,269.7-30.8c120.2-0.7,237.9,15.6,353.3,48.7l5,2c6.8-16.7,10.5-34.9,10.5-54v-8c0-37.2-14.2-71.2-37.4-96.7
			c-45.7,20.8-93.3,35.1-142.9,42.8c-66.2,17.4-133.7,25.1-202.7,23.1c-121.2,0-244.5-20.7-355.4-70.9
			c-26.1,26.1-42.3,62-42.3,101.8v8c0,23.6,5.7,45.8,15.8,65.5C628.1,560.7,670.3,550.1,713.5,543.4z"/>
		<g class="st10">
			<path class="st11" d="M1043.2,357.5c-34.2,1.2-68.3,1.7-102.4,2.6l-102.4,1.5c-34.1,0.6-68.2,0.6-102.4,0.9
				c-17.3,0.1-33.9-0.3-49.9,3.3c-16.1,3.4-31.5,10-45.3,18.8c-27.8,17.6-49,45.3-58.6,76.8l-3.2,11.9l-1.9,12.2
				c-0.8,8.2-1.3,16.4-1.1,25c0,16.5,3.1,33,8.7,48.6c11.4,31.1,34.3,58.1,63.5,74.5c14.5,8.3,30.7,13.9,47.4,16.6
				c16.6,2.6,33.9,2.1,50.9,2.9c-17.1,0.4-34.1,1.8-51.3-0.1c-17.1-1.9-34-6.9-49.5-14.8c-30.8-16.1-55.7-43.5-68.7-76.2
				c-6.5-16.2-10.3-33.8-10.4-51.4c-0.4-17,0.6-35.3,5.9-52.1c10.1-33.9,32.8-63.8,62.5-82.9c14.9-9.5,31.5-16.5,48.8-20
				c8.7-1.6,17.4-2.9,26.3-3c8.8-0.4,17.2-0.1,25.8-0.1c34.1,0.3,68.2,0.3,102.4,0.9l102.4,1.5C974.9,355.8,1009,356.3,1043.2,357.5
				z"/>
		</g>
		<g class="st12">
			<path class="st13" d="M1341.5,490.7c4,38.5-9.5,79.6-38,108.2c-14.1,14.3-31.5,25.5-50.5,32.5c-4.7,2-9.7,3-14.6,4.5
				c-5,1.2-10,1.9-15.1,2.8c-5.1,0.5-10.2,0.8-15.3,1.1l-14.5,0.3c-38.6,1-77.3,1.2-115.9,1.8l-116,0.6L845.7,642
				c-38.6-0.6-77.3-0.8-115.9-1.8l-14.5-0.3c-5.1-0.4-10.2-0.7-15.3-1.1c-5.1-0.9-10.1-1.6-15.1-2.8c-4.9-1.5-9.9-2.5-14.6-4.5
				c-19.1-7.1-36.5-18.3-50.5-32.6c-28.5-28.5-42-69.7-37.9-108.2c0.8,19.3,4.2,38.4,12,55.7c7.6,17.3,19.1,32.8,33.1,44.9
				c13.9,12.3,30.3,21.6,47.9,26.9c4.2,1.6,8.8,2.1,13.2,3.3c4.5,0.9,9,1.3,13.5,1.9c4.5,0.2,9.1,0.3,13.6,0.4l14.5-0.3
				c38.6-1,77.3-1.2,115.9-1.8l115.9-0.6l116,0.6c38.6,0.6,77.3,0.8,115.9,1.8l14.5,0.3c4.6-0.1,9.1-0.2,13.7-0.4
				c4.5-0.7,9.1-1,13.5-1.9c4.4-1.2,9-1.7,13.3-3.3c17.5-5.4,33.9-14.7,47.8-26.9c14.1-12.1,25.6-27.6,33.2-44.9
				C1337.2,529.2,1340.7,510.1,1341.5,490.7z"/>
		</g>
		
			<linearGradient id="SVGID_00000165225742864098885810000000732876905162671010_" gradientUnits="userSpaceOnUse" x1="962.3858" y1="368.6536" x2="962.3858" y2="734.6168">
			<stop  offset="0" style="stop-color:#2ADEFF"/>
			<stop  offset="9.888639e-02" style="stop-color:#29D6F6"/>
			<stop  offset="0.2593" style="stop-color:#27BFDE"/>
			<stop  offset="0.4613" style="stop-color:#239BB7"/>
			<stop  offset="0.6969" style="stop-color:#1E6980"/>
			<stop  offset="0.9579" style="stop-color:#18293C"/>
			<stop  offset="1" style="stop-color:#171E30"/>
		</linearGradient>
		<path style="opacity:0.1;fill:url(#SVGID_00000165225742864098885810000000732876905162671010_);" d="M1257.5,564.5
			c-44.4,28.2-106.3,59-161,59c-42.4,0-71.9-17.1-83.7-57.4c-13.4-45.8,22.7-101.1,46.3-137.8c15.8-24.6,36.4-48.6,59.2-70.8H766.8
			c2,21.8-10.4,50.2-22.3,68.8c-31.6,49.1-99,103.9-160.2,103.9c-4.2,0-8.1-0.3-11.6-0.9c4.9,34.8,22.2,65.6,47.4,87.8
			c7.7-15.1,16.8-29.3,24.4-41.1c29.6-46,79.3-89.6,124.9-118.6c36.7-23.3,87.8-48.8,133.1-48.8c35,0,59.4,14.1,69.1,47.4
			c11.1,37.8-18.8,83.6-38.2,113.9c-19.2,29.8-46.8,58.6-76.4,83.1h351.3c79.3,0,143.8-64.5,143.8-143.8v-8c0-3.9-0.2-7.7-0.5-11.5
			C1322.2,518.6,1289.1,544.5,1257.5,564.5z"/>
		<g>
			<defs>
				<path id="SVGID_00000127757314508329424930000006253800751435211453_" d="M571.3,641.6V369.1c0-6.4,5.2-11.6,11.6-11.6h757.6
					c6.4,0,11.6,5.2,11.6,11.6v272.5c0,6.4-5.2,11.6-11.6,11.6H582.9C576.5,653.2,571.3,648,571.3,641.6z"/>
			</defs>
			<clipPath id="SVGID_00000025404835562588558610000017616604023472742553_">
				<use xlink:href="#SVGID_00000127757314508329424930000006253800751435211453_"  style="overflow:visible;"/>
			</clipPath>
			<path style="clip-path:url(#SVGID_00000025404835562588558610000017616604023472742553_);fill:#FFFFFF;" d="M820.6,334.2
				c10,42.7-39.7,90.9-110.9,107.5c-71.2,16.6-137.1-4.5-147-47.3c-10-42.7,39.6-90.8,110.9-107.5
				C744.8,270.3,810.6,291.5,820.6,334.2z"/>
		</g>
	</g>
	<g>
		
			<linearGradient id="SVGID_00000016756754312903831400000005946593994343594660_" gradientUnits="userSpaceOnUse" x1="1482.2358" y1="167.4757" x2="1664.0983" y2="736.0171">
			<stop  offset="0" style="stop-color:#F3F6FA"/>
			<stop  offset="0.1851" style="stop-color:#EAEFF6"/>
			<stop  offset="0.485" style="stop-color:#D2DDEA"/>
			<stop  offset="0.8604" style="stop-color:#ABC0D7"/>
			<stop  offset="1" style="stop-color:#9BB4CF"/>
		</linearGradient>
		<path style="fill:url(#SVGID_00000016756754312903831400000005946593994343594660_);" d="M1657.2,739c0,0-60.7,24.5-87.6,24.5
			c-26.9,0-48.7-100.3-48.7-224c0-123.7,21.8-224,48.7-224c13.9,0,86.3,24.8,86.3,24.8L1657.2,739z"/>
		
			<linearGradient id="SVGID_00000116223264592940610770000007994593938884425645_" gradientUnits="userSpaceOnUse" x1="1622.2765" y1="488.9706" x2="1526.9347" y2="729.9732">
			<stop  offset="0" style="stop-color:#F3F6FA"/>
			<stop  offset="0.1851" style="stop-color:#EAEFF6"/>
			<stop  offset="0.485" style="stop-color:#D2DDEA"/>
			<stop  offset="0.8604" style="stop-color:#ABC0D7"/>
			<stop  offset="1" style="stop-color:#9BB4CF"/>
		</linearGradient>
		<path style="opacity:0.5;fill:url(#SVGID_00000116223264592940610770000007994593938884425645_);" d="M1598.6,642.8
			c-18.6-33.2-24.1-75.6-28.5-113c-6.3-54.5-9.2-109.3-9.3-164.2c-0.1-19.6,10.1-34.9,23.7-47.3c-6.7-1.7-12-2.7-14.9-2.7
			c-26.9,0-48.7,100.3-48.7,224c0,123.7,21.8,224,48.7,224c26.9,0,87.6-24.5,87.6-24.5l-0.1-36.3
			C1633.3,687.7,1612.8,668.2,1598.6,642.8z"/>
		
			<linearGradient id="SVGID_00000104693685379520234090000010288474915468616115_" gradientUnits="userSpaceOnUse" x1="1608.5406" y1="483.5347" x2="1513.1984" y2="724.5386">
			<stop  offset="0" style="stop-color:#F3F6FA"/>
			<stop  offset="0.1851" style="stop-color:#EAEFF6"/>
			<stop  offset="0.485" style="stop-color:#D2DDEA"/>
			<stop  offset="0.8604" style="stop-color:#ABC0D7"/>
			<stop  offset="1" style="stop-color:#9BB4CF"/>
		</linearGradient>
		<path style="opacity:0.5;fill:url(#SVGID_00000104693685379520234090000010288474915468616115_);" d="M1583.3,709.6
			c-26.3-37.8-38.2-86.6-44.2-131.5c-9.9-73.1,0.2-151.4,22.7-222.6c0.9-4.9,2.5-9.6,4.6-13.9c2.5-7.1,5-14.2,7.7-21.2
			c0.6-1.4,1.2-2.7,1.9-4c-2.7-0.5-4.9-0.8-6.3-0.8c-26.9,0-48.7,100.3-48.7,224c0,123.7,21.8,224,48.7,224
			c12.7,0,32.8-5.4,50.6-11.2C1606.6,739.6,1594.2,725.4,1583.3,709.6z"/>
		
			<linearGradient id="SVGID_00000097489553665497181720000010288256315298708115_" gradientUnits="userSpaceOnUse" x1="1366.6078" y1="462.2502" x2="1696.7992" y2="550.5369">
			<stop  offset="0" style="stop-color:#F3F6FA"/>
			<stop  offset="0.1851" style="stop-color:#EAEFF6"/>
			<stop  offset="0.485" style="stop-color:#D2DDEA"/>
			<stop  offset="0.8604" style="stop-color:#ABC0D7"/>
			<stop  offset="1" style="stop-color:#9BB4CF"/>
		</linearGradient>
		<path style="fill:url(#SVGID_00000097489553665497181720000010288256315298708115_);" d="M1699.1,539.5
			c0,110.3-19.5,199.7-43.4,199.7c-23.9,0-43.4-89.4-43.4-199.7c0-110.3,19.5-199.6,43.4-199.6
			C1679.6,339.9,1699.1,429.3,1699.1,539.5z"/>
		
			<linearGradient id="SVGID_00000032640567126377087260000000786301372358066340_" gradientUnits="userSpaceOnUse" x1="1366.6078" y1="462.2502" x2="1696.7992" y2="550.5369">
			<stop  offset="0" style="stop-color:#F3F6FA"/>
			<stop  offset="0.1851" style="stop-color:#EAEFF6"/>
			<stop  offset="0.485" style="stop-color:#D2DDEA"/>
			<stop  offset="0.8604" style="stop-color:#ABC0D7"/>
			<stop  offset="1" style="stop-color:#9BB4CF"/>
		</linearGradient>
		<path style="opacity:0.5;fill:url(#SVGID_00000032640567126377087260000000786301372358066340_);" d="M1699.1,539.5
			c0,110.3-19.5,199.7-43.4,199.7c-23.9,0-43.4-89.4-43.4-199.7c0-110.3,19.5-199.6,43.4-199.6
			C1679.6,339.9,1699.1,429.3,1699.1,539.5z"/>
		
			<linearGradient id="SVGID_00000036971568201118789510000004648612330821616317_" gradientUnits="userSpaceOnUse" x1="1654.192" y1="539.1185" x2="1728.3427" y2="562.0699">
			<stop  offset="0" style="stop-color:#F3F6FA"/>
			<stop  offset="0.1851" style="stop-color:#EAEFF6"/>
			<stop  offset="0.485" style="stop-color:#D2DDEA"/>
			<stop  offset="0.8604" style="stop-color:#ABC0D7"/>
			<stop  offset="1" style="stop-color:#9BB4CF"/>
		</linearGradient>
		<path style="opacity:0.5;fill:url(#SVGID_00000036971568201118789510000004648612330821616317_);" d="M1656.6,340
			c5.7,9,9.3,19,9.5,30c0.7,42.4,9.3,84.2,8.9,126.6c-0.3,33.3-7.5,67.3-13.3,100.1c-6.6,36.9-15.7,73.4-31,106.5
			c7,22.6,15.6,36,24.8,36c24,0,43.4-89.4,43.4-199.7C1699.1,430.8,1680.1,342.4,1656.6,340z"/>
		<ellipse class="st22" cx="1666.2" cy="539.5" rx="31.7" ry="176.1"/>
		<g class="st10">
			<path class="st11" d="M1655.6,739.2c-4.5,0-8.5-2.9-11.3-6.2c-2.9-3.4-5.2-7.3-7.2-11.2c-4-7.9-6.9-16.3-9.5-24.8
				c-4.9-17-8.2-34.4-10.8-51.9c-5.1-34.9-6.9-70.3-7.2-105.6c0.3-35.3,2-70.6,7.2-105.6c2.6-17.5,5.9-34.9,10.8-51.9
				c2.6-8.4,5.5-16.9,9.5-24.8c2-4,4.3-7.8,7.2-11.2c2.8-3.3,6.8-6.2,11.3-6.2c-4.5,0.3-8.1,3.4-10.7,6.8c-2.7,3.4-4.7,7.3-6.5,11.3
				c-3.6,8-6.1,16.4-8.3,24.9c-4.4,17-7.2,34.3-9.3,51.7c-4.2,34.8-6,69.9-5.9,105c-0.1,35.1,1.7,70.2,5.9,105
				c2.1,17.4,4.9,34.8,9.3,51.7c2.2,8.5,4.7,16.9,8.3,24.9c1.8,4,3.8,7.8,6.5,11.3C1647.5,735.8,1651.2,738.9,1655.6,739.2z"/>
		</g>
	</g>
	<g>
		
			<linearGradient id="SVGID_00000092450548721419003400000002365775562466112912_" gradientUnits="userSpaceOnUse" x1="245.3801" y1="354.2748" x2="512.8574" y2="943.5204">
			<stop  offset="0" style="stop-color:#F3F6FA"/>
			<stop  offset="0.1851" style="stop-color:#EAEFF6"/>
			<stop  offset="0.485" style="stop-color:#D2DDEA"/>
			<stop  offset="0.8604" style="stop-color:#ABC0D7"/>
			<stop  offset="1" style="stop-color:#9BB4CF"/>
		</linearGradient>
		<path style="fill:url(#SVGID_00000092450548721419003400000002365775562466112912_);" d="M274.6,739c0,0,60.7,24.5,87.5,24.5
			c26.9,0,48.7-100.3,48.7-224c0-123.7-21.8-224-48.7-224c-13.9,0-86.2,24.8-86.2,24.8L274.6,739z"/>
		
			<linearGradient id="SVGID_00000070111373059270169670000004678990004097238696_" gradientUnits="userSpaceOnUse" x1="487.2083" y1="488.9605" x2="391.868" y2="729.9592" gradientTransform="matrix(-1 0 0 1 796.6777 0)">
			<stop  offset="0" style="stop-color:#F3F6FA"/>
			<stop  offset="0.1851" style="stop-color:#EAEFF6"/>
			<stop  offset="0.485" style="stop-color:#D2DDEA"/>
			<stop  offset="0.8604" style="stop-color:#ABC0D7"/>
			<stop  offset="1" style="stop-color:#9BB4CF"/>
		</linearGradient>
		<path style="opacity:0.5;fill:url(#SVGID_00000070111373059270169670000004678990004097238696_);" d="M333.2,642.8
			c18.6-33.2,24-75.6,28.4-113c6.3-54.5,9.2-109.3,9.4-164.2c0.1-19.6-10.1-34.9-23.7-47.3c6.7-1.7,12-2.7,14.9-2.7
			c26.9,0,48.7,100.3,48.7,224c0,123.7-21.8,224-48.7,224c-26.9,0-87.5-24.5-87.5-24.5l0.1-36.3
			C298.5,687.7,318.9,668.2,333.2,642.8z"/>
		
			<linearGradient id="SVGID_00000036958147770541436990000009545208651694180755_" gradientUnits="userSpaceOnUse" x1="231.6158" y1="462.2656" x2="561.7362" y2="550.5333" gradientTransform="matrix(-1 0 0 1 796.6777 0)">
			<stop  offset="0" style="stop-color:#F3F6FA"/>
			<stop  offset="0.1851" style="stop-color:#EAEFF6"/>
			<stop  offset="0.485" style="stop-color:#D2DDEA"/>
			<stop  offset="0.8604" style="stop-color:#ABC0D7"/>
			<stop  offset="1" style="stop-color:#9BB4CF"/>
		</linearGradient>
		<path style="fill:url(#SVGID_00000036958147770541436990000009545208651694180755_);" d="M232.7,539.5
			c0,110.3,19.4,199.7,43.4,199.7c23.9,0,43.3-89.4,43.3-199.7c0-110.3-19.4-199.6-43.3-199.6C252.1,339.9,232.7,429.3,232.7,539.5z
			"/>
		
			<linearGradient id="SVGID_00000182486336171963172970000010694179964827776640_" gradientUnits="userSpaceOnUse" x1="231.6158" y1="462.2656" x2="561.7362" y2="550.5333" gradientTransform="matrix(-1 0 0 1 796.6777 0)">
			<stop  offset="0" style="stop-color:#F3F6FA"/>
			<stop  offset="0.1851" style="stop-color:#EAEFF6"/>
			<stop  offset="0.485" style="stop-color:#D2DDEA"/>
			<stop  offset="0.8604" style="stop-color:#ABC0D7"/>
			<stop  offset="1" style="stop-color:#9BB4CF"/>
		</linearGradient>
		<path style="opacity:0.5;fill:url(#SVGID_00000182486336171963172970000010694179964827776640_);" d="M232.7,539.5
			c0,110.3,19.4,199.7,43.4,199.7c23.9,0,43.3-89.4,43.3-199.7c0-110.3-19.4-199.6-43.3-199.6C252.1,339.9,232.7,429.3,232.7,539.5z
			"/>
		
			<linearGradient id="SVGID_00000082363951709594759950000010416022411860097422_" gradientUnits="userSpaceOnUse" x1="519.136" y1="539.1152" x2="593.278" y2="562.0638" gradientTransform="matrix(-1 0 0 1 796.6777 0)">
			<stop  offset="0" style="stop-color:#F3F6FA"/>
			<stop  offset="0.1851" style="stop-color:#EAEFF6"/>
			<stop  offset="0.485" style="stop-color:#D2DDEA"/>
			<stop  offset="0.8604" style="stop-color:#ABC0D7"/>
			<stop  offset="1" style="stop-color:#9BB4CF"/>
		</linearGradient>
		<path style="opacity:0.5;fill:url(#SVGID_00000082363951709594759950000010416022411860097422_);" d="M275.1,340
			c-5.7,9-9.3,19-9.5,30c-0.6,42.4-9.3,84.2-8.9,126.6c0.3,33.3,7.5,67.3,13.3,100.1c6.6,36.9,15.7,73.4,31,106.5
			c-7,22.6-15.6,36-24.8,36c-24,0-43.4-89.4-43.4-199.7C232.7,430.8,251.6,342.4,275.1,340z"/>
		<path class="st22" d="M233.8,539.5c0,97.2,14.2,176.1,31.7,176.1c17.5,0,31.7-78.8,31.7-176.1c0-97.2-14.2-176.1-31.7-176.1
			C248,363.4,233.8,442.3,233.8,539.5z"/>
		<g class="st10">
			<path class="st11" d="M276.1,739.2c4.5-0.3,8.1-3.4,10.7-6.8c2.7-3.4,4.8-7.3,6.5-11.3c3.6-8,6.1-16.4,8.3-24.9
				c4.4-16.9,7.2-34.3,9.3-51.7c4.2-34.8,6.1-69.9,5.9-105c0.1-35.1-1.7-70.2-5.9-105c-2.1-17.4-5-34.8-9.3-51.7
				c-2.2-8.5-4.7-16.9-8.3-24.9c-1.8-4-3.8-7.9-6.5-11.3c-2.6-3.4-6.2-6.5-10.7-6.8c4.5,0,8.5,2.9,11.3,6.2
				c2.9,3.4,5.2,7.3,7.2,11.2c4,7.9,6.9,16.3,9.5,24.8c4.9,17,8.2,34.4,10.9,51.8c5.1,35,6.9,70.3,7.2,105.6
				c-0.3,35.3-2.1,70.6-7.2,105.6c-2.6,17.5-6,34.9-10.9,51.9c-2.6,8.5-5.5,16.9-9.5,24.8c-2,3.9-4.2,7.8-7.2,11.2
				C284.6,736.2,280.6,739.1,276.1,739.2z"/>
		</g>
	</g>
	<defs>
		<filter id="Adobe_OpacityMaskFilter" filterUnits="userSpaceOnUse" x="1485.6" y="199.1" width="369.4" height="677.9">
			<feColorMatrix  type="matrix" values="1 0 0 0 0  0 1 0 0 0  0 0 1 0 0  0 0 0 1 0"/>
		</filter>
	</defs>
	
		<mask maskUnits="userSpaceOnUse" x="1485.6" y="199.1" width="369.4" height="677.9" id="SVGID_00000086694264974980120500000006180498213223268031_">
		<g class="st28">
			
				<radialGradient id="SVGID_00000060719515756456853950000012161504082924894886_" cx="33025.3828" cy="-723.6313" r="1127.334" gradientTransform="matrix(0.1638 -1.000000e-03 1.800000e-03 0.3007 -3737.9304 788.7269)" gradientUnits="userSpaceOnUse">
				<stop  offset="0.147" style="stop-color:#FFFFFF"/>
				<stop  offset="0.2002" style="stop-color:#DADADA"/>
				<stop  offset="0.2833" style="stop-color:#A8A8A8"/>
				<stop  offset="0.3705" style="stop-color:#7B7B7B"/>
				<stop  offset="0.4601" style="stop-color:#555555"/>
				<stop  offset="0.5525" style="stop-color:#363636"/>
				<stop  offset="0.6488" style="stop-color:#1E1E1E"/>
				<stop  offset="0.7507" style="stop-color:#0D0D0D"/>
				<stop  offset="0.8619" style="stop-color:#030303"/>
				<stop  offset="1" style="stop-color:#000000"/>
			</radialGradient>
			<path style="fill:url(#SVGID_00000060719515756456853950000012161504082924894886_);" d="M1855,537
				c1.1,187.2-80.7,339.5-182.6,340.1c-102,0.6-185.6-150.7-186.7-337.9c-1.1-187.2,80.6-339.5,182.6-340.1
				C1770.3,198.5,1853.8,349.8,1855,537z"/>
		</g>
	</mask>
	<path style="opacity:0.5;mask:url(#SVGID_00000086694264974980120500000006180498213223268031_);fill:#00A99D;" d="M1855,537
		c1.1,187.2-80.7,339.5-182.6,340.1c-102,0.6-185.6-150.7-186.7-337.9c-1.1-187.2,80.6-339.5,182.6-340.1
		C1770.3,198.5,1853.8,349.8,1855,537z"/>
	<defs>
		
			<filter id="Adobe_OpacityMaskFilter_00000024723855645965087880000016883375684810187698_" filterUnits="userSpaceOnUse" x="65" y="199.1" width="369.3" height="677.9">
			<feColorMatrix  type="matrix" values="1 0 0 0 0  0 1 0 0 0  0 0 1 0 0  0 0 0 1 0"/>
		</filter>
	</defs>
	
		<mask maskUnits="userSpaceOnUse" x="65" y="199.1" width="369.3" height="677.9" id="SVGID_00000170975173222955640800000013473446281087498427_">
		<g style="filter:url(#Adobe_OpacityMaskFilter_00000024723855645965087880000016883375684810187698_);">
			
				<radialGradient id="SVGID_00000100367393763958327090000017737162139217729927_" cx="24352.5566" cy="-752.4736" r="1127.2961" gradientTransform="matrix(0.1638 -1.000000e-03 1.800000e-03 0.3007 -3737.9304 788.7269)" gradientUnits="userSpaceOnUse">
				<stop  offset="0.147" style="stop-color:#FFFFFF"/>
				<stop  offset="0.2002" style="stop-color:#DADADA"/>
				<stop  offset="0.2833" style="stop-color:#A8A8A8"/>
				<stop  offset="0.3705" style="stop-color:#7B7B7B"/>
				<stop  offset="0.4601" style="stop-color:#555555"/>
				<stop  offset="0.5525" style="stop-color:#363636"/>
				<stop  offset="0.6488" style="stop-color:#1E1E1E"/>
				<stop  offset="0.7507" style="stop-color:#0D0D0D"/>
				<stop  offset="0.8619" style="stop-color:#030303"/>
				<stop  offset="1" style="stop-color:#000000"/>
			</radialGradient>
			<path style="fill:url(#SVGID_00000100367393763958327090000017737162139217729927_);" d="M434.3,537
				c1.1,187.2-80.7,339.5-182.6,340.1C149.7,877.7,66.1,726.4,65,539.2C63.9,352,145.7,199.8,247.6,199.1
				C349.6,198.5,433.2,349.8,434.3,537z"/>
		</g>
	</mask>
	<path style="opacity:0.5;mask:url(#SVGID_00000170975173222955640800000013473446281087498427_);fill:#00A99D;" d="M434.3,537
		c1.1,187.2-80.7,339.5-182.6,340.1C149.7,877.7,66.1,726.4,65,539.2C63.9,352,145.7,199.8,247.6,199.1
		C349.6,198.5,433.2,349.8,434.3,537z"/>
	<defs>
		
			<filter id="Adobe_OpacityMaskFilter_00000042727963145584394070000005172043302441350562_" filterUnits="userSpaceOnUse" x="900.3" y="217.6" width="583.6" height="632.3">
			<feColorMatrix  type="matrix" values="1 0 0 0 0  0 1 0 0 0  0 0 1 0 0  0 0 0 1 0"/>
		</filter>
	</defs>
	
		<mask maskUnits="userSpaceOnUse" x="900.3" y="217.6" width="583.6" height="632.3" id="SVGID_00000171704220202910598110000008044061888192662424_">
		<g style="filter:url(#Adobe_OpacityMaskFilter_00000042727963145584394070000005172043302441350562_);">
			
				<radialGradient id="SVGID_00000021078387458402864810000006945667368270441090_" cx="28927.2852" cy="-861.3691" r="1127.3296" gradientTransform="matrix(0.2588 -1.500000e-03 1.500000e-03 0.2447 -6293.0347 747.5768)" gradientUnits="userSpaceOnUse">
				<stop  offset="0.147" style="stop-color:#FFFFFF"/>
				<stop  offset="0.2002" style="stop-color:#DADADA"/>
				<stop  offset="0.2833" style="stop-color:#A8A8A8"/>
				<stop  offset="0.3705" style="stop-color:#7B7B7B"/>
				<stop  offset="0.4601" style="stop-color:#555555"/>
				<stop  offset="0.5525" style="stop-color:#363636"/>
				<stop  offset="0.6488" style="stop-color:#1E1E1E"/>
				<stop  offset="0.7507" style="stop-color:#0D0D0D"/>
				<stop  offset="0.8619" style="stop-color:#030303"/>
				<stop  offset="1" style="stop-color:#000000"/>
			</radialGradient>
			<path style="fill:url(#SVGID_00000021078387458402864810000006945667368270441090_);" d="M1483.8,491.7
				c0.9,152.3-129,276.6-290.1,277.6c-161.1,1-292.5-121.7-293.4-274.1c-0.9-152.3,128.9-276.6,290.2-277.6
				C1351.6,216.6,1483,339.3,1483.8,491.7z"/>
		</g>
	</mask>
	<path style="opacity:0.5;mask:url(#SVGID_00000171704220202910598110000008044061888192662424_);fill:#00A99D;" d="M1483.8,491.7
		c0.9,152.3-129,357.3-290.1,358.2c-161.1,1-292.5-202.4-293.4-354.7c-0.9-152.3,128.9-276.6,290.2-277.6
		C1351.6,216.6,1483,339.3,1483.8,491.7z"/>
	<defs>
		
			<filter id="Adobe_OpacityMaskFilter_00000043442306669655949680000008960724393212957095_" filterUnits="userSpaceOnUse" x="455.3" y="217.6" width="583.6" height="632.3">
			<feColorMatrix  type="matrix" values="1 0 0 0 0  0 1 0 0 0  0 0 1 0 0  0 0 0 1 0"/>
		</filter>
	</defs>
	
		<mask maskUnits="userSpaceOnUse" x="455.3" y="217.6" width="583.6" height="632.3" id="SVGID_00000114058593014454311350000010967016325076325514_">
		<g style="filter:url(#Adobe_OpacityMaskFilter_00000043442306669655949680000008960724393212957095_);">
			
				<radialGradient id="SVGID_00000072982332165249229730000005238239132447032500_" cx="27208.1465" cy="-871.9076" r="1127.3765" gradientTransform="matrix(0.2588 -1.500000e-03 1.500000e-03 0.2447 -6293.0347 747.5768)" gradientUnits="userSpaceOnUse">
				<stop  offset="0.147" style="stop-color:#FFFFFF"/>
				<stop  offset="0.2002" style="stop-color:#DADADA"/>
				<stop  offset="0.2833" style="stop-color:#A8A8A8"/>
				<stop  offset="0.3705" style="stop-color:#7B7B7B"/>
				<stop  offset="0.4601" style="stop-color:#555555"/>
				<stop  offset="0.5525" style="stop-color:#363636"/>
				<stop  offset="0.6488" style="stop-color:#1E1E1E"/>
				<stop  offset="0.7507" style="stop-color:#0D0D0D"/>
				<stop  offset="0.8619" style="stop-color:#030303"/>
				<stop  offset="1" style="stop-color:#000000"/>
			</radialGradient>
			<path style="fill:url(#SVGID_00000072982332165249229730000005238239132447032500_);" d="M1038.9,491.7
				c0.9,152.4-129,276.6-290.2,277.6c-161.1,1-292.5-121.7-293.5-274.1c-0.9-152.3,129-276.6,290.2-277.6
				C906.7,216.6,1038,339.3,1038.9,491.7z"/>
		</g>
	</mask>
	<path style="opacity:0.5;mask:url(#SVGID_00000114058593014454311350000010967016325076325514_);fill:#00A99D;" d="M1038.9,491.7
		c0.9,152.4-129,357.3-290.2,358.3c-161.1,1-292.5-202.4-293.5-354.7c-0.9-152.3,129-276.6,290.2-277.6
		C906.7,216.6,1038,339.3,1038.9,491.7z"/>
</g>
</svg>
