<?xml version="1.0" encoding="UTF-8"?><svg id="a" xmlns="http://www.w3.org/2000/svg" xmlns:xlink="http://www.w3.org/1999/xlink" viewBox="0 0 1654.78 600"><defs><style>.c{fill:none;}.d{fill:#fff;}.e{fill:#ff5e5b;}.f{fill:#444b57;}.g{fill:#29abe0;}.h{clip-path:url(#b);}</style><clipPath id="b"><rect class="c" width="1654.78" height="600"/></clipPath></defs><g class="h"><path class="g" d="M600,300C600,134.31,465.69,0,300,0S0,134.31,0,300s134.31,300,300,300,300-134.31,300-300"/><path class="d" d="M455.7,329.81c-17.61,2.2-31.91,.55-31.91,.55v-107.8h21.66c14.32,0,28.13,5.96,37.47,16.81,6.58,7.64,11.84,18.39,11.84,33.24,0,36.3-18.7,50.6-39.06,57.2m92.73-75.68c-6.32-33.37-24.28-54.16-42.7-67.02-19.04-13.29-41.85-20.13-65.07-20.13H111.07c-11.46,0-15.86,11.2-15.9,16.8,0,.73,.02,3.66,.02,3.66,0,0-.54,145.81,.48,223.69,3.11,45.98,49.18,45.96,49.18,45.96,0,0,150.4-.44,222.54-.89,3.38-.02,6.76-.39,10.04-1.21,41.07-10.27,45.32-48.43,44.88-69.7,82.55,4.59,140.79-53.66,126.12-131.18"/><path class="e" d="M256.61,396.63c3.58,1.81,5.88-.44,5.88-.44,0,0,52.46-47.88,76.09-75.45,21.02-24.67,22.39-66.23-13.71-81.77-36.1-15.53-65.8,18.27-65.8,18.27-25.75-28.33-64.73-26.89-82.76-7.72-18.03,19.17-11.73,52.07,1.72,70.38,12.62,17.19,68.12,66.65,76.53,75.01,0,0,.61,.64,2.06,1.71"/><path class="f" d="M945.68,421.3c1.13,3.25,1.69,6.29,1.69,9.11,0,7.63-2.9,13.98-8.68,19.07-5.79,5.08-12.5,7.63-20.13,7.63-3.67,0-7.2-.85-10.59-2.54-3.39-1.7-6.22-4.09-8.47-7.2l-91.94-121.17-40.25,38.55v66.52c0,7.63-2.48,13.84-7.41,18.64-4.95,4.81-11.37,7.2-19.28,7.2s-13.91-2.47-18.85-7.41c-4.95-4.94-7.41-11.08-7.41-18.43V186.37c0-7.34,2.54-13.48,7.63-18.43,5.08-4.94,11.58-7.41,19.49-7.41s13.84,2.4,18.64,7.2c4.8,4.81,7.2,11.02,7.2,18.64v115.24l135.58-133.46c6.49-6.49,13.41-9.74,20.76-9.74,6.49,0,12,2.69,16.52,8.05,4.52,5.37,6.78,11.02,6.78,16.95s-2.54,11.44-7.63,16.52l-92.36,88.13,94.48,124.99c1.69,2.26,3.1,5.02,4.24,8.26"/><path class="f" d="M1190.14,404.78c-10.17,17.94-24.08,31.85-41.73,41.73-17.66,9.89-37.07,14.83-58.26,14.83s-40.96-4.94-58.47-14.83c-17.52-9.88-31.35-23.79-41.52-41.73-10.17-17.93-15.25-38.2-15.25-60.8s5.08-42.86,15.25-60.8c10.17-17.93,24-31.92,41.52-41.94,17.51-10.02,37-15.04,58.47-15.04s40.6,5.02,58.26,15.04c17.65,10.03,31.56,24.01,41.73,41.94,10.17,17.94,15.25,38.21,15.25,60.8s-5.08,42.86-15.25,60.8m-44.27-97.87c-5.79-10.87-13.56-19.28-23.3-25.21-9.74-5.93-20.55-8.9-32.41-8.9s-22.67,2.96-32.41,8.9c-9.74,5.93-17.52,14.34-23.3,25.21-5.79,10.88-8.69,23.24-8.69,37.07s2.89,26.13,8.69,36.86c5.79,10.74,13.56,19.07,23.3,25,9.74,5.93,20.55,8.9,32.41,8.9s22.67-2.97,32.41-8.9c9.74-5.93,17.51-14.26,23.3-25,5.78-10.73,8.69-23.02,8.69-36.86s-2.9-26.2-8.69-37.07"/><path class="f" d="M1248.82,345.25c-4.95-4.8-7.41-10.87-7.41-18.22s2.47-12.99,7.41-17.8c4.94-4.8,11.08-7.2,18.43-7.2h73.72c7.34,0,13.49,2.48,18.43,7.41,4.94,4.95,7.42,11.09,7.42,18.43s-2.48,12.92-7.42,17.58c-4.94,4.66-11.09,6.99-18.43,6.99h-73.72c-7.35,0-13.49-2.4-18.43-7.2"/><path class="f" d="M1504.09,196.75c-3.96,5.51-5.93,11.51-5.93,18.01v19.91h38.56c6.78,0,12.43,2.19,16.95,6.57,4.51,4.38,6.78,9.96,6.78,16.73s-2.26,12.36-6.78,16.74c-4.52,4.38-10.17,6.57-16.95,6.57h-38.56v149.98c0,7.35-2.4,13.49-7.2,18.43-4.81,4.94-10.88,7.41-18.22,7.41s-13.42-2.47-18.22-7.41c-4.81-4.94-7.2-11.08-7.2-18.43v-149.98h-22.88c-6.78,0-12.43-2.18-16.95-6.57-4.52-4.38-6.78-9.96-6.78-16.74s2.26-12.35,6.78-16.73c4.51-4.38,10.17-6.57,16.95-6.57h22.88v-19.49c0-21.18,7.27-38.41,21.82-51.69,14.54-13.27,35.52-19.91,62.92-19.91,10.45,0,19.56,2.12,27.33,6.36,7.77,4.24,11.65,10.74,11.65,19.49,0,6.78-1.98,12.29-5.93,16.52-3.96,4.24-8.76,6.35-14.41,6.35-1.42,0-2.9-.14-4.45-.42-1.56-.28-3.18-.56-4.87-.85-6.78-1.69-12.43-2.54-16.95-2.54-9.6,0-16.38,2.75-20.34,8.26m89.82,1.48c-3.96-3.1-5.93-8.61-5.93-16.52v-8.05c0-7.9,2.12-13.41,6.35-16.52,4.24-3.1,11.02-4.66,20.34-4.66,9.88,0,16.8,1.56,20.76,4.66,3.95,3.11,5.93,8.62,5.93,16.52v8.05c0,8.2-2.05,13.77-6.14,16.74-4.1,2.97-11.09,4.45-20.97,4.45s-16.38-1.55-20.34-4.66m38.98,251.46c-4.81,4.94-10.88,7.41-18.22,7.41s-13.42-2.47-18.22-7.41c-4.81-4.94-7.2-11.08-7.2-18.43v-174.98c0-7.34,2.4-13.48,7.2-18.43,4.8-4.94,10.87-7.42,18.22-7.42s13.41,2.48,18.22,7.42c4.8,4.95,7.2,11.09,7.2,18.43v174.98c0,7.35-2.4,13.49-7.2,18.43"/></g></svg>