<svg height="603.79273" viewBox="0 0 732 603.79273" width="732" xmlns="http://www.w3.org/2000/svg"><path d="m58.94488 354.47439h144.25984v134.95276h-144.25984z" fill="#3f3d56"/><path d="m496.14961 684.454h-262.14961v-228.79918h262.14961zm-260.59843-1.55118h259.04725v-225.69682h-259.04725z" fill="#3f3d56" transform="translate(-234 -148.10364)"/><path d="m855.5748 368.954a110.4252 110.4252 0 1 1 110.4252-110.42517 110.55 110.55 0 0 1 -110.4252 110.42517zm0-219.21447a108.78927 108.78927 0 1 0 108.78927 108.7893 108.912 108.912 0 0 0 -108.78927-108.78927z" fill="#3f3d56" transform="translate(-234 -148.10364)"/><circle cx="618.30295" cy="110.42517" fill="#3f3d56" r="53.16769"/><path d="m916.00765 426.4219h36.46863v36.46866h-36.46863z" fill="#ff6584" transform="matrix(.8660254 -.5 .5 .8660254 -331.16342 378.58999)"/><path d="m434.00761 249.42191h36.46864v36.46866h-36.46864z" fill="#3f3d56" transform="matrix(.8660254 -.5 .5 .8660254 -307.23919 113.87647)"/><path d="m872.00756 625.42192h36.46863v36.46863h-36.46863z" fill="#e5e5e5" transform="matrix(.8660254 -.5 .5 .8660254 -436.55832 383.2509)"/><path d="m117.88976 408.76572h26.37008v26.37008h-26.37008z" fill="#2ca8ff"/><circle cx="618.30295" cy="110.42517" fill="#2ca8ff" r="13.08743"/><path d="m754.12773 450.54208h78.22845v78.22842h-78.22845z" fill="#2ca8ff" transform="matrix(.8660254 -.5 .5 .8660254 -372.55387 314.11885)"/><path d="m179 601.79273h420v2h-420z" fill="#cbcbcb"/><path d="m572.38944 480.14641a13.55407 13.55407 0 0 1 4.3807-20.3166l-2.83038-30.84375 18.32415-6.29156 3.38529 43.6135a13.62751 13.62751 0 0 1 -23.25976 13.83842z" fill="#ffb8b8" transform="translate(-234 -148.10364)"/><path d="m592.0611 303.12114s12.57481-26.38982 23.74853-17.10686-15.319 87.31213-15.319 87.31213l-4.02937 75.74867-21.23617-2.12261-6.0041-73.79994z" fill="#ccc" transform="translate(-234 -148.10364)"/><path d="m189.39 545.442 15.764 12.761 56.721-54.731-23.266-18.833z" fill="#ffb8b8"/><path d="m423.53549 685.1442 31.04487 25.13019.00125.001a25.45513 25.45513 0 0 1 3.76811 35.799l-.52045.64289-50.82927-41.14554z" fill="#2f2e41" transform="translate(-234 -148.10364)"/><path d="m408.471 580.865 20.282-.001 9.648-78.228-29.933.001z" fill="#ffb8b8"/><g transform="translate(-234 -148.10364)"><path d="m637.298 722.34686 39.94134-.00162h.00162a25.4551 25.4551 0 0 1 25.45374 25.45335v.82714l-65.39549.00243z" fill="#2f2e41"/><path d="m678.0594 362.22742s38.04875 46.32022 29.77728 92.64044-14.88864 81.0604-14.88864 81.0604l-13.23435 104.2205s4.96288 28.38351-1.65429 35.69757c0 0 9.92576 17.23983-8.27147 23.857s-28.0158-2.28605-28.0158-2.28605-13.34154-19.21976-5.07008-24.18265l3.48444-204.53023-132.51935 173.09865s-2.43585 21.0559-19.41515 21.28086l-20.28789 15.11361-23.1601-13.23435 11.58-14.88865s-6.61718-16.54293 8.27147-19.85152l86.02327-112.492 21.50582-57.90028s11.58006-44.66594 43.01164-62.86317v-19.363z" fill="#2f2e41"/><path d="m612.7148 281.99417a31.58927 31.58927 0 0 1 41.63739-5.879l1.37423.91616a121.9371 121.9371 0 0 1 28.54478 58.77067l6.1954 33.86975-77.7518 16.84253-18.22756-62.86354a35.51549 35.51549 0 0 1 18.22753-41.65654z" fill="#ccc"/><path d="m740.45624 487.34748a15.51228 15.51228 0 0 1 -8.84913-22.07886l-22.42911-27.45014 13.357-17.69865 31.12978 39.20977a15.59633 15.59633 0 0 1 -13.20857 28.01788z" fill="#ffb8b8"/><path d="m645.80067 306.80858s-4.96288-33.08588 11.58006-31.43158 41.35734 92.64044 41.35734 92.64044l44.66593 74.44322-21.50582 11.58006-52.9374-66.17172z" fill="#ccc"/><path d="m676.09457 258.43842h-78.77636a6.11886 6.11886 0 0 1 -6.112-6.112v-33.95529a45.50014 45.50014 0 1 1 91.00028 0v33.95533a6.11886 6.11886 0 0 1 -6.11192 6.11196z" fill="#2f2e41"/></g><circle cx="646.0562" cy="224.28886" fill="#ffb8b8" r="33.3591" transform="matrix(.47965972 -.87745459 .87745459 .47965972 -94.63419 535.48792)"/><path d="m692.97077 221.76666h-41.98187l-.43061-6.91574-2.15245 6.91574h-6.46431l-.85312-13.70681-4.26619 13.70681h-12.50812v-.6791c0-19.84663 14.07189-35.99265 31.3687-35.99265h5.919c17.29682 0 31.369 16.146 31.369 35.99265z" fill="#2f2e41" transform="translate(-234 -148.10364)"/><path d="m652.72634 264.77686a10.10052 10.10052 0 0 1 -1.53237-.1181l-49.96949-7.69655v-52.0466a20.047 20.047 0 0 1 20.047-20.047h34.95978l-1.36185 1.3861c-18.94755 19.29058-4.67277 50.57051 5.52257 67.499a6.67141 6.67141 0 0 1 -.67788 7.90652 9.07762 9.07762 0 0 1 -6.98776 3.11663z" fill="#2f2e41" transform="translate(-234 -148.10364)"/></svg>