<svg width="100" height="32" id="Layer_3" data-name="Layer 3" xmlns="http://www.w3.org/2000/svg" viewBox="0 0 222.35 70.98"><defs><style>.cls-1{fill:#fff;}</style></defs><title>logo-tim-white</title><path class="cls-1" d="M712.56,790.47H648.82a3.62,3.62,0,0,0-3.62,3.62v30.35a3.62,3.62,0,0,0,3.62,3.62H661.9v29.77a3.62,3.62,0,0,0,3.62,3.62h30.35a3.61,3.61,0,0,0,3.61-3.62V828.06h13.08a3.62,3.62,0,0,0,3.62-3.62V794.09A3.62,3.62,0,0,0,712.56,790.47Zm-63.16,4.2h29.19v29.19H649.4Zm45.89,62.58h-29.2V828.06h29.2ZM712,823.86H682.79V794.67H712Z" transform="translate(-645.2 -790.47)"/><path class="cls-1" d="M669.21,814.1a2.1,2.1,0,0,0,1.49.61,2.07,2.07,0,0,0,1.48-.61,2.1,2.1,0,0,0,0-3l-6.7-6.7a2.1,2.1,0,0,0-3,0l-6.7,6.7a2.1,2.1,0,0,0,3,3l5.22-5.22Z" transform="translate(-645.2 -790.47)"/><path class="cls-1" d="M692.17,814.1l5.22-5.22,5.22,5.22a2.1,2.1,0,0,0,3,0,2.1,2.1,0,0,0,0-3l-6.7-6.7a2.1,2.1,0,0,0-3,0l-6.7,6.7a2.1,2.1,0,1,0,3,3Z" transform="translate(-645.2 -790.47)"/><path class="cls-1" d="M675.47,837.82a2.1,2.1,0,0,0-3,3l6.71,6.7a2.09,2.09,0,0,0,3,0l6.7-6.7a2.1,2.1,0,0,0-3-3L680.69,843Z" transform="translate(-645.2 -790.47)"/><path class="cls-1" d="M735.2,818.47a11.15,11.15,0,0,1-4.37-4.19,12.23,12.23,0,0,1,0-12.08,11.34,11.34,0,0,1,4.39-4.19,12.9,12.9,0,0,1,6.25-1.52,13.14,13.14,0,0,1,5.13,1,10.48,10.48,0,0,1,3.24,2.13.94.94,0,0,1,0,1.36l-1.39,1.31a1,1,0,0,1-1.29,0,7.92,7.92,0,0,0-5.47-2.06,8.61,8.61,0,0,0-4.21,1,7.48,7.48,0,0,0-2.91,2.86,8.76,8.76,0,0,0,0,8.28,7.48,7.48,0,0,0,2.91,2.86,8.5,8.5,0,0,0,4.21,1,7.91,7.91,0,0,0,5.47-2.08.94.94,0,0,1,1.29,0l1.4,1.33a1,1,0,0,1,0,1.36,10.46,10.46,0,0,1-3.26,2.13,13.22,13.22,0,0,1-5.14,1A12.88,12.88,0,0,1,735.2,818.47Z" transform="translate(-645.2 -790.47)"/><path class="cls-1" d="M764.29,803v1.86a1,1,0,0,1-.94,1h0a4.93,4.93,0,0,0-3.72,1.38,5.51,5.51,0,0,0-1.34,4v7.51a1,1,0,0,1-.95.94h-2.19a.94.94,0,0,1-.94-.94V803.18a.94.94,0,0,1,.94-.94h2a.94.94,0,0,1,.94.94v1.6a6.35,6.35,0,0,1,5.2-2.7A.94.94,0,0,1,764.29,803Z" transform="translate(-645.2 -790.47)"/><path class="cls-1" d="M783.41,812.25H770.62a4.74,4.74,0,0,0,1.88,3.06,6.13,6.13,0,0,0,3.77,1.12,6.49,6.49,0,0,0,4.08-1.31.94.94,0,0,1,1.28.14l1,1.14a.94.94,0,0,1,0,1.3,7.48,7.48,0,0,1-2.36,1.47,11.75,11.75,0,0,1-9.1-.42,8.24,8.24,0,0,1-3.38-3.18,9,9,0,0,1-1.19-4.62,9.15,9.15,0,0,1,1.16-4.59,8.18,8.18,0,0,1,3.21-3.18,9.41,9.41,0,0,1,4.64-1.14,9.17,9.17,0,0,1,4.55,1.13,7.93,7.93,0,0,1,3.13,3.16,9.61,9.61,0,0,1,1.13,4.72c0,.08,0,.18,0,.29A.94.94,0,0,1,783.41,812.25Zm-11.18-5.79a4.84,4.84,0,0,0-1.64,3.09h9.88a4.77,4.77,0,0,0-1.59-3.07,4.86,4.86,0,0,0-3.33-1.18A5,5,0,0,0,772.23,806.46Z" transform="translate(-645.2 -790.47)"/><path class="cls-1" d="M800.72,803.88q2,1.85,2,5.57v9.27a.94.94,0,0,1-1,.94h-2a.94.94,0,0,1-.94-.94v-1.18a4.79,4.79,0,0,1-2.14,1.75,8.38,8.38,0,0,1-3.34.6,8.14,8.14,0,0,1-3.43-.67,5.19,5.19,0,0,1-2.27-1.86,4.73,4.73,0,0,1-.8-2.69,4.6,4.6,0,0,1,1.75-3.77c1.16-.95,3-1.42,5.5-1.42h4.5v-.26a3.58,3.58,0,0,0-1.09-2.81,4.75,4.75,0,0,0-3.25-1,9.54,9.54,0,0,0-2.89.46,7.87,7.87,0,0,0-1.58.7,1,1,0,0,1-1.32-.36l-.69-1.28a.93.93,0,0,1,.33-1.25,10.47,10.47,0,0,1,2.56-1.11,14.63,14.63,0,0,1,4.08-.55A8.49,8.49,0,0,1,800.72,803.88ZM797,816.22a3.87,3.87,0,0,0,1.68-2v-2h-4.21c-2.35,0-3.52.77-3.52,2.32a2.07,2.07,0,0,0,.88,1.76,4.06,4.06,0,0,0,2.45.65A5.22,5.22,0,0,0,797,816.22Z" transform="translate(-645.2 -790.47)"/><path class="cls-1" d="M818.56,818a.93.93,0,0,1-.42,1.18,5.13,5.13,0,0,1-1,.42,8.12,8.12,0,0,1-2.17.29,6.15,6.15,0,0,1-4.44-1.5,5.79,5.79,0,0,1-1.57-4.37v-8.39H807a1,1,0,0,1-1-1v-1.37a1,1,0,0,1,1-.94h1.92v-3a1,1,0,0,1,1-1h2.19a1,1,0,0,1,.94,1v3h3.72a.94.94,0,0,1,.95.94v1.37a.94.94,0,0,1-.95,1H813v8.29a2.77,2.77,0,0,0,.62,1.94,2.32,2.32,0,0,0,1.8.67,4.1,4.1,0,0,0,1.48-.26.94.94,0,0,1,1.2.54Z" transform="translate(-645.2 -790.47)"/><path class="cls-1" d="M823.54,802.24h2.19a.94.94,0,0,1,.94.94v15.54a.94.94,0,0,1-.94.94h-2.19a1,1,0,0,1-.95-.94V803.18A1,1,0,0,1,823.54,802.24Z" transform="translate(-645.2 -790.47)"/><path class="cls-1" d="M848.16,803.55l-6.66,15.54a.94.94,0,0,1-.87.57h-3a.94.94,0,0,1-.87-.57l-6.66-15.54a.94.94,0,0,1,.87-1.31h2.18a.93.93,0,0,1,.87.58l5.17,12.34,5.34-12.35a.94.94,0,0,1,.86-.57h1.86A.94.94,0,0,1,848.16,803.55Z" transform="translate(-645.2 -790.47)"/><path class="cls-1" d="M866.6,812.25H853.82a4.77,4.77,0,0,0,1.87,3.06,6.15,6.15,0,0,0,3.77,1.12,6.5,6.5,0,0,0,4.09-1.31.93.93,0,0,1,1.27.14l1,1.14a1,1,0,0,1-.05,1.3,7.59,7.59,0,0,1-2.36,1.47,11.75,11.75,0,0,1-9.1-.42,8.18,8.18,0,0,1-3.38-3.18,8.93,8.93,0,0,1-1.19-4.62,9.05,9.05,0,0,1,1.16-4.59,8.18,8.18,0,0,1,3.21-3.18,9.37,9.37,0,0,1,4.63-1.14,9.18,9.18,0,0,1,4.56,1.13,8,8,0,0,1,3.13,3.16,9.6,9.6,0,0,1,1.12,4.72v.29A1,1,0,0,1,866.6,812.25Zm-11.17-5.79a4.9,4.9,0,0,0-1.65,3.09h9.89a4.78,4.78,0,0,0-1.6-3.07,4.83,4.83,0,0,0-3.33-1.18A4.93,4.93,0,0,0,855.43,806.46Z" transform="translate(-645.2 -790.47)"/><path class="cls-1" d="M738.32,835.85H731.7a.94.94,0,0,1-1-.94v-1.7a1,1,0,0,1,1-1h17.49a1,1,0,0,1,.94,1v1.7a.94.94,0,0,1-.94.94h-6.63v18.31a1,1,0,0,1-.94,1h-2.35a1,1,0,0,1-.95-1Z" transform="translate(-645.2 -790.47)"/><path class="cls-1" d="M791.51,839.39q1.92,1.92,1.92,5.73v9a1,1,0,0,1-.94,1H790.3a1,1,0,0,1-.95-1v-8.52a5.07,5.07,0,0,0-1-3.44,3.64,3.64,0,0,0-2.9-1.16,4.25,4.25,0,0,0-3.3,1.36,5.54,5.54,0,0,0-1.24,3.86v7.9a1,1,0,0,1-.94,1h-2.19a1,1,0,0,1-.95-1v-8.52a5.07,5.07,0,0,0-1-3.44,3.64,3.64,0,0,0-2.9-1.16,4.29,4.29,0,0,0-3.32,1.34,5.59,5.59,0,0,0-1.22,3.88v7.9a1,1,0,0,1-.94,1h-2.19a1,1,0,0,1-1-1V838.63a1,1,0,0,1,1-1h2a1,1,0,0,1,.95,1v1.27a6.28,6.28,0,0,1,2.44-1.79,8.22,8.22,0,0,1,3.27-.62,7.86,7.86,0,0,1,3.47.73,5.65,5.65,0,0,1,2.4,2.17,7.3,7.3,0,0,1,2.77-2.14,9.06,9.06,0,0,1,3.76-.76A7.11,7.11,0,0,1,791.51,839.39Z" transform="translate(-645.2 -790.47)"/><rect class="cls-1" x="177.39" y="4.18" width="4.08" height="4.08" rx="2.04"/><path class="cls-1" d="M755.15,837.74h2.19a1,1,0,0,1,.95.94v15.54a1,1,0,0,1-.95.94h-2.19a.94.94,0,0,1-.94-.94V838.68A.94.94,0,0,1,755.15,837.74Z" transform="translate(-645.2 -790.47)"/><rect class="cls-1" x="109.01" y="39.68" width="4.08" height="4.08" rx="2.04"/></svg>