<?xml version="1.0" encoding="UTF-8"?><svg id="a" xmlns="http://www.w3.org/2000/svg" xmlns:xlink="http://www.w3.org/1999/xlink" viewBox="0 0 600 600"><defs><style>.c,.d{fill:none;}.e{fill:#fff;}.f{fill:#ff5e5b;}.g{clip-path:url(#b);}.d{stroke:#323a47;stroke-miterlimit:10;stroke-width:7px;}</style><clipPath id="b"><rect class="c" width="600" height="600"/></clipPath></defs><g class="g"><path class="e" d="M455.7,329.81c-17.61,2.2-31.91,.55-31.91,.55v-107.8h21.66c14.32,0,28.13,5.96,37.47,16.81,6.58,7.64,11.84,18.39,11.84,33.24,0,36.3-18.7,50.6-39.06,57.2m92.73-75.68c-6.32-33.37-24.29-54.16-42.7-67.02-19.04-13.29-41.85-20.13-65.07-20.13H111.07c-11.46,0-15.86,11.19-15.9,16.8,0,.73,.02,3.66,.02,3.66,0,0-.54,145.81,.48,223.69,3.11,45.98,49.18,45.96,49.18,45.96,0,0,150.4-.44,222.53-.89,3.38-.02,6.76-.39,10.04-1.21,41.07-10.27,45.32-48.43,44.88-69.7,82.55,4.59,140.79-53.66,126.12-131.18"/><path class="d" d="M455.7,329.81c-17.61,2.2-31.91,.55-31.91,.55v-107.8h21.66c14.32,0,28.13,5.96,37.47,16.81,6.58,7.64,11.84,18.39,11.84,33.24,0,36.3-18.7,50.6-39.06,57.2m92.73-75.68c-6.32-33.37-24.29-54.16-42.7-67.02-19.04-13.29-41.85-20.13-65.07-20.13H111.07c-11.46,0-15.86,11.19-15.9,16.8,0,.73,.02,3.66,.02,3.66,0,0-.54,145.81,.48,223.69,3.11,45.98,49.18,45.96,49.18,45.96,0,0,150.4-.44,222.53-.89,3.38-.02,6.76-.39,10.04-1.21,41.07-10.27,45.32-48.43,44.88-69.7,82.55,4.59,140.79-53.66,126.12-131.18"/><path class="f" d="M256.61,396.63c3.58,1.81,5.88-.44,5.88-.44,0,0,52.46-47.88,76.09-75.45,21.02-24.67,22.39-66.23-13.71-81.77-36.1-15.53-65.8,18.27-65.8,18.27-25.76-28.33-64.73-26.89-82.76-7.72-18.03,19.17-11.73,52.07,1.72,70.38,12.62,17.19,68.12,66.65,76.53,75.01,0,0,.61,.64,2.06,1.71"/></g></svg>