<svg height="577.89722" viewBox="0 0 854.55666 577.89722" width="854.55666" xmlns="http://www.w3.org/2000/svg"><path d="m151.55666 268h110v123h-110z" fill="#ccc"/><path d="m95.557 576h-56l-6-48h68z" fill="#e6e6e6"/><path d="m380.72875 702.28371-1.88975 25.83495a8.22428 8.22428 0 0 0 8.69988 8.80928l13.26993-.80373a4.19488 4.19488 0 0 0 3.8153-5.2044l-7.36594-29.46281z" fill="#e6e6e6" transform="translate(-172.72167 -161.05139)"/><path d="m491.72431 717.56077c15.6176 3.6534 26.77411 8.84633 34.103 15.87434a15.03539 15.03539 0 0 0 9.62359 4.1254c4.59653.24174 8.35492-.27349 11.17944-1.53511h.00045a4.43019 4.43019 0 0 0 2.62469-3.65076 4.50814 4.50814 0 0 0 -1.88846-4.16687l-37.03954-26.3546-15.73318 6.294-3.67016 3.67016a3.63415 3.63415 0 0 0 .8002 5.74346z" fill="#e6e6e6" transform="translate(-172.72167 -161.05139)"/><path d="m443.66188 295.74594-105.87329-.98031c.26623-15.42064 3.85407-30.56331 11.69669-44.11378 5.15076-8.89946 5.03948-18.58474 3.7982-26.7444-1.91555-12.592 2.53886-25.47548 12.43708-33.49119a39.916 39.916 0 0 1 26.84266-8.88134l2.0558.08566a40.00777 40.00777 0 0 1 32.87054 19.76983 33.32736 33.32736 0 0 1 3.96134 20.30073c-.67106 6.60129.93466 13.26982 4.6906 20.00186 6.47994 14.78258 7.88315 33.6988 7.52038 54.05294z" fill="#2f2e41" transform="translate(-172.72167 -161.05139)"/><path d="m514.49653 703.22772-20.77878 5.42055-101.1836-220.4357 6.324 215.01515h-20.7788c-22.2035-101.15879-62.29053-217.90681-44.26782-254.76585l107.50757-6.324z" fill="#2ca8ff" transform="translate(-172.72167 -161.05139)"/><circle cx="218.90906" cy="69.68505" fill="#ffb9b9" r="28.00618"/><path d="m416.0232 282.23167-46.07467-2.71028c4.51541-10.36377 6.31912-20.34363 4.51712-29.813h34.33015c-.0778 7.27061 3.54031 19.84742 7.2274 32.52328z" fill="#ffb9b9" transform="translate(-172.72167 -161.05139)"/><path d="m272.211 289.217-101.183 7.228 10.389-179.33 17.617-4.969 19.875 4.517 19.875-9.938 12.648 4.518z" fill="#2ca8ff"/><path d="m360.91428 579.45849-69.112-15.80994c20.5506-68.14818 57.57349-224.05122 45.623-279.61l36.137-16.26165z" fill="#e6e6e6" transform="translate(-172.72167 -161.05139)"/><path d="m327.48755 382.51184-26.19932-16.26165 22.3434-65.4394a30.87113 30.87113 0 0 1 13.49426-16.02839l7.52674-4.35758-4.51713 65.95z" fill="#e6e6e6" transform="translate(-172.72167 -161.05139)"/><path d="m505.01057 564.552c-21.81327 12.62013-76.33909 19.65509-100.28018 10.8411-1.76169-61.57277-5.21664-235.739 5.87226-309.42306l39.7507 16.26165-3.6137 48.78495c-19.00407 41.73287 36.17963 187.08874 58.27092 233.53536z" fill="#e6e6e6" transform="translate(-172.72167 -161.05139)"/><path d="m329.127 213.33-24.393-8.131-32.523-37.041 5.421-46.978 54.205 75.888z" fill="#e6e6e6"/><path d="m425.40285 409.54533a6.78537 6.78537 0 0 0 8.10524 5.11221l20.706-4.68917-2.99259-13.21656-20.70643 4.68828a6.77693 6.77693 0 0 0 -5.11221 8.10524z" fill="#ffb9b9" transform="translate(-172.72167 -161.05139)"/><path d="m416.0232 223.509c-15.55574-6.3965-30.9192-6.85936-46.07467-.90342l-6.324-22.58563h57.8192z" fill="#2f2e41" transform="translate(-172.72167 -161.05139)"/><path d="m444.02938 394.25637 11.74452 21.6822c19.7541-5.50955 36.87412-22.87878 53.30208-43.3644l-4.51713-14.4548-28.00617 7.2274z" fill="#e6e6e6" transform="translate(-172.72167 -161.05139)"/><path d="m435.44684 349.53683h-3.6137c0-51.11057-10.52349-86.7288-20.77877-86.7288l-.90343-3.6137c9.197 0 15.06047 14.824 18.35964 27.26023 4.47302 16.85938 6.93626 39.26237 6.93626 63.08227z" fill="#3f3d56" transform="translate(-172.72167 -161.05139)"/><path d="m352.33174 336.88888h-3.61374c0-46.80915 10.59628-75.8877 26.19933-75.8877l-.90343 3.6137c-10.79254 0-21.68216 22.34786-21.68216 72.274z" fill="#3f3d56" transform="translate(-172.72167 -161.05139)"/><circle cx="260.91832" cy="189.38886" fill="#3f3d56" r="9.03425"/><path d="m337.87694 358.57108h-3.6137c0-12.95189 7.29489-23.48905 16.26165-23.48905v3.6137c-6.97419 0-12.64795 8.91603-12.64795 19.87535z" fill="#3f3d56" transform="translate(-172.72167 -161.05139)"/><path d="m366.78654 358.57108h-3.6137c0-10.95932-5.67376-19.87535-12.64795-19.87535v-3.61373c8.96676 0 16.26165 10.53719 16.26165 23.48908z" fill="#3f3d56" transform="translate(-172.72167 -161.05139)"/><circle cx="192.25802" cy="198.42311" fill="#3f3d56" r="3.6137"/><circle cx="163.34842" cy="198.42311" fill="#3f3d56" r="3.6137"/><path d="m118.177 165.193 22.547 4.026 51.534 73.276-27.378-6.442z" fill="#2ca8ff"/><path d="m286.8996 325.34727a1.91768 1.91768 0 0 0 -1.5735 2.971l48.17135 73.08788a1.91143 1.91143 0 0 0 1.16016.81035l22.4127 5.27321a1.91439 1.91439 0 0 0 2.00447-2.9648l-52.88918-75.20177a1.90335 1.90335 0 0 0 -1.22941-.783l-17.69531-3.16023a2.07607 2.07607 0 0 0 -.36128-.03264z" fill="#3f3d56" transform="translate(-172.72167 -161.05139)"/><path d="m316.94907 377.60432 1.33881 13.48521 21.12638-2.09711a6.77573 6.77573 0 0 0 -1.33837-13.48521z" fill="#ffb9b9" transform="translate(-172.72167 -161.05139)"/><path d="m298.57839 376.04229a17.42694 17.42694 0 0 0 17.40637 17.31065h3.47387l2.529-21.07565-20.93979-7.53839z" fill="#e6e6e6" transform="translate(-172.72167 -161.05139)"/><path d="m442.55666 0h412v217h-412z" fill="#e6e6e6"/><path d="m627.27833 366.05139h388v-193h-388z" fill="#fff" transform="translate(-172.72167 -161.05139)"/><path d="m484.55666 40h138v138h-138z" fill="#3f3d56"/><circle cx="589.55666" cy="99" fill="#2ca8ff" r="4"/><circle cx="574.55666" cy="85" fill="#2ca8ff" r="4"/><path d="m745.27833 260.05139a7.95011 7.95011 0 0 0 -4.16785 1.181 25.12434 25.12434 0 0 0 -3.86474-4.53583c.01708-.21344.03259-.42731.03259-.64514a7.99417 7.99417 0 0 0 -13.54682-5.7569 24.50673 24.50673 0 0 0 -6.46264-.05639c.00146-.06269.00946-.12366.00946-.18671a8 8 0 1 0 -13.2594 6.01813 25.14047 25.14047 0 0 0 -3.62439 3.83362 7.99939 7.99939 0 1 0 -5.11621 14.14825l.02533-.00128c-.01313.33258-.02533.66546-.02533 1.00128a25.045 25.045 0 0 0 .72363 5.973 14.99382 14.99382 0 1 0 19.56885 18.57819 24.97131 24.97131 0 0 0 16.34241-2.42426 8.00091 8.00091 0 1 0 10.492-10.492 24.85715 24.85715 0 0 0 2.84784-10.63617l.02527.00128a8 8 0 0 0 0-16z" fill="#2ca8ff" transform="translate(-172.72167 -161.05139)"/><path d="m530.55666 37h40v6h-40z" fill="#e6e6e6"/><path d="m660.55666 40h138v138h-138z" fill="#3f3d56"/><g fill="#2ca8ff"><circle cx="755.75666" cy="131.8" r="1.8"/><circle cx="749.00666" cy="125.5" r="1.8"/><path d="m920.82833 292.85139a3.57749 3.57749 0 0 0 -1.87553.53144 11.30621 11.30621 0 0 0 -1.73914-2.04113c.00769-.096.01467-.19228.01467-.29031a3.59737 3.59737 0 0 0 -6.09607-2.5906 11.02775 11.02775 0 0 0 -2.90819-.02538c.00066-.02821.00426-.05565.00426-.084a3.6 3.6 0 1 0 -5.96673 2.70816 11.31327 11.31327 0 0 0 -1.631 1.72513 3.59972 3.59972 0 1 0 -2.30229 6.36671l.0114-.00058c-.00591.14966-.0114.29946-.0114.45058a11.27051 11.27051 0 0 0 .32563 2.68783 6.74722 6.74722 0 1 0 8.806 8.36019 11.23714 11.23714 0 0 0 7.35409-1.09092 3.60041 3.60041 0 1 0 4.7214-4.7214 11.18577 11.18577 0 0 0 1.28153-4.78628l.01137.00058a3.6 3.6 0 0 0 0-7.2z" transform="translate(-172.72167 -161.05139)"/><circle cx="769.87848" cy="97.64171" r="1.8"/><circle cx="774.11285" cy="89.43667" r="1.8"/><path d="m940.52643 251.32953a3.57751 3.57751 0 0 0 -1.01994-1.66125 11.3064 11.3064 0 0 0 1.49326-2.22732c.09454-.01863.18907-.038.28342-.06458a3.59737 3.59737 0 0 0 .84112-6.57006 11.02787 11.02787 0 0 0 -.76391-2.80619c.02733-.007.05472-.011.082-.01867a3.6 3.6 0 1 0 -4.22419-5.00922 11.3133 11.3133 0 0 0 -2.10265-1.10227 3.59973 3.59973 0 1 0 -6.75243-.49024l.00365.01082c-.14566.03488-.29134.0702-.4368.11117a11.27 11.27 0 0 0 -2.49892 1.042 6.74722 6.74722 0 1 0 -5.66009 10.74251 11.2371 11.2371 0 0 0 3.04357 6.783 3.60041 3.60041 0 1 0 5.82448 3.26477 11.1857 11.1857 0 0 0 4.95446-.06389l.00252.0111a3.6 3.6 0 1 0 6.93042-1.95173z" transform="translate(-172.72167 -161.05139)"/><circle cx="700.16182" cy="73.18149" r="1.8"/><circle cx="690.95808" cy="73.91887" r="1.8"/><path d="m867.72564 239.88258a3.57754 3.57754 0 0 0 -.87207 1.74343 11.306 11.306 0 0 0 -2.68-.0918c-.06574-.07044-.13212-.14048-.20451-.20657a3.59737 3.59737 0 0 0 -6.02337 2.75542 11.02762 11.02762 0 0 0 -1.97953 2.13065c-.02039-.01951-.03822-.04067-.05918-.05979a3.6 3.6 0 1 0 -2.02291 6.23247 11.31355 11.31355 0 0 0 .17439 2.36765 3.59972 3.59972 0 1 0 3.14968 5.99292l.00726-.00881c.10655.10527.21348.21033.32508.31221a11.26967 11.26967 0 0 0 2.20457 1.57173 6.74722 6.74722 0 1 0 12.11144-.86672 11.23714 11.23714 0 0 0 4.15267-6.16668 3.60041 3.60041 0 1 0 -.30355-6.67017 11.18565 11.18565 0 0 0 -2.67072-4.17348l.00809-.008a3.6 3.6 0 1 0 -5.31735-4.85445z" transform="translate(-172.72167 -161.05139)"/></g><path d="m706.55666 37h40v6h-40z" fill="#e6e6e6"/><path d="m197.89809 671.2944c14.41965 19.311 44.352 21.34353 44.352 21.34353s6.55352-29.27679-7.86613-48.5878-44.352-21.34353-44.352-21.34353-6.55352 29.27679 7.86613 48.5878z" fill="#e6e6e6" transform="translate(-172.72167 -161.05139)"/><path d="m271.35481 678.554c-9.51509 12.74275-29.26658 14.08395-29.26658 14.08395s-4.32447-19.31887 5.19063-32.06162 29.26658-14.084 29.26658-14.084 4.32447 19.31889-5.19063 32.06167z" fill="#e6e6e6" transform="translate(-172.72167 -161.05139)"/><path d="m0 575.6565h519.55666v2.24072h-519.55666z" fill="#3f3d56"/></svg>