<svg xmlns="http://www.w3.org/2000/svg" xmlns:xlink="http://www.w3.org/1999/xlink" viewBox="0 0 144 144"><defs><style>.cls-1{fill:url(#radial-gradient);}.cls-2{fill:url(#radial-gradient-2);}.cls-3{fill:url(#radial-gradient-3);}.cls-4{fill:url(#radial-gradient-4);}.cls-5{fill:none;}.cls-6{isolation:isolate;}.cls-7{fill:url(#linear-gradient);}.cls-10,.cls-14,.cls-19,.cls-24,.cls-25,.cls-27,.cls-28,.cls-32,.cls-35,.cls-8,.cls-9{mix-blend-mode:multiply;}.cls-10,.cls-16,.cls-17,.cls-24,.cls-25,.cls-27,.cls-28,.cls-29,.cls-30,.cls-32,.cls-34,.cls-35,.cls-8,.cls-9{opacity:0.5;}.cls-8{fill:url(#linear-gradient-2);}.cls-9{fill:url(#linear-gradient-3);}.cls-10{fill:url(#linear-gradient-4);}.cls-11,.cls-18{fill:#fff;}.cls-11{opacity:0.8;}.cls-12{fill:url(#linear-gradient-5);}.cls-13{fill:#2c2a46;}.cls-14{fill:url(#White_Black);}.cls-15,.cls-29{fill:#00a99d;}.cls-16,.cls-17,.cls-21,.cls-34{mix-blend-mode:screen;}.cls-16{fill:url(#linear-gradient-6);}.cls-19{opacity:0.6;}.cls-20{fill:#002d73;}.cls-21{opacity:0.1;fill:url(#linear-gradient-7);}.cls-22{clip-path:url(#clip-path);}.cls-23{fill:url(#linear-gradient-8);}.cls-24{fill:url(#linear-gradient-9);}.cls-25{fill:url(#linear-gradient-10);}.cls-26,.cls-27{fill:url(#linear-gradient-11);}.cls-28{fill:url(#linear-gradient-13);}.cls-31{fill:url(#linear-gradient-14);}.cls-32{fill:url(#linear-gradient-15);}.cls-33,.cls-34{fill:url(#linear-gradient-16);}.cls-35{fill:url(#linear-gradient-18);}.cls-36{mask:url(#mask);}.cls-37{mask:url(#mask-2);}.cls-38{mask:url(#mask-3);}.cls-39{mask:url(#mask-4);}</style><radialGradient id="radial-gradient" cx="36444.72" cy="-16741" r="90.69" gradientTransform="matrix(0.16, 0, 0, 0.3, -5810.38, 5142.2)" gradientUnits="userSpaceOnUse"><stop offset="0.15" stop-color="#fff"/><stop offset="0.2" stop-color="#dadada"/><stop offset="0.28" stop-color="#a8a8a8"/><stop offset="0.37" stop-color="#7b7b7b"/><stop offset="0.46" stop-color="#555"/><stop offset="0.55" stop-color="#363636"/><stop offset="0.65" stop-color="#1e1e1e"/><stop offset="0.75" stop-color="#0d0d0d"/><stop offset="0.86" stop-color="#030303"/><stop offset="1"/></radialGradient><radialGradient id="radial-gradient-2" cx="35747.02" cy="-16743.32" r="90.69" xlink:href="#radial-gradient"/><radialGradient id="radial-gradient-3" cx="31888.66" cy="-21792.68" r="90.69" gradientTransform="matrix(0.26, 0, 0, 0.24, -8129.44, 5448.64)" xlink:href="#radial-gradient"/><radialGradient id="radial-gradient-4" cx="31750.36" cy="-21793.53" r="90.69" gradientTransform="matrix(0.26, 0, 0, 0.24, -8129.44, 5448.64)" xlink:href="#radial-gradient"/><linearGradient id="linear-gradient" x1="34.11" y1="46.61" x2="114.45" y2="99.74" gradientUnits="userSpaceOnUse"><stop offset="0" stop-color="#f3f6fa"/><stop offset="0.19" stop-color="#eaeff6"/><stop offset="0.48" stop-color="#d2ddea"/><stop offset="0.86" stop-color="#abc0d7"/><stop offset="1" stop-color="#9bb4cf"/></linearGradient><linearGradient id="linear-gradient-2" x1="72.13" y1="64.35" x2="72.13" y2="116.1" xlink:href="#linear-gradient"/><linearGradient id="linear-gradient-3" x1="74.81" y1="82.86" x2="82.74" y2="115.66" xlink:href="#linear-gradient"/><linearGradient id="linear-gradient-4" x1="92.42" y1="85.28" x2="111.93" y2="98.1" xlink:href="#linear-gradient"/><linearGradient id="linear-gradient-5" x1="72.13" y1="83.64" x2="72.13" y2="63.17" gradientTransform="translate(3.03 141.23) rotate(-90)" xlink:href="#linear-gradient"/><linearGradient id="White_Black" x1="39.87" y1="69.1" x2="104.38" y2="69.1" gradientUnits="userSpaceOnUse"><stop offset="0" stop-color="#fff"/><stop offset="1"/></linearGradient><linearGradient id="linear-gradient-6" x1="72.13" y1="60.97" x2="72.13" y2="73.39" gradientUnits="userSpaceOnUse"><stop offset="0" stop-color="#2adeff"/><stop offset="0.06" stop-color="#29cfef"/><stop offset="0.31" stop-color="#2291ac"/><stop offset="0.54" stop-color="#1d5f77"/><stop offset="0.74" stop-color="#1a3c50"/><stop offset="0.9" stop-color="#182639"/><stop offset="1" stop-color="#171e30"/></linearGradient><linearGradient id="linear-gradient-7" x1="72.18" y1="58.11" x2="72.18" y2="87.55" gradientUnits="userSpaceOnUse"><stop offset="0" stop-color="#2adeff"/><stop offset="0.1" stop-color="#29d6f6"/><stop offset="0.26" stop-color="#27bfde"/><stop offset="0.46" stop-color="#239bb7"/><stop offset="0.7" stop-color="#1e6980"/><stop offset="0.96" stop-color="#18293c"/><stop offset="1" stop-color="#171e30"/></linearGradient><clipPath id="clip-path"><rect class="cls-5" x="60.24" y="37.7" width="23.78" height="62.81" rx="11.57" transform="translate(141.23 -3.03) rotate(90)"/></clipPath><linearGradient id="linear-gradient-8" x1="114" y1="41.92" x2="128.63" y2="87.66" xlink:href="#linear-gradient"/><linearGradient id="linear-gradient-9" x1="125.27" y1="67.78" x2="117.6" y2="87.17" xlink:href="#linear-gradient"/><linearGradient id="linear-gradient-10" x1="124.16" y1="67.35" x2="116.5" y2="86.74" xlink:href="#linear-gradient"/><linearGradient id="linear-gradient-11" x1="104.7" y1="65.64" x2="131.27" y2="72.74" xlink:href="#linear-gradient"/><linearGradient id="linear-gradient-13" x1="127.84" y1="71.82" x2="133.8" y2="73.67" xlink:href="#linear-gradient"/><linearGradient id="linear-gradient-14" x1="14.5" y1="56.95" x2="36.02" y2="104.35" xlink:href="#linear-gradient"/><linearGradient id="linear-gradient-15" x1="-4152.98" y1="67.78" x2="-4160.65" y2="87.17" gradientTransform="matrix(-1, 0, 0, 1, -4133.32, 0)" xlink:href="#linear-gradient"/><linearGradient id="linear-gradient-16" x1="-4173.54" y1="65.64" x2="-4146.99" y2="72.74" gradientTransform="matrix(-1, 0, 0, 1, -4133.32, 0)" xlink:href="#linear-gradient"/><linearGradient id="linear-gradient-18" x1="-4150.41" y1="71.82" x2="-4144.45" y2="73.66" gradientTransform="matrix(-1, 0, 0, 1, -4133.32, 0)" xlink:href="#linear-gradient"/><mask id="mask" x="114.28" y="44.47" width="29.71" height="54.54" maskUnits="userSpaceOnUse"><path class="cls-1" d="M144,71.65C144.08,86.71,137.5,99,129.3,99s-14.93-12.12-15-27.18S120.76,44.52,129,44.47,143.9,56.59,144,71.65Z"/></mask><mask id="mask-2" x="-0.01" y="44.47" width="29.71" height="54.54" maskUnits="userSpaceOnUse"><path class="cls-2" d="M29.7,71.65C29.79,86.71,23.21,99,15,99S.08,86.89,0,71.83,6.48,44.52,14.68,44.47,29.61,56.59,29.7,71.65Z"/></mask><mask id="mask-3" x="67.19" y="45.95" width="46.95" height="50.87" maskUnits="userSpaceOnUse"><path class="cls-3" d="M114.13,68c.08,12.26-10.37,22.25-23.34,22.33s-23.53-9.79-23.6-22S77.56,46,90.53,46,114.06,55.75,114.13,68Z"/></mask><mask id="mask-4" x="31.39" y="45.95" width="46.95" height="50.87" maskUnits="userSpaceOnUse"><path class="cls-4" d="M78.34,68C78.42,80.26,68,90.25,55,90.33s-23.53-9.79-23.61-22S41.77,46,54.74,46,78.27,55.75,78.34,68Z"/></mask></defs><g class="cls-6"><g id="Layer_1" data-name="Layer 1"><path class="cls-7" d="M125.89,71.89c0,27.48-24.07,41.13-53.76,41.13S18.36,98.57,18.36,71.89,42.44,30.75,72.13,30.75,125.89,44.41,125.89,71.89Z"/><path class="cls-8" d="M72.13,30.75c-29.69,0-53.77,14.46-53.77,41.14S42.44,113,72.13,113s53.76-13.65,53.76-41.13S101.82,30.75,72.13,30.75Zm0,71.62c-22.39,0-40.54-12.49-40.54-32.61S49.74,37.15,72.13,37.15,112.66,49,112.66,69.76,94.51,102.37,72.13,102.37Z"/><path class="cls-9" d="M72.13,30.75c-23.7,0-43.81,11.57-51,27.18,1.69-2.58,3.72-8.34,6.09-10.16l1.43-1.72c3.48-3,7.55-6.59,11.74-8.79C45.34,35,50.51,33,55.94,32.44A67.12,67.12,0,0,1,74.12,32a71.1,71.1,0,0,1,36.4,15.69c5.4,4.49,9.31,14.64,8.34,21.59-.68,4.84-3.62,9.11-7.12,12.52-29.61,28.91-55,36.19-86.1,9.41-2.06-1.78-3.92-10.44-5.23-12.83a3.42,3.42,0,0,1-.26-.59c-.36-1.09-.66-2.48-.89-3.37s-.66-2.25-.88-3.38c0,.27,0,.54,0,.82C18.36,98.57,42.44,113,72.13,113s53.76-13.65,53.76-41.13S101.82,30.75,72.13,30.75Z"/><path class="cls-10" d="M93.3,34.25c2.4.47,6.44,4.11,8.37,5.66,2.9,2.32,7.15,8.26,9.16,11.4,2.89,4.48,4,13.44,3.8,18.76-.18,5.56-4.92,14.53-8.46,18.16a44.05,44.05,0,0,1-12.51,8.53c-18.81,9.09-48.41,7.82-61.31,3.86.86,1.18,5.32,4,7.8,4.9,3,1.1,6.13,3.5,9.27,4.12a112.12,112.12,0,0,0,21.49,1.82c29,0,52.54-13.5,52.54-40.35C123.45,51.66,111.12,37.76,93.3,34.25Z"/><path class="cls-11" d="M60.78,55.33c.8,3.44-3.2,7.31-8.93,8.65s-11-.36-11.82-3.8,3.19-7.31,8.92-8.65S60,51.9,60.78,55.33Z"/><rect class="cls-12" x="58.53" y="35.99" width="27.19" height="66.22" rx="13.27" transform="translate(141.23 -3.03) rotate(90)"/><rect class="cls-13" x="39.87" y="56.36" width="64.51" height="25.49" rx="12.42"/><rect class="cls-14" x="39.87" y="56.36" width="64.51" height="25.49" rx="12.42"/><path class="cls-15" d="M62,68.87A6.77,6.77,0,1,1,55.2,62.1,6.77,6.77,0,0,1,62,68.87Z"/><path class="cls-15" d="M96.71,68.87A6.77,6.77,0,1,1,90,62.1,6.76,6.76,0,0,1,96.71,68.87Z"/><path class="cls-16" d="M52.16,72.17a76.49,76.49,0,0,1,21.7-2.48,100.46,100.46,0,0,1,28.42,3.92l.4.16a11.42,11.42,0,0,0,.85-4.34v-.65a11.57,11.57,0,0,0-3-7.78A44.07,44.07,0,0,1,89,64.44a57.61,57.61,0,0,1-16.3,1.85,69.46,69.46,0,0,1-28.59-5.7,11.55,11.55,0,0,0-3.41,8.19v.65A11.39,11.39,0,0,0,42,74.69,58.49,58.49,0,0,1,52.16,72.17Z"/><g class="cls-17"><path class="cls-18" d="M78.69,57.21c-2.75.1-5.5.14-8.24.21l-8.24.12c-2.75,0-5.49.05-8.24.07a19.55,19.55,0,0,0-4,.27,10.81,10.81,0,0,0-3.64,1.51,11.33,11.33,0,0,0-4.72,6.18l-.26,1-.15,1a16.62,16.62,0,0,0-.09,2,11.39,11.39,0,0,0,5.81,9.91,11.14,11.14,0,0,0,3.82,1.33,37,37,0,0,0,4.09.23,29.82,29.82,0,0,1-4.12,0,11.5,11.5,0,0,1-4-1.19,11.92,11.92,0,0,1-5.52-6.12,11.5,11.5,0,0,1-.84-4.14,13,13,0,0,1,.48-4.19,12.09,12.09,0,0,1,5-6.67,11.87,11.87,0,0,1,3.93-1.61,12.51,12.51,0,0,1,2.11-.24c.71,0,1.38,0,2.07,0,2.75,0,5.49,0,8.24.07l8.24.12C73.19,57.07,75.94,57.12,78.69,57.21Z"/></g><g class="cls-19"><path class="cls-20" d="M102.68,67.93a10.88,10.88,0,0,1-3.06,8.7,11.18,11.18,0,0,1-4.06,2.62,12.14,12.14,0,0,1-1.17.36c-.4.1-.81.15-1.21.23L92,79.93l-1.17,0c-3.11.08-6.22.1-9.32.14l-9.33,0-9.33,0c-3.11,0-6.22-.07-9.33-.15l-1.16,0-1.23-.09c-.41-.08-.81-.13-1.21-.23a12.33,12.33,0,0,1-1.18-.36,11.18,11.18,0,0,1-4.06-2.62,10.87,10.87,0,0,1-3.05-8.7,12.15,12.15,0,0,0,1,4.48A10.2,10.2,0,0,0,45.2,76a10.57,10.57,0,0,0,3.85,2.16c.34.13.72.17,1.07.27s.73.1,1.09.15l1.1,0,1.16,0c3.11-.08,6.22-.09,9.33-.14l9.33,0,9.33,0c3.1,0,6.21.07,9.32.15l1.17,0,1.09,0c.36-.06.73-.09,1.09-.16s.73-.14,1.07-.27A10.42,10.42,0,0,0,99.05,76a10.11,10.11,0,0,0,2.67-3.62A12.35,12.35,0,0,0,102.68,67.93Z"/></g><path class="cls-21" d="M95.93,73.86c-3.57,2.27-8.56,4.75-13,4.75-3.41,0-5.79-1.38-6.74-4.62-1.07-3.68,1.83-8.13,3.73-11.08a33,33,0,0,1,4.76-5.7H56.45a10.17,10.17,0,0,1-1.8,5.54c-2.54,4-8,8.36-12.88,8.36a6.53,6.53,0,0,1-.93-.07,11.52,11.52,0,0,0,3.81,7.06,38.19,38.19,0,0,1,2-3.31,34.37,34.37,0,0,1,10-9.54c3-1.87,7.06-3.92,10.7-3.92,2.82,0,4.78,1.14,5.56,3.81.89,3-1.51,6.73-3.07,9.17A30.63,30.63,0,0,1,63.7,81H92a11.58,11.58,0,0,0,11.57-11.56v-.65c0-.31,0-.62,0-.93A47.09,47.09,0,0,1,95.93,73.86Z"/><g class="cls-22"><path class="cls-18" d="M60.78,55.33c.8,3.44-3.2,7.31-8.93,8.65s-11-.36-11.82-3.8,3.19-7.31,8.92-8.65S60,51.9,60.78,55.33Z"/></g><path class="cls-23" d="M128.08,87.9s-4.89,2-7.05,2-3.92-8.07-3.92-18,1.76-18,3.92-18c1.11,0,6.94,2,6.94,2Z"/><path class="cls-24" d="M123.36,80.16c-1.49-2.67-1.93-6.08-2.28-9.09a119.11,119.11,0,0,1-.76-13.21,5.07,5.07,0,0,1,1.91-3.8,6,6,0,0,0-1.2-.23c-2.16,0-3.92,8.07-3.92,18s1.76,18,3.92,18,7.05-2,7.05-2V85A13.68,13.68,0,0,1,123.36,80.16Z"/><path class="cls-25" d="M122.13,85.53c-2.11-3-3.07-7-3.56-10.58a42,42,0,0,1,1.83-17.9,4.6,4.6,0,0,1,.37-1.12c.2-.58.4-1.15.62-1.7,0-.12.1-.22.15-.33a3.17,3.17,0,0,0-.51-.07c-2.16,0-3.92,8.07-3.92,18s1.76,18,3.92,18a16,16,0,0,0,4.07-.9A21,21,0,0,1,122.13,85.53Z"/><path class="cls-26" d="M131.45,71.85c0,8.87-1.57,16.06-3.5,16.06s-3.49-7.19-3.49-16.06S126,55.79,128,55.79,131.45,63,131.45,71.85Z"/><path class="cls-27" d="M131.45,71.85c0,8.87-1.57,16.06-3.5,16.06s-3.49-7.19-3.49-16.06S126,55.79,128,55.79,131.45,63,131.45,71.85Z"/><path class="cls-28" d="M128,55.8a4.56,4.56,0,0,1,.77,2.41c.06,3.41.75,6.78.72,10.19a49.88,49.88,0,0,1-1.07,8A35.26,35.26,0,0,1,126,85c.56,1.82,1.25,2.89,2,2.89,1.93,0,3.5-7.19,3.5-16.06S129.92,56,128,55.8Z"/><ellipse class="cls-29" cx="128.81" cy="71.85" rx="2.55" ry="14.17"/><g class="cls-30"><path class="cls-18" d="M128,87.91a1.26,1.26,0,0,1-.91-.5,4,4,0,0,1-.57-.9,12,12,0,0,1-.77-2,31.33,31.33,0,0,1-.87-4.18,62.43,62.43,0,0,1,0-17,30.86,30.86,0,0,1,.87-4.17,12.14,12.14,0,0,1,.77-2,4.27,4.27,0,0,1,.57-.9,1.26,1.26,0,0,1,.91-.5,1.27,1.27,0,0,0-.86.54,4.56,4.56,0,0,0-.52.91,12.7,12.7,0,0,0-.67,2,32.68,32.68,0,0,0-.75,4.16,68.17,68.17,0,0,0-.47,8.45,68.17,68.17,0,0,0,.47,8.45,32.36,32.36,0,0,0,.75,4.16,12.7,12.7,0,0,0,.67,2,4.56,4.56,0,0,0,.52.91A1.23,1.23,0,0,0,128,87.91Z"/></g><path class="cls-31" d="M16.85,87.9s4.89,2,7,2,3.91-8.07,3.91-18-1.75-18-3.91-18c-1.12,0-6.94,2-6.94,2Z"/><path class="cls-32" d="M21.57,80.16c1.49-2.67,1.93-6.08,2.28-9.09a119.11,119.11,0,0,0,.76-13.21,5.1,5.1,0,0,0-1.91-3.8,6,6,0,0,1,1.2-.23c2.16,0,3.91,8.07,3.91,18s-1.75,18-3.91,18-7-2-7-2V85A13.68,13.68,0,0,0,21.57,80.16Z"/><path class="cls-33" d="M13.48,71.85c0,8.87,1.57,16.06,3.5,16.06s3.48-7.19,3.48-16.06S18.9,55.79,17,55.79,13.48,63,13.48,71.85Z"/><path class="cls-34" d="M13.48,71.85c0,8.87,1.57,16.06,3.5,16.06s3.48-7.19,3.48-16.06S18.9,55.79,17,55.79,13.48,63,13.48,71.85Z"/><path class="cls-35" d="M16.89,55.8a4.64,4.64,0,0,0-.76,2.41c-.05,3.41-.75,6.78-.72,10.19a49.88,49.88,0,0,0,1.07,8A35.71,35.71,0,0,0,19,85c-.56,1.82-1.25,2.89-2,2.89-1.93,0-3.5-7.19-3.5-16.06S15,56,16.89,55.8Z"/><path class="cls-29" d="M13.57,71.85c0,7.82,1.15,14.17,2.55,14.17s2.55-6.35,2.55-14.17-1.14-14.16-2.55-14.16S13.57,64,13.57,71.85Z"/><g class="cls-30"><path class="cls-18" d="M17,87.91a1.21,1.21,0,0,0,.85-.54,4.16,4.16,0,0,0,.53-.91,12.7,12.7,0,0,0,.67-2,32.36,32.36,0,0,0,.75-4.16,66.28,66.28,0,0,0,.47-8.45,68.17,68.17,0,0,0-.47-8.45A32.68,32.68,0,0,0,19,59.24a12.7,12.7,0,0,0-.67-2,4.16,4.16,0,0,0-.53-.91,1.25,1.25,0,0,0-.85-.54,1.28,1.28,0,0,1,.91.5,4.71,4.71,0,0,1,.57.9,12.14,12.14,0,0,1,.77,2,32.48,32.48,0,0,1,.87,4.17,61.79,61.79,0,0,1,.58,8.49,61.79,61.79,0,0,1-.58,8.49,33,33,0,0,1-.87,4.18,12,12,0,0,1-.77,2,4.42,4.42,0,0,1-.57.9A1.28,1.28,0,0,1,17,87.91Z"/></g><g class="cls-36"><path class="cls-29" d="M144,71.65C144.08,86.71,137.5,99,129.3,99s-14.93-12.12-15-27.18S120.76,44.52,129,44.47,143.9,56.59,144,71.65Z"/></g><g class="cls-37"><path class="cls-29" d="M29.7,71.65C29.79,86.71,23.21,99,15,99S.08,86.89,0,71.83,6.48,44.52,14.68,44.47,29.61,56.59,29.7,71.65Z"/></g><g class="cls-38"><path class="cls-29" d="M114.13,68c.08,12.26-10.37,28.74-23.34,28.82S67.26,80.54,67.19,68.28,77.56,46,90.53,46,114.06,55.75,114.13,68Z"/></g><g class="cls-39"><path class="cls-29" d="M78.34,68C78.42,80.26,68,96.74,55,96.82S31.47,80.54,31.39,68.28,41.77,46,54.74,46,78.27,55.75,78.34,68Z"/></g></g></g></svg>