<svg xmlns="http://www.w3.org/2000/svg" xmlns:xlink="http://www.w3.org/1999/xlink" viewBox="0 0 800 1100"><defs><style>.cls-1{fill:url(#radial-gradient);}.cls-2{fill:url(#radial-gradient-2);}.cls-3{fill:url(#radial-gradient-3);}.cls-4{fill:url(#radial-gradient-4);}.cls-5{fill:none;}.cls-6{isolation:isolate;}.cls-7{fill:url(#linear-gradient);}.cls-47,.cls-8{fill:#9eb0c5;}.cls-102,.cls-103,.cls-105,.cls-106,.cls-110,.cls-113,.cls-13,.cls-15,.cls-17,.cls-19,.cls-23,.cls-25,.cls-26,.cls-28,.cls-32,.cls-34,.cls-36,.cls-37,.cls-39,.cls-41,.cls-43,.cls-44,.cls-47,.cls-50,.cls-52,.cls-53,.cls-54,.cls-60,.cls-62,.cls-63,.cls-64,.cls-68,.cls-71,.cls-72,.cls-77,.cls-78,.cls-79,.cls-8,.cls-80,.cls-81,.cls-82,.cls-84,.cls-85,.cls-87,.cls-88,.cls-89,.cls-92,.cls-97{mix-blend-mode:multiply;}.cls-70,.cls-8{opacity:0.7;}.cls-9{fill:url(#linear-gradient-2);}.cls-10{fill:url(#linear-gradient-3);}.cls-11{fill:url(#linear-gradient-4);}.cls-12{fill:url(#linear-gradient-5);}.cls-13{fill:url(#linear-gradient-6);}.cls-14{fill:url(#linear-gradient-7);}.cls-15{fill:url(#linear-gradient-8);}.cls-16{fill:url(#linear-gradient-9);}.cls-17{fill:url(#linear-gradient-10);}.cls-18{fill:url(#linear-gradient-11);}.cls-19{fill:url(#linear-gradient-12);}.cls-20{fill:url(#linear-gradient-13);}.cls-21{fill:url(#linear-gradient-14);}.cls-22{fill:url(#linear-gradient-15);}.cls-102,.cls-103,.cls-105,.cls-106,.cls-107,.cls-108,.cls-110,.cls-112,.cls-113,.cls-23,.cls-25,.cls-26,.cls-36,.cls-37,.cls-41,.cls-43,.cls-50,.cls-52,.cls-53,.cls-54,.cls-60,.cls-62,.cls-63,.cls-64,.cls-68,.cls-71,.cls-72,.cls-77,.cls-80,.cls-81,.cls-82,.cls-87,.cls-88,.cls-89,.cls-94,.cls-95{opacity:0.5;}.cls-23{fill:url(#linear-gradient-16);}.cls-24{fill:url(#linear-gradient-17);}.cls-25{fill:url(#linear-gradient-18);}.cls-26{fill:url(#linear-gradient-19);}.cls-27{fill:url(#linear-gradient-20);}.cls-28{opacity:0.4;}.cls-29{fill:#9ebcd6;}.cls-30{fill:url(#linear-gradient-21);}.cls-31{fill:url(#linear-gradient-22);}.cls-32{fill:url(#linear-gradient-23);}.cls-33{fill:url(#linear-gradient-24);}.cls-34{fill:url(#linear-gradient-25);}.cls-35{fill:url(#linear-gradient-26);}.cls-36{fill:url(#linear-gradient-27);}.cls-37{fill:url(#linear-gradient-28);}.cls-38{fill:url(#linear-gradient-29);}.cls-39{fill:url(#linear-gradient-30);}.cls-40{fill:url(#linear-gradient-31);}.cls-41{fill:url(#linear-gradient-32);}.cls-42{fill:url(#linear-gradient-33);}.cls-43{fill:url(#linear-gradient-34);}.cls-44{fill:#99a3ab;}.cls-44,.cls-47{opacity:0.3;}.cls-45{fill:url(#linear-gradient-35);}.cls-46{fill:url(#linear-gradient-36);}.cls-48{fill:url(#linear-gradient-37);}.cls-49{fill:url(#linear-gradient-38);}.cls-50{fill:url(#linear-gradient-39);}.cls-51{fill:url(#linear-gradient-40);}.cls-52{fill:url(#linear-gradient-41);}.cls-53{fill:url(#linear-gradient-42);}.cls-54{fill:url(#linear-gradient-43);}.cls-55{fill:url(#linear-gradient-44);}.cls-56{fill:url(#linear-gradient-45);}.cls-57{fill:url(#linear-gradient-46);}.cls-58{fill:url(#linear-gradient-47);}.cls-59{fill:url(#linear-gradient-48);}.cls-60{fill:url(#linear-gradient-49);}.cls-61{fill:url(#linear-gradient-50);}.cls-62{fill:url(#linear-gradient-51);}.cls-63{fill:url(#linear-gradient-52);}.cls-64{fill:url(#linear-gradient-53);}.cls-65{fill:url(#linear-gradient-54);}.cls-66{fill:url(#linear-gradient-55);}.cls-67{fill:url(#linear-gradient-56);}.cls-68{fill:url(#linear-gradient-57);}.cls-69,.cls-70{fill:url(#linear-gradient-58);}.cls-112,.cls-70,.cls-94,.cls-95,.cls-99{mix-blend-mode:screen;}.cls-71{fill:url(#linear-gradient-60);}.cls-72{fill:url(#linear-gradient-61);}.cls-73{fill:url(#linear-gradient-62);}.cls-74{fill:url(#linear-gradient-63);}.cls-75{fill:url(#linear-gradient-64);}.cls-76{fill:url(#linear-gradient-65);}.cls-77{fill:url(#linear-gradient-66);}.cls-78,.cls-79{opacity:0.2;}.cls-78{fill:url(#linear-gradient-67);}.cls-79{fill:url(#linear-gradient-68);}.cls-80{fill:url(#linear-gradient-69);}.cls-81{fill:url(#linear-gradient-70);}.cls-82{fill:url(#linear-gradient-71);}.cls-83,.cls-96{fill:#fff;}.cls-83{opacity:0.8;}.cls-84{fill:url(#radial-gradient-5);}.cls-85{fill:url(#radial-gradient-6);}.cls-86{fill:url(#linear-gradient-72);}.cls-87{fill:url(#linear-gradient-73);}.cls-88{fill:url(#linear-gradient-74);}.cls-89{fill:url(#linear-gradient-75);}.cls-90{fill:url(#linear-gradient-76);}.cls-91{fill:#2c2a46;}.cls-92{fill:url(#White_Black);}.cls-107,.cls-93{fill:#00a99d;}.cls-94{fill:url(#linear-gradient-77);}.cls-97{opacity:0.6;}.cls-98{fill:#002d73;}.cls-99{opacity:0.1;fill:url(#linear-gradient-78);}.cls-100{clip-path:url(#clip-path);}.cls-101{fill:url(#linear-gradient-79);}.cls-102{fill:url(#linear-gradient-80);}.cls-103{fill:url(#linear-gradient-81);}.cls-104,.cls-105{fill:url(#linear-gradient-82);}.cls-106{fill:url(#linear-gradient-84);}.cls-109{fill:url(#linear-gradient-85);}.cls-110{fill:url(#linear-gradient-86);}.cls-111,.cls-112{fill:url(#linear-gradient-87);}.cls-113{fill:url(#linear-gradient-89);}.cls-114{mask:url(#mask);}.cls-115{mask:url(#mask-2);}.cls-116{mask:url(#mask-3);}.cls-117{mask:url(#mask-4);}.cls-118{fill:#f5f5f5;}</style><radialGradient id="radial-gradient" cx="34599.48" cy="-16211.81" r="279.97" gradientTransform="matrix(0.16, 0, 0, 0.3, -5026.02, 5143.14)" gradientUnits="userSpaceOnUse"><stop offset="0.15" stop-color="#fff"/><stop offset="0.2" stop-color="#dadada"/><stop offset="0.28" stop-color="#a8a8a8"/><stop offset="0.37" stop-color="#7b7b7b"/><stop offset="0.46" stop-color="#555"/><stop offset="0.55" stop-color="#363636"/><stop offset="0.65" stop-color="#1e1e1e"/><stop offset="0.75" stop-color="#0d0d0d"/><stop offset="0.86" stop-color="#030303"/><stop offset="1"/></radialGradient><radialGradient id="radial-gradient-2" cx="32445.61" cy="-16218.97" r="279.96" xlink:href="#radial-gradient"/><radialGradient id="radial-gradient-3" cx="30754.91" cy="-21174.37" r="279.97" gradientTransform="matrix(0.26, 0, 0, 0.24, -7434.19, 5450.05)" xlink:href="#radial-gradient"/><radialGradient id="radial-gradient-4" cx="30327.96" cy="-21176.99" r="279.98" gradientTransform="matrix(0.26, 0, 0, 0.24, -7434.19, 5450.05)" xlink:href="#radial-gradient"/><linearGradient id="linear-gradient" x1="10426.17" y1="971.11" x2="10458.37" y2="971.11" gradientTransform="matrix(0.69, -0.72, -0.72, -0.69, -6303.41, 8733.89)" gradientUnits="userSpaceOnUse"><stop offset="0" stop-color="#323d57"/><stop offset="0.34" stop-color="#2c364e"/><stop offset="0.88" stop-color="#1b2336"/><stop offset="1" stop-color="#171e30"/></linearGradient><linearGradient id="linear-gradient-2" x1="10426.68" y1="1046.78" x2="10458.89" y2="1046.78" xlink:href="#linear-gradient"/><linearGradient id="linear-gradient-3" x1="9938.73" y1="1102.28" x2="9961.17" y2="1102.28" gradientTransform="matrix(0.69, -0.72, -0.79, -0.64, -5819.21, 8385.74)" xlink:href="#linear-gradient"/><linearGradient id="linear-gradient-4" x1="-1264.93" y1="2741.39" x2="-1236.51" y2="2741.39" gradientTransform="matrix(0.66, -0.75, -0.75, -0.66, 3035.83, 1349.2)" xlink:href="#linear-gradient"/><linearGradient id="linear-gradient-5" x1="-782.24" y1="2653.62" x2="-753.81" y2="2653.62" gradientTransform="matrix(0.73, -0.68, -0.68, -0.73, 2521, 1872.86)" xlink:href="#linear-gradient"/><linearGradient id="linear-gradient-6" x1="-778.68" y1="2659.87" x2="-764.17" y2="2651.37" gradientTransform="matrix(0.73, -0.68, -0.68, -0.73, 2521, 1872.86)" gradientUnits="userSpaceOnUse"><stop offset="0" stop-color="#f3f6fa"/><stop offset="0.19" stop-color="#eaeff6"/><stop offset="0.48" stop-color="#d2ddea"/><stop offset="0.86" stop-color="#abc0d7"/><stop offset="1" stop-color="#9bb4cf"/></linearGradient><linearGradient id="linear-gradient-7" x1="-771.79" y1="2659.74" x2="-743.36" y2="2659.74" gradientTransform="matrix(0.73, -0.68, -0.68, -0.73, 2521, 1872.86)" xlink:href="#linear-gradient"/><linearGradient id="linear-gradient-8" x1="-767.49" y1="2661.99" x2="-751.97" y2="2658.48" xlink:href="#linear-gradient-6"/><linearGradient id="linear-gradient-9" x1="-786.74" y1="2624.12" x2="-752.37" y2="2624.12" gradientTransform="matrix(0.73, -0.68, -0.68, -0.73, 2521, 1872.86)" gradientUnits="userSpaceOnUse"><stop offset="0" stop-color="#f3f6fa"/><stop offset="0.19" stop-color="#edf2f7"/><stop offset="0.42" stop-color="#dee6f0"/><stop offset="0.69" stop-color="#c3d2e3"/><stop offset="0.97" stop-color="#9fb7d1"/><stop offset="1" stop-color="#9bb4cf"/></linearGradient><linearGradient id="linear-gradient-10" x1="-776.79" y1="2625.93" x2="-747.76" y2="2629.43" xlink:href="#linear-gradient-6"/><linearGradient id="linear-gradient-11" x1="-763.1" y1="2649" x2="-734.04" y2="2649" gradientTransform="matrix(0.73, -0.68, -0.68, -0.73, 2521, 1872.86)" xlink:href="#linear-gradient"/><linearGradient id="linear-gradient-12" x1="-763.1" y1="2649" x2="-734.04" y2="2649" xlink:href="#linear-gradient-6"/><linearGradient id="linear-gradient-13" x1="1795.85" y1="1064.59" x2="1828.04" y2="1064.59" gradientTransform="matrix(0.98, -0.2, 0.2, 0.98, -1392.45, -134.57)" xlink:href="#linear-gradient"/><linearGradient id="linear-gradient-14" x1="1796.36" y1="1140.25" x2="1828.55" y2="1140.25" gradientTransform="matrix(0.98, -0.2, 0.2, 0.98, -1392.45, -134.57)" xlink:href="#linear-gradient"/><linearGradient id="linear-gradient-15" x1="1796.15" y1="1024.22" x2="1828.49" y2="1024.22" gradientTransform="matrix(0.98, -0.2, 0.2, 0.98, -1392.45, -134.57)" xlink:href="#linear-gradient-6"/><linearGradient id="linear-gradient-16" x1="1796.15" y1="1024.22" x2="1828.49" y2="1024.22" gradientTransform="matrix(0.98, -0.2, 0.2, 0.98, -1392.45, -134.57)" xlink:href="#linear-gradient-6"/><linearGradient id="linear-gradient-17" x1="1785.44" y1="968" x2="1838.46" y2="968" gradientTransform="matrix(0.98, -0.2, 0.2, 0.98, -1392.45, -134.57)" xlink:href="#linear-gradient-6"/><linearGradient id="linear-gradient-18" x1="577.14" y1="471.19" x2="573.02" y2="447.03" gradientTransform="matrix(1, 0, 0, 1, 0, 0)" xlink:href="#linear-gradient-6"/><linearGradient id="linear-gradient-19" x1="1785.44" y1="968" x2="1838.46" y2="968" gradientTransform="matrix(0.98, -0.2, 0.2, 0.98, -1392.45, -134.57)" xlink:href="#linear-gradient-6"/><linearGradient id="linear-gradient-20" x1="1316.17" y1="1194.5" x2="1338.62" y2="1194.5" gradientTransform="matrix(0.98, -0.2, 0.12, 1.01, -838.97, -356.76)" xlink:href="#linear-gradient"/><linearGradient id="linear-gradient-21" x1="-2192.98" y1="682.39" x2="-2164.55" y2="682.39" gradientTransform="matrix(-0.95, 0.3, 0.3, 0.95, -1665.89, 657.78)" gradientUnits="userSpaceOnUse"><stop offset="0" stop-color="#171e30"/><stop offset="0.12" stop-color="#1b2336"/><stop offset="0.66" stop-color="#2c364e"/><stop offset="1" stop-color="#323d57"/></linearGradient><linearGradient id="linear-gradient-22" x1="-1509.59" y1="515.3" x2="-1481.17" y2="515.3" gradientTransform="matrix(-0.98, 0.21, 0.21, 0.98, -956.63, 470)" xlink:href="#linear-gradient-21"/><linearGradient id="linear-gradient-23" x1="-1509.59" y1="509.18" x2="-1481.16" y2="509.18" gradientTransform="matrix(-0.98, 0.21, 0.21, 0.98, -956.63, 470)" xlink:href="#linear-gradient-6"/><linearGradient id="linear-gradient-24" x1="-1499.14" y1="521.43" x2="-1470.72" y2="521.43" gradientTransform="matrix(-0.98, 0.21, 0.21, 0.98, -956.63, 470)" xlink:href="#linear-gradient-21"/><linearGradient id="linear-gradient-25" x1="1886.89" y1="519.94" x2="1899.99" y2="524.5" gradientTransform="matrix(0.98, -0.21, 0.21, 0.98, -1351.37, 556.4)" xlink:href="#linear-gradient-6"/><linearGradient id="linear-gradient-26" x1="1881.11" y1="485.73" x2="1921.14" y2="485" gradientTransform="matrix(0.98, -0.21, 0.21, 0.98, -1351.37, 556.4)" xlink:href="#linear-gradient-9"/><linearGradient id="linear-gradient-27" x1="1881.11" y1="485.78" x2="1921.14" y2="485.05" gradientTransform="matrix(0.98, -0.21, 0.21, 0.98, -1351.37, 556.4)" xlink:href="#linear-gradient-6"/><linearGradient id="linear-gradient-28" x1="1881.09" y1="484.83" x2="1921.12" y2="484.11" gradientTransform="matrix(0.98, -0.21, 0.21, 0.98, -1351.37, 556.4)" xlink:href="#linear-gradient-6"/><linearGradient id="linear-gradient-29" x1="-1490.45" y1="510.69" x2="-1461.39" y2="510.69" gradientTransform="matrix(-0.98, 0.21, 0.21, 0.98, -956.63, 470)" xlink:href="#linear-gradient-21"/><linearGradient id="linear-gradient-30" x1="-1490.45" y1="510.66" x2="-1461.39" y2="510.66" gradientTransform="matrix(-0.98, 0.21, 0.21, 0.98, -956.63, 470)" xlink:href="#linear-gradient-6"/><linearGradient id="linear-gradient-31" x1="-4150.7" y1="-2643.11" x2="-4118.64" y2="-2643.11" gradientTransform="matrix(0.64, 0.77, -0.77, 0.64, 884.13, 5361.78)" xlink:href="#linear-gradient-6"/><linearGradient id="linear-gradient-32" x1="-4150.97" y1="-2642.54" x2="-4118.64" y2="-2642.54" gradientTransform="matrix(0.64, 0.77, -0.77, 0.64, 884.13, 5361.78)" xlink:href="#linear-gradient-6"/><linearGradient id="linear-gradient-33" x1="-469.79" y1="-3115.5" x2="-416.76" y2="-3115.5" gradientTransform="translate(-809.47 3404.45) rotate(28.76)" xlink:href="#linear-gradient-6"/><linearGradient id="linear-gradient-34" x1="-469.79" y1="-3115.5" x2="-416.76" y2="-3115.5" gradientTransform="translate(-809.47 3404.45) rotate(28.76)" xlink:href="#linear-gradient-6"/><linearGradient id="linear-gradient-35" x1="501.86" y1="902.18" x2="505.07" y2="882.39" gradientTransform="matrix(1, 0, 0, 1, 0, 0)" xlink:href="#linear-gradient"/><linearGradient id="linear-gradient-36" x1="495.6" y1="692.8" x2="514.37" y2="692.8" gradientTransform="matrix(1, 0, 0, 1, 0, 0)" xlink:href="#linear-gradient"/><linearGradient id="linear-gradient-37" x1="477.31" y1="639.3" x2="526.86" y2="639.3" gradientTransform="matrix(1, 0, 0, 1, 0, 0)" xlink:href="#linear-gradient"/><linearGradient id="linear-gradient-38" x1="490.69" y1="733.67" x2="517.02" y2="760" gradientTransform="matrix(1, 0, 0, 1, 0, 0)" xlink:href="#linear-gradient-9"/><linearGradient id="linear-gradient-39" x1="490.69" y1="733.67" x2="517.02" y2="760" gradientTransform="matrix(1, 0, 0, 1, 0, 0)" xlink:href="#linear-gradient-6"/><linearGradient id="linear-gradient-40" x1="448.62" y1="789.04" x2="547.35" y2="887.77" gradientTransform="matrix(1, 0, 0, 1, 0, 0)" xlink:href="#linear-gradient-9"/><linearGradient id="linear-gradient-41" x1="512.51" y1="823.46" x2="547.37" y2="823.99" gradientTransform="matrix(1, 0, 0, 1, 0, 0)" xlink:href="#linear-gradient-6"/><linearGradient id="linear-gradient-42" x1="442.6" y1="795.05" x2="541.33" y2="893.78" gradientTransform="matrix(1, 0, 0, 1, 0, 0)" xlink:href="#linear-gradient-6"/><linearGradient id="linear-gradient-43" x1="466.9" y1="770.75" x2="565.64" y2="869.48" gradientTransform="matrix(1, 0, 0, 1, 0, 0)" xlink:href="#linear-gradient-6"/><linearGradient id="linear-gradient-44" x1="474.39" y1="887.68" x2="545.36" y2="958.64" gradientTransform="matrix(1, 0, 0, 1, 0, 0)" xlink:href="#linear-gradient"/><linearGradient id="linear-gradient-45" x1="-2443.41" y1="902.18" x2="-2440.2" y2="882.39" gradientTransform="matrix(1, 0, 0, -1, 2828.95, 1783.24)" xlink:href="#linear-gradient"/><linearGradient id="linear-gradient-46" x1="-2449.67" y1="692.8" x2="-2430.92" y2="692.8" gradientTransform="matrix(1, 0, 0, -1, 2826.14, 1385.61)" xlink:href="#linear-gradient"/><linearGradient id="linear-gradient-47" x1="-2467.97" y1="639.3" x2="-2418.43" y2="639.3" gradientTransform="matrix(-1, 0, 0, 1, -2054.45, 0)" xlink:href="#linear-gradient"/><linearGradient id="linear-gradient-48" x1="-2454.59" y1="733.67" x2="-2428.26" y2="760" gradientTransform="matrix(-1, 0, 0, 1, -2054.45, 0)" xlink:href="#linear-gradient-9"/><linearGradient id="linear-gradient-49" x1="-2454.59" y1="733.67" x2="-2428.26" y2="760" gradientTransform="matrix(-1, 0, 0, 1, -2054.45, 0)" xlink:href="#linear-gradient-6"/><linearGradient id="linear-gradient-50" x1="-2496.67" y1="789.04" x2="-2397.94" y2="887.76" gradientTransform="matrix(-1, 0, 0, 1, -2054.45, 0)" xlink:href="#linear-gradient-9"/><linearGradient id="linear-gradient-51" x1="-2432.77" y1="823.46" x2="-2397.9" y2="823.99" gradientTransform="matrix(-1, 0, 0, 1, -2054.45, 0)" xlink:href="#linear-gradient-6"/><linearGradient id="linear-gradient-52" x1="-2502.67" y1="795.05" x2="-2403.95" y2="893.78" gradientTransform="matrix(-1, 0, 0, 1, -2054.45, 0)" xlink:href="#linear-gradient-6"/><linearGradient id="linear-gradient-53" x1="-2478.37" y1="770.75" x2="-2379.65" y2="869.47" gradientTransform="matrix(-1, 0, 0, 1, -2054.45, 0)" xlink:href="#linear-gradient-6"/><linearGradient id="linear-gradient-54" x1="-2470.89" y1="887.67" x2="-2399.92" y2="958.64" gradientTransform="matrix(-1, 0, 0, 1, -2054.45, 0)" xlink:href="#linear-gradient"/><linearGradient id="linear-gradient-55" x1="410.1" y1="618.32" x2="478.87" y2="666.32" gradientTransform="matrix(1, 0, 0, 1, 0, 0)" xlink:href="#linear-gradient-21"/><linearGradient id="linear-gradient-56" x1="399.89" y1="588.05" x2="490.73" y2="651.45" gradientTransform="matrix(1, 0, 0, 1, 0, 0)" xlink:href="#linear-gradient-6"/><linearGradient id="linear-gradient-57" x1="457.32" y1="628.43" x2="484.76" y2="654.64" gradientTransform="matrix(1, 0, 0, 1, 0, 0)" xlink:href="#linear-gradient-6"/><linearGradient id="linear-gradient-58" x1="369.56" y1="596.82" x2="506.74" y2="596.82" gradientTransform="matrix(1, 0, 0, 1, 0, 0)" xlink:href="#linear-gradient-6"/><linearGradient id="linear-gradient-60" x1="438.31" y1="602.53" x2="458.21" y2="571.1" gradientTransform="matrix(1, 0, 0, 1, 0, 0)" xlink:href="#linear-gradient-6"/><linearGradient id="linear-gradient-61" x1="329.97" y1="594.65" x2="503.91" y2="594.65" gradientTransform="matrix(1, 0, 0, 1, 0, 0)" xlink:href="#linear-gradient-6"/><linearGradient id="linear-gradient-62" x1="440.07" y1="488.41" x2="440.07" y2="607.26" gradientTransform="matrix(1, 0, 0, 1, 0, 0)" xlink:href="#linear-gradient"/><linearGradient id="linear-gradient-63" x1="381.74" y1="380.78" x2="472.37" y2="440.34" gradientTransform="matrix(1, 0, 0, 1, 0, 0)" xlink:href="#linear-gradient"/><linearGradient id="linear-gradient-64" x1="407.52" y1="361.85" x2="466.06" y2="361.85" gradientTransform="matrix(1, 0, 0, 1, 0, 0)" xlink:href="#linear-gradient"/><linearGradient id="linear-gradient-65" x1="438.88" y1="378.06" x2="438.88" y2="556.72" gradientTransform="matrix(1, 0, 0, 1, 0, 0)" xlink:href="#linear-gradient-6"/><linearGradient id="linear-gradient-66" x1="544.18" y1="378.06" x2="544.18" y2="556.72" gradientTransform="matrix(1, 0, 0, 1, 0, 0)" xlink:href="#linear-gradient-6"/><linearGradient id="linear-gradient-67" x1="335.65" y1="378.05" x2="335.65" y2="556.72" gradientTransform="matrix(1, 0, 0, 1, 0, 0)" xlink:href="#linear-gradient-6"/><linearGradient id="linear-gradient-68" x1="345.34" y1="416.45" x2="305.21" y2="554.98" gradientTransform="matrix(1, 0, 0, 1, 0, 0)" xlink:href="#linear-gradient-6"/><linearGradient id="linear-gradient-69" x1="402.64" y1="445.4" x2="535.66" y2="520.3" gradientTransform="matrix(1, 0, 0, 1, 0, 0)" xlink:href="#linear-gradient-6"/><linearGradient id="linear-gradient-70" x1="503.12" y1="442.13" x2="556.2" y2="497.8" gradientTransform="matrix(1, 0, 0, 1, 0, 0)" xlink:href="#linear-gradient-6"/><linearGradient id="linear-gradient-71" x1="441.42" y1="447.95" x2="441.42" y2="604.07" gradientTransform="matrix(1, 0, 0, 1, 0, 0)" xlink:href="#linear-gradient-6"/><radialGradient id="radial-gradient-5" cx="830.42" cy="-20521.39" r="91.28" gradientTransform="matrix(0.93, 0.04, -0.01, 0.23, -464.89, 5671.98)" gradientUnits="userSpaceOnUse"><stop offset="0" stop-color="#627487"/><stop offset="0.14" stop-color="#8795a3"/><stop offset="0.34" stop-color="#b2bbc4"/><stop offset="0.52" stop-color="#d3d8de"/><stop offset="0.7" stop-color="#ebeef0"/><stop offset="0.86" stop-color="#fafbfb"/><stop offset="1" stop-color="#fff"/></radialGradient><radialGradient id="radial-gradient-6" cx="696.57" cy="-20498.51" r="91.28" xlink:href="#radial-gradient-5"/><linearGradient id="linear-gradient-72" x1="318.84" y1="156.07" x2="566.86" y2="320.08" gradientTransform="matrix(1, 0, 0, 1, 0, 0)" xlink:href="#linear-gradient-6"/><linearGradient id="linear-gradient-73" x1="436.2" y1="210.83" x2="436.2" y2="370.6" gradientTransform="matrix(1, 0, 0, 1, 0, 0)" xlink:href="#linear-gradient-6"/><linearGradient id="linear-gradient-74" x1="444.48" y1="267.98" x2="468.98" y2="369.25" gradientTransform="matrix(1, 0, 0, 1, 0, 0)" xlink:href="#linear-gradient-6"/><linearGradient id="linear-gradient-75" x1="498.85" y1="275.45" x2="559.08" y2="315.03" gradientTransform="matrix(1, 0, 0, 1, 0, 0)" xlink:href="#linear-gradient-6"/><linearGradient id="linear-gradient-76" x1="436.21" y1="270.39" x2="436.21" y2="207.19" gradientTransform="translate(210.69 661.72) rotate(-90)" xlink:href="#linear-gradient-6"/><linearGradient id="White_Black" x1="336.62" y1="225.52" x2="535.78" y2="225.52" gradientUnits="userSpaceOnUse"><stop offset="0" stop-color="#fff"/><stop offset="1"/></linearGradient><linearGradient id="linear-gradient-77" x1="436.2" y1="200.4" x2="436.2" y2="238.75" gradientUnits="userSpaceOnUse"><stop offset="0" stop-color="#2adeff"/><stop offset="0.06" stop-color="#29cfef"/><stop offset="0.31" stop-color="#2291ac"/><stop offset="0.54" stop-color="#1d5f77"/><stop offset="0.74" stop-color="#1a3c50"/><stop offset="0.9" stop-color="#182639"/><stop offset="1" stop-color="#171e30"/></linearGradient><linearGradient id="linear-gradient-78" x1="436.38" y1="191.57" x2="436.38" y2="282.45" gradientUnits="userSpaceOnUse"><stop offset="0" stop-color="#2adeff"/><stop offset="0.1" stop-color="#29d6f6"/><stop offset="0.26" stop-color="#27bfde"/><stop offset="0.46" stop-color="#239bb7"/><stop offset="0.7" stop-color="#1e6980"/><stop offset="0.96" stop-color="#18293c"/><stop offset="1" stop-color="#171e30"/></linearGradient><clipPath id="clip-path"><path class="cls-5" d="M375,262.22a35.75,35.75,0,0,1-35.7-35.71v-2A35.75,35.75,0,0,1,375,188.81H497.44a35.75,35.75,0,0,1,35.71,35.71v2a35.75,35.75,0,0,1-35.71,35.71Z"/></clipPath><linearGradient id="linear-gradient-79" x1="565.48" y1="141.61" x2="610.65" y2="282.8" gradientTransform="matrix(1, 0, 0, 1, 0, 0)" xlink:href="#linear-gradient-6"/><linearGradient id="linear-gradient-80" x1="600.26" y1="221.45" x2="576.58" y2="281.3" gradientTransform="matrix(1, 0, 0, 1, 0, 0)" xlink:href="#linear-gradient-6"/><linearGradient id="linear-gradient-81" x1="596.85" y1="220.1" x2="573.17" y2="279.95" gradientTransform="matrix(1, 0, 0, 1, 0, 0)" xlink:href="#linear-gradient-6"/><linearGradient id="linear-gradient-82" x1="536.77" y1="214.81" x2="618.77" y2="236.74" gradientTransform="matrix(1, 0, 0, 1, 0, 0)" xlink:href="#linear-gradient-6"/><linearGradient id="linear-gradient-84" x1="608.19" y1="233.9" x2="626.6" y2="239.6" gradientTransform="matrix(1, 0, 0, 1, 0, 0)" xlink:href="#linear-gradient-6"/><linearGradient id="linear-gradient-85" x1="258.31" y1="188" x2="324.74" y2="334.33" gradientTransform="matrix(1, 0, 0, 1, 0, 0)" xlink:href="#linear-gradient-6"/><linearGradient id="linear-gradient-86" x1="-2531.55" y1="221.45" x2="-2555.23" y2="281.3" gradientTransform="matrix(-1, 0, 0, 1, -2257.32, 0)" xlink:href="#linear-gradient-6"/><linearGradient id="linear-gradient-87" x1="-2595.03" y1="214.82" x2="-2513.04" y2="236.74" gradientTransform="matrix(-1, 0, 0, 1, -2257.32, 0)" xlink:href="#linear-gradient-6"/><linearGradient id="linear-gradient-89" x1="-2523.62" y1="233.9" x2="-2505.21" y2="239.6" gradientTransform="matrix(-1, 0, 0, 1, -2257.32, 0)" xlink:href="#linear-gradient-6"/><mask id="mask" x="566.33" y="149.47" width="91.73" height="168.36" maskUnits="userSpaceOnUse"><path class="cls-1" d="M658.06,233.37c.26,46.5-20,84.31-45.36,84.46s-46.09-37.41-46.37-83.91,20-84.3,45.36-84.45S657.77,186.88,658.06,233.37Z"/></mask><mask id="mask-2" x="213.51" y="149.47" width="91.72" height="168.36" maskUnits="userSpaceOnUse"><path class="cls-2" d="M305.23,233.37c.28,46.5-20,84.31-45.35,84.46s-46.08-37.41-46.36-83.91,20-84.3,45.35-84.45S305,186.88,305.23,233.37Z"/></mask><mask id="mask-3" x="420.95" y="154.05" width="144.93" height="157.04" maskUnits="userSpaceOnUse"><path class="cls-3" d="M565.88,222.12c.24,37.83-32,68.7-72.05,68.93S421.18,260.82,421,223s32-68.7,72.06-68.94S565.67,184.29,565.88,222.12Z"/></mask><mask id="mask-4" x="310.45" y="154.05" width="144.94" height="157.04" maskUnits="userSpaceOnUse"><path class="cls-4" d="M455.39,222.12c.23,37.83-32,68.7-72.06,68.93S310.68,260.82,310.45,223s32-68.7,72.06-68.94S455.17,184.29,455.39,222.12Z"/></mask></defs><g class="cls-6"><g id="Layer_1" data-name="Layer 1"><path class="cls-7" d="M232.73,512a16.1,16.1,0,1,0,.49,22.76A16.09,16.09,0,0,0,232.73,512Z"/><path class="cls-8" d="M232.73,512a16.1,16.1,0,1,0,.49,22.76A16.09,16.09,0,0,0,232.73,512Zm-3.8,17.73a11.75,11.75,0,0,1-3.54,5.59,6.64,6.64,0,0,1-6.2,1.3,4.65,4.65,0,0,1-3-.42,10.13,10.13,0,0,1-5.72-7.21,12.23,12.23,0,0,1,.81-7.24c2.35-5.25,9.23-8.63,14.39-5C229.85,519.65,230.23,525.25,228.93,529.71Z"/><path class="cls-9" d="M178.47,459.24A16.1,16.1,0,1,0,179,482,16.1,16.1,0,0,0,178.47,459.24Z"/><polygon class="cls-10" points="205.97 522.51 222 506.72 177.46 470.63 167.62 481.84 205.97 522.51"/><path class="cls-8" d="M190,500.41c4.41,4,8.63,8.13,13.28,11.86,2.4,1.92,4.85,3.81,7.05,5.94l-4.38,4.3-38.34-40.67,1.1-1.25C175.94,487.08,182.79,493.91,190,500.41Z"/><path class="cls-8" d="M219.3,509.39c-5.57-5.87-12.54-10.68-18.43-16-8.09-7.3-15.77-15-23.92-22.19l.51-.57L222,506.72Z"/><path class="cls-11" d="M159.29,487.83l-14.73-18.41a5.48,5.48,0,0,1-1.06-2.08l-3.9-14.52a5.73,5.73,0,0,1,0-2.82l1.27-5.26a5.71,5.71,0,0,1,7.34-4.06h0a5.71,5.71,0,0,1,3.84,6.24l-.67,4.52a5.7,5.7,0,0,0,.58,3.46l4.83,9.27a5.51,5.51,0,0,0,.94,1.31l10.2,10.66a5.78,5.78,0,0,1,1.58,3.68l.2,4.35a5.7,5.7,0,0,1-9,4.93l-.23-.17A5.86,5.86,0,0,1,159.29,487.83Z"/><path class="cls-12" d="M153.49,475.76,140.58,456a5.73,5.73,0,0,1-.85-2.17L137.23,439a5.71,5.71,0,0,1,.23-2.81l1.78-5.11a5.68,5.68,0,0,1,7.68-3.35h0a5.71,5.71,0,0,1,3.23,6.58l-1.1,4.43a5.7,5.7,0,0,0,.25,3.51l3.91,9.69a6,6,0,0,0,.81,1.39l9.14,11.59a5.67,5.67,0,0,1,1.22,3.82l-.22,4.35a5.7,5.7,0,0,1-9.4,4l-.21-.18A6.1,6.1,0,0,1,153.49,475.76Z"/><path class="cls-13" d="M150.15,434.33l-1.1,4.43a5.7,5.7,0,0,0,.25,3.51l3.91,9.69a6,6,0,0,0,.81,1.39l9.14,11.59a5.67,5.67,0,0,1,1.22,3.82l-.22,4.35a5.7,5.7,0,0,1-9.4,4l-.21-.18a6.1,6.1,0,0,1-1.06-1.21l-7.15-10.93a11.35,11.35,0,0,0-2.85-9.21c-1.45-1.7-2.9-3.42-4.33-5.14L137.23,439a5.59,5.59,0,0,1,.24-2.81l1.77-5.11a5.69,5.69,0,0,1,10.91,3.23Z"/><path class="cls-14" d="M157,464.16l-12.91-19.74a5.66,5.66,0,0,1-.85-2.17l-2.5-14.83a5.71,5.71,0,0,1,.23-2.81l1.77-5.11a5.71,5.71,0,0,1,7.69-3.35h0a5.71,5.71,0,0,1,3.23,6.58l-1.1,4.43a5.71,5.71,0,0,0,.25,3.51l3.91,9.69a6,6,0,0,0,.81,1.39l9.14,11.59a5.67,5.67,0,0,1,1.22,3.82l-.22,4.35a5.7,5.7,0,0,1-9.39,4l-.22-.19A5.5,5.5,0,0,1,157,464.16Z"/><path class="cls-15" d="M153.63,422.73l-1.1,4.43a5.71,5.71,0,0,0,.25,3.51l3.91,9.69a6,6,0,0,0,.81,1.39l9.14,11.59a5.67,5.67,0,0,1,1.22,3.82l-.22,4.35a5.7,5.7,0,0,1-9.39,4l-.22-.19a5.5,5.5,0,0,1-1.06-1.2l-4.19-6.41a12,12,0,0,0-1.46-12.83c-1.45-1.86-1.92-4.59-2.88-6.72a48.9,48.9,0,0,0-4.46-7.58c-1.06-1.53-2.17-3-3.32-4.38a5.57,5.57,0,0,1,.28-1.63l1.77-5.11a5.7,5.7,0,0,1,10.92,3.23Z"/><path class="cls-16" d="M174.47,505.05l14.75-34.6s-20.8-23.06-27.6-19.72c-1.59.78-3.28,4.85-3.38,8,0,.7.33,5.46-.79,6.72.34,1.8,3.66,9,3.09,13-.54,3.84-4.52,6-4.52,6Z"/><path class="cls-17" d="M179.73,492.71a11,11,0,0,0-2.87-10,151.67,151.67,0,0,0-19.41-17.76c.71-7.35,2-14.12,4.17-14.77,5-1.46,27.6,20.31,27.6,20.31Z"/><path class="cls-18" d="M180.76,461.12l.06-17.85a5.43,5.43,0,0,0-.64-2.59l-8.07-15.29a5.59,5.59,0,0,0-1.6-1.85l-4.4-3.25a5.5,5.5,0,0,0-7.57,1l-.23.29a5.49,5.49,0,0,0-.22,6.51l4.79,7a5.5,5.5,0,0,1,.81,4.37l-2.85,12.12a5.43,5.43,0,0,0,.84,4.41c2.07,3,6.33,8.21,11.65,10.27A5.5,5.5,0,0,0,180.76,461.12Z"/><path class="cls-19" d="M172.11,425.39l8.07,15.29a5.43,5.43,0,0,1,.64,2.59l-.06,17.85a5.5,5.5,0,0,1-7.43,5.15A17,17,0,0,1,170,464.5a11.07,11.07,0,0,0,4.1-6.24c2.87-10.56-1.27-19.18-7.48-26.82a13.54,13.54,0,0,0-5.5-7.08c-.84-1-1.69-2.08-2.57-3.09a5.49,5.49,0,0,1,7.54-1l4.4,3.25A5.59,5.59,0,0,1,172.11,425.39Z"/><path class="cls-20" d="M609.59,548.84a16.1,16.1,0,1,1-19-12.61A16.09,16.09,0,0,1,609.59,548.84Z"/><path class="cls-8" d="M590.64,536.23a16.1,16.1,0,1,0,19,12.61A16.11,16.11,0,0,0,590.64,536.23Zm11.19,16c.28,6.29-6.25,10.29-11.94,9.46a12.2,12.2,0,0,1-6.56-3.2,10.13,10.13,0,0,1-3-8.69,4.7,4.7,0,0,1,1.22-2.73,6.7,6.7,0,0,1,4.43-4.54,11.79,11.79,0,0,1,6.61,0C597.06,543.84,601.57,547.16,601.83,552.23Z"/><path class="cls-21" d="M625,622.93a16.1,16.1,0,1,1-19-12.62A16.08,16.08,0,0,1,625,622.93Z"/><path class="cls-22" d="M609.21,544.66s-7-4.39-17.45-2.29S577.5,551,577.5,551l-14.26-71,31.69-6.37Z"/><path class="cls-23" d="M563.24,480.07l.62,3.14.81.32c11.57,5.09,19.49,16,23.79,27.45,3.71,9.9,2.64,22.92-1.46,32.8a27.41,27.41,0,0,1,4.76-1.41c10.44-2.1,17.45,2.29,17.45,2.29l-14.28-71Z"/><path class="cls-24" d="M548.79,462.54a26.51,26.51,0,1,0,20.76-31.22A26.5,26.5,0,0,0,548.79,462.54Z"/><path class="cls-25" d="M573.49,461.36c11,0,17.58,6.72,19.89,14.84a26.5,26.5,0,1,0-39.08-2C557.1,467,563.48,461.36,573.49,461.36Z"/><path class="cls-26" d="M569.55,431.32a26.47,26.47,0,0,0-11,5c.28-.07.52-.16.81-.22,10.69-2.15,21.67,1.55,25.37,12.9,3.08,9.47-2.23,23.22-12.9,25.36-7.72,1.55-15.58.05-20.73-5.18a26.5,26.5,0,1,0,18.43-37.9Z"/><polygon class="cls-27" points="586.35 565.79 608.28 560.72 614.86 617.67 600.12 619.97 586.35 565.79"/><path class="cls-8" d="M596.45,591.11c-1-5.85-2.23-11.65-2.89-17.57-.33-3-.61-6.14-1.23-9.14l-6,1.39L600.12,620l1.65-.26C600.16,610.14,598.07,600.68,596.45,591.11Z"/><path class="cls-8" d="M604.57,561.57c2,7.84,2.3,16.31,3.63,24.14,1.83,10.74,4.17,21.33,5.91,32.08l.75-.12-6.58-56.95Z"/><g class="cls-28"><path class="cls-29" d="M577,547.65a25,25,0,0,1,6.06-6.22,21.14,21.14,0,0,1,8.06-3.53,24.17,24.17,0,0,1,8.77-.12,32.4,32.4,0,0,1,8.28,2.59c-5.58-1.35-11.29-2.24-16.77-1.08a24.22,24.22,0,0,0-7.73,3.06A38.16,38.16,0,0,0,577,547.65Z"/></g><path class="cls-30" d="M625.19,622.59l3.28,23.35a5.73,5.73,0,0,1-.15,2.33l-4.05,14.48a5.66,5.66,0,0,1-1.41,2.44l-3.78,3.87a5.69,5.69,0,0,1-8.38-.24h0a5.71,5.71,0,0,1-.12-7.33l2.88-3.54a5.7,5.7,0,0,0,1.27-3.27l.58-10.44a5.82,5.82,0,0,0-.14-1.61l-3.34-14.38a5.67,5.67,0,0,1,.53-4l2-3.85a5.7,5.7,0,0,1,10.22.34l.11.26A5.21,5.21,0,0,1,625.19,622.59Z"/><path class="cls-31" d="M624,635.93l1,23.56a5.85,5.85,0,0,1-.38,2.31l-5.42,14a5.67,5.67,0,0,1-1.63,2.29l-4.13,3.49a5.69,5.69,0,0,1-8.32-1h0a5.7,5.7,0,0,1,.58-7.31L609,670a5.75,5.75,0,0,0,1.58-3.15l1.58-10.33a5.79,5.79,0,0,0,0-1.61l-1.94-14.63a5.59,5.59,0,0,1,.9-3.9l2.4-3.63a5.71,5.71,0,0,1,10.15,1.32l.09.26A5.72,5.72,0,0,1,624,635.93Z"/><path class="cls-32" d="M623.73,634.35l-.09-.26a5.71,5.71,0,0,0-10.15-1.32l-2.4,3.63a5.59,5.59,0,0,0-.9,3.9l1.88,14.19c5.94,1.2,11.21,6.84,10.27,13.36l2.34-6.05a5.85,5.85,0,0,0,.38-2.31l-1-23.56A5.72,5.72,0,0,0,623.73,634.35Z"/><path class="cls-33" d="M615.11,644.14l1,23.56a5.86,5.86,0,0,1-.38,2.3l-5.42,14a5.69,5.69,0,0,1-1.64,2.29l-4.12,3.49a5.69,5.69,0,0,1-8.32-1h0a5.69,5.69,0,0,1,.58-7.3l3.2-3.25a5.75,5.75,0,0,0,1.58-3.14l1.57-10.34a5.79,5.79,0,0,0,0-1.61l-2-14.63a5.7,5.7,0,0,1,.9-3.9l2.41-3.63a5.7,5.7,0,0,1,10.14,1.31l.09.27A5.39,5.39,0,0,1,615.11,644.14Z"/><path class="cls-34" d="M614.81,642.55l-.09-.27A5.7,5.7,0,0,0,604.58,641l-2.41,3.63a5.7,5.7,0,0,0-.9,3.9l1.37,10.27a10.9,10.9,0,0,1,4.53,13.08A34,34,0,0,1,596,688.34c.09.14.16.29.26.43a5.69,5.69,0,0,0,8.32,1l4.12-3.49a5.69,5.69,0,0,0,1.64-2.29l5.42-14a5.86,5.86,0,0,0,.38-2.3l-1-23.56A5.39,5.39,0,0,0,614.81,642.55Z"/><path class="cls-35" d="M620.92,600l-30.34,22.23s8.35,30.26,13.38,31.55,21.75-26.7,21.75-26.7Z"/><path class="cls-36" d="M597.9,616.9a11.42,11.42,0,0,1,6.31,5.45c5.66,10.08,6.35,21,2.47,30.44,5.23-3.9,14-17.45,17.48-23.14-1.34-9.57-2.77-19.13-4.58-28.62Z"/><path class="cls-37" d="M600.79,614.79a10.83,10.83,0,0,1,6.17,8c2.1,9.68,3.37,18.94,1.7,28.28,6.86-6.86,17.05-23.92,17.05-23.92L620.92,600Z"/><path class="cls-38" d="M593.1,634.6l-9.16,15.33a5.46,5.46,0,0,0-.77,2.55l-.86,17.27a5.47,5.47,0,0,0,.43,2.4l2.12,5a5.5,5.5,0,0,0,7,3l.33-.13a5.49,5.49,0,0,0,3.52-5.49l-.54-8.46a5.49,5.49,0,0,1,1.52-4.17l8.65-9a5.5,5.5,0,0,0,1.52-4.22c-.27-3.61-1.26-10.3-4.78-14.78A5.51,5.51,0,0,0,593.1,634.6Z"/><path class="cls-39" d="M602.12,634a5.51,5.51,0,0,0-9,.63l-.57,1a12.06,12.06,0,0,1,4.77,9.29c.45,9.8-6.17,13-11,19.89.1.23.2.49.34.81.7,1.6,1.1,3.51,1.71,5.15,1.16,3.17,2.43,6.3,3.45,9.52l.13,0,.33-.13a5.49,5.49,0,0,0,3.52-5.49l-.54-8.46a5.49,5.49,0,0,1,1.52-4.17l8.65-9a5.5,5.5,0,0,0,1.52-4.22C606.63,645.14,605.64,638.45,602.12,634Z"/><path class="cls-40" d="M239.18,530.18s.5-8.25-6.33-16.43-12.86-8.9-12.86-8.9l55-46.45,19.71,25.32Z"/><path class="cls-41" d="M273.94,458.92,271.49,461c0,.28.06.57.09.85,1.06,12.6-4.7,24.75-12.74,34-6.93,8-18.86,13.29-29.5,14.41a28.78,28.78,0,0,1,3.51,3.49c6.83,8.18,6.33,16.43,6.33,16.43l55.51-46.46Z"/><path class="cls-42" d="M277.54,447.08a26.51,26.51,0,1,0,36-10.49A26.51,26.51,0,0,0,277.54,447.08Z"/><path class="cls-43" d="M313.54,436.59a26.51,26.51,0,0,0-11.64-3.23c.25.13.5.22.76.35,9.55,5.25,15.57,15.16,11.09,26.21-3.75,9.24-16.68,16.32-26.21,11.09-6.9-3.78-11.94-10-12.53-17.33a26.5,26.5,0,1,0,38.53-17.09Z"/><g class="cls-28"><path class="cls-29" d="M240.89,527.49a24.62,24.62,0,0,0-.62-8.66,21.14,21.14,0,0,0-3.88-7.88,24.32,24.32,0,0,0-6.64-5.75,32.26,32.26,0,0,0-8-3.36c5.14,2.57,10.08,5.56,13.51,10a24.32,24.32,0,0,1,4,7.33A37.83,37.83,0,0,1,240.89,527.49Z"/></g><path class="cls-44" d="M662.85,930.91c0,20-96.64,36.22-215.84,36.22s-215.83-16.21-215.83-36.22S327.82,894.69,447,894.69,662.85,910.91,662.85,930.91Z"/><rect class="cls-45" x="466.1" y="873.08" width="74.95" height="37.08"/><rect class="cls-46" x="495.6" y="651.04" width="18.77" height="83.53"/><path class="cls-47" d="M503.43,651a261.05,261.05,0,0,1,5.19,83.53h5.75V651Z"/><path class="cls-48" d="M526.86,639.3a24.78,24.78,0,1,1-24.78-24.77A24.77,24.77,0,0,1,526.86,639.3Z"/><path class="cls-47" d="M502.08,614.53a24.78,24.78,0,1,0,24.78,24.77A24.78,24.78,0,0,0,502.08,614.53Zm7.4,32.27a14.61,14.61,0,0,1-9,8.42,11.76,11.76,0,0,1-5.93.7A11.55,11.55,0,0,1,489,653.6a11.89,11.89,0,0,1-4-5.63,15.45,15.45,0,0,1-2.43-2.35,11.88,11.88,0,0,1-2.24-8.67c.36-2.61,2.14-6.35,4.54-7.72,2.65-1.5,4.52-2.55,7.57-3a14.13,14.13,0,0,1,4.94.14,16.74,16.74,0,0,1,6.84,3,15.19,15.19,0,0,1,5.21,17.46Z"/><path class="cls-49" d="M523.3,747.08a19.21,19.21,0,1,1-19.21-19.22A19.21,19.21,0,0,1,523.3,747.08Z"/><path class="cls-50" d="M504.09,727.86a19.22,19.22,0,1,0,19.21,19.22A19.22,19.22,0,0,0,504.09,727.86Zm6,30.8a10.75,10.75,0,0,1-9.66,4.39,9.18,9.18,0,0,1-6-2.3,7.4,7.4,0,0,1-1.61-1.94c-3.18-.8-6.08-4.26-5.25-7.65,1.13-4.52,1.09-9.33,5.12-12.48A8.13,8.13,0,0,1,497.3,737a10.41,10.41,0,0,1,3.22-.85c5.31-.5,10.2,3.07,12.05,7.94S513.12,754.7,510.07,758.66Z"/><path class="cls-51" d="M485,751.28s-22.64,86.65-25.75,143.63c0,0,51.51-28.88,87.42-1.56,0,0,13.26-70.25-31.23-132.7Z"/><path class="cls-52" d="M541.8,873.24c-.42-17-.81-34.16-4.17-50.92-3-15.18-8-30.06-13.66-44.44-1.54-3.89-3.16-8-5-12-1.14-1.73-2.32-3.47-3.55-5.19l-11.22-3.45A218.63,218.63,0,0,1,520,837.51,303.77,303.77,0,0,1,517.4,882a58.84,58.84,0,0,1,24.36,8C542,884.44,541.93,878.83,541.8,873.24Z"/><path class="cls-53" d="M485.08,866c-.59-13.53.7-27.2.7-40.74,0-23.89-1-47.76-1.38-71.64-3.61,14.23-22.32,89.83-25.14,141.26a121.64,121.64,0,0,1,29.34-10.82C486.11,878.38,485.3,871.46,485.08,866Z"/><path class="cls-54" d="M515.45,760.65l-8-2.47c11.88,23.84,17.22,50.44,18.28,76.94.5,12.3,1.31,25.62-1.94,37.61a43.47,43.47,0,0,1-3.89,9.61,57.17,57.17,0,0,1,26.82,11S559.94,823.1,515.45,760.65Z"/><path class="cls-55" d="M544.32,899.46S566.43,908.93,569,938c0,0-1.28,5-12.64,5s-90.27-2.53-90.27-2.53-8.83-18.94-6.31-39.14C459.74,901.35,505.19,879.9,544.32,899.46Z"/><path class="cls-47" d="M544.32,899.46c-2.16-1.08-4.35-2-6.54-2.87.26.32.51.64.72.95,5.88,8.49,2.24,18.84-6.17,23.83-6.87,4.09-15.07,5.11-22.92,4.31-12-1.2-25.73-6.25-30.21-17.22a10.89,10.89,0,0,1-4.62-8,20,20,0,0,1,0-4.43,107.46,107.46,0,0,0-14.81,5.29c-2.52,20.2,6.31,39.14,6.31,39.14S545,943,556.32,943,569,938,569,938C566.43,908.93,544.32,899.46,544.32,899.46Z"/><rect class="cls-56" x="349.77" y="873.08" width="74.95" height="37.08" transform="translate(774.5 1783.24) rotate(180)"/><rect class="cls-57" x="376.47" y="651.04" width="18.76" height="83.53" transform="translate(771.69 1385.61) rotate(180)"/><path class="cls-47" d="M387.39,651a261.62,261.62,0,0,0-5.18,83.53h-5.74V651Z"/><path class="cls-58" d="M364,639.3a24.78,24.78,0,1,0,24.77-24.77A24.77,24.77,0,0,0,364,639.3Z"/><path class="cls-47" d="M364,639.3a24.78,24.78,0,1,0,24.77-24.77A24.77,24.77,0,0,0,364,639.3Zm19.27-6.58a15.12,15.12,0,0,1,3.3-3.38,16.84,16.84,0,0,1,6.85-3,14.13,14.13,0,0,1,4.94-.14c3.05.45,4.94,1.5,7.56,3,2.42,1.37,4.19,5.11,4.55,7.72a12,12,0,0,1-2.23,8.67,15.89,15.89,0,0,1-2.43,2.35,12.12,12.12,0,0,1-4,5.63,11.59,11.59,0,0,1-5.51,2.32,11.84,11.84,0,0,1-5.95-.7,14.59,14.59,0,0,1-9-8.42A15,15,0,0,1,383.25,632.72Z"/><path class="cls-59" d="M367.53,747.08a19.22,19.22,0,1,0,19.21-19.22A19.22,19.22,0,0,0,367.53,747.08Z"/><path class="cls-60" d="M367.53,747.08a19.22,19.22,0,1,0,19.21-19.22A19.22,19.22,0,0,0,367.53,747.08Zm10.74-3c1.84-4.87,6.73-8.44,12-7.94a10.25,10.25,0,0,1,3.23.85,8.14,8.14,0,0,1,4.6,1.72c4,3.15,4,8,5.11,12.48.83,3.39-2.06,6.85-5.24,7.65a7.86,7.86,0,0,1-1.62,1.94,9.18,9.18,0,0,1-5.95,2.3,10.82,10.82,0,0,1-9.69-4.39C377.71,754.7,376.47,748.78,378.27,744.05Z"/><path class="cls-61" d="M405.82,751.28s22.63,86.65,25.75,143.63c0,0-51.51-28.88-87.41-1.56,0,0-13.28-70.25,31.21-132.7Z"/><path class="cls-62" d="M349,873.24c.43-17,.81-34.16,4.17-50.92,3-15.18,8-30.06,13.66-44.44,1.54-3.89,3.15-8,5-12,1.15-1.73,2.32-3.47,3.54-5.19l11.24-3.45a218.23,218.23,0,0,0-15.77,80.31A302.4,302.4,0,0,0,373.43,882a59,59,0,0,0-24.36,8C348.88,884.44,348.9,878.83,349,873.24Z"/><path class="cls-63" d="M405.77,866c.57-13.53-.73-27.2-.73-40.74,0-23.89,1-47.76,1.38-71.64,3.62,14.23,22.34,89.83,25.15,141.26a121.43,121.43,0,0,0-29.34-10.82C404.73,878.38,405.53,871.46,405.77,866Z"/><path class="cls-64" d="M375.37,760.65l8.05-2.47c-11.87,23.84-17.2,50.44-18.28,76.94-.5,12.3-1.31,25.62,1.93,37.61a44.52,44.52,0,0,0,3.9,9.61,57.06,57.06,0,0,0-26.81,11S330.88,823.1,375.37,760.65Z"/><path class="cls-65" d="M346.5,899.46s-22.09,9.47-24.63,38.51c0,0,1.28,5,12.64,5s90.27-2.53,90.27-2.53,8.84-18.94,6.32-39.14C431.1,901.35,385.64,879.9,346.5,899.46Z"/><path class="cls-47" d="M346.5,899.46c2.16-1.08,4.36-2,6.56-2.87-.26.32-.52.64-.73.95-5.87,8.49-2.24,18.84,6.18,23.83,6.87,4.09,15.06,5.11,22.91,4.31,12-1.2,25.74-6.25,30.21-17.22a10.78,10.78,0,0,0,4.61-8,18.87,18.87,0,0,0,.05-4.43,108.1,108.1,0,0,1,14.81,5.29c2.52,20.2-6.32,39.14-6.32,39.14S345.88,943,334.51,943s-12.64-5-12.64-5C324.41,908.93,346.5,899.46,346.5,899.46Z"/><path class="cls-66" d="M489.45,625c0,7-10.48,58.67-47.53,58.67S394.39,632,394.39,625s21.29-12.79,47.53-12.79S489.45,617.9,489.45,625Z"/><path class="cls-67" d="M504.7,596.82c0,9.33-13.85,77.5-62.78,77.5s-62.78-68.17-62.78-77.5,28.11-16.88,62.78-16.88S504.7,587.5,504.7,596.82Z"/><path class="cls-68" d="M451.19,580.12c9,8.8,17.45,17.2,20,30.09,4.55,22.76-12.39,46.69-36.73,45.29-17.36-1-30.17-13.21-36.17-28.83-3.8-9.89-4.27-20.21-3.39-30.59a23.91,23.91,0,0,1,4.71-11.75c-12.6,3.1-20.51,7.55-20.51,12.49,0,9.33,13.86,77.5,62.78,77.5s62.78-68.17,62.78-77.5C504.7,588.34,481.46,581.33,451.19,580.12Z"/><path class="cls-69" d="M504.7,596.82c0,9.33-28.11,16.89-62.78,16.89s-62.78-7.56-62.78-16.89,28.11-16.88,62.78-16.88S504.7,587.5,504.7,596.82Z"/><path class="cls-70" d="M504.7,596.82c0,9.33-28.11,16.89-62.78,16.89s-62.78-7.56-62.78-16.89,28.11-16.88,62.78-16.88S504.7,587.5,504.7,596.82Z"/><path class="cls-71" d="M441.92,579.94c-34.67,0-62.78,7.56-62.78,16.88a5.07,5.07,0,0,0,.51,2.11,18,18,0,0,1,7.55-6c25.06-10.6,72.3-19.63,84.28,13.75a13.94,13.94,0,0,1,.83,4.92c19.31-2.88,32.39-8.42,32.39-14.78C504.7,587.5,476.59,579.94,441.92,579.94Z"/><path class="cls-72" d="M441.92,579.94h-3.07c-19.74,2.44-33.44,7.8-33.44,14,0,8.51,25.64,15.41,57.28,15.41a189.26,189.26,0,0,0,28.28-2c8.59-2.89,13.73-6.55,13.73-10.54C504.7,587.5,476.59,579.94,441.92,579.94Z"/><path class="cls-73" d="M440.08,504.94l-55.37,41.14,5.11,47.73s17.89,10.7,50.26,10.7,50.24-10.7,50.24-10.7l5.11-47.73Z"/><path class="cls-74" d="M535.15,418.57c0,24.18-42.94,43.77-95.91,43.77s-95.92-19.6-95.92-43.77,42.95-43.78,95.92-43.78S535.15,394.39,535.15,418.57Z"/><path class="cls-75" d="M436.79,406.23h0A29.28,29.28,0,0,1,407.52,377V346.74a29.27,29.27,0,0,1,29.27-29.27h0a29.26,29.26,0,0,1,29.27,29.27V377A29.27,29.27,0,0,1,436.79,406.23Z"/><path class="cls-76" d="M545.75,390.73,520,387.19c-23.91,36.32-81.49,33.66-81.49,33.66v.25c-6.44.16-58.43.36-80.84-33.69L332,391c-30.12,8-68.21,36.31-68.21,46.06s6.2,19.49,6.2,19.49h62.44A22.76,22.76,0,0,1,354,472.07l.35,1.09a115.2,115.2,0,0,1,5.55,27.7c1.05,13.32,4.36,34.75,14.6,51.32,16,25.94,36.8-30.07,64.58-30.07s50.77,48.53,64.09,29.84c9-12.63,12.72-37.32,14.19-52a114.72,114.72,0,0,1,5.33-25.12l1-3a22.76,22.76,0,0,1,21.59-15.56h62.44s6.2-9.74,6.2-19.49S575.86,398.7,545.75,390.73Z"/><path class="cls-77" d="M569.42,400.08c1.47,12-4.73,25.21-15,31.63-15.58,9.72-32.95,11.89-50.2,16.68-1.61.45-3.21.93-4.8,1.47l-.35.11c-1,.62-2.07,1.22-3.11,1.82-.4.48-.74.85-1,1.14l-.91,1.35c-.11.34-.31.93-.63,1.83-.13.46-.26.92-.42,1.37-.47,1.69-.84,3.41-1.17,5.14l0,.13c-.12,6.77-.39,3.74-.13,1.06-.13,1.06-.29,2.12-.39,3.13-.38,4.27-.67,8.54-1,12.81-.75,10.21-1.74,20.41-3.49,30.51a82.37,82.37,0,0,1-12.39,31.81c11.86,10.7,21.7,19.85,28.8,9.88,9-12.63,12.72-37.32,14.19-52a114.72,114.72,0,0,1,5.33-25.12l1-3a22.76,22.76,0,0,1,21.59-15.56h62.44s6.2-9.74,6.2-19.49C614,429.52,592.72,411.87,569.42,400.08Z"/><path class="cls-78" d="M354,472.07l.36,1.09c.69,2,1.29,4.09,1.86,6.16A29.23,29.23,0,0,1,358,484c.77,2.7,1.65,5.34,2.52,8,.21.6.36,1.08.48,1.49l.07.13q3.21,6.93,6.63,13.76c1.45,2.88,2.84,5.75,4.09,8.73.44,1,.75,1.79,1,2.38.15.27.35.61.6,1.07,2,3.64,3.88,7.3,6.13,10.8,1.31,2,2.68,4,4.1,6,.2.29,1.06,1.44,1.77,2.4s2.18,2.79,2.22,2.83c1.25,1.57,2.52,3.13,3.77,4.69,1.68,2.08,3.36,4.17,5,6.27,3.51-3.09,7.19-7,11.05-10.89-5.69-13.44-8.83-27.43-11.29-42-1.26-7.4-2.45-14.83-4-22.16-.86-4-1.85-8-3-11.93q-.93-3.18-2.07-6.31c-.37-1-.77-2.07-1.17-3.09l1.34,3.27c.1-2.74-3.9-7.26-5.32-9.64-.34-.57-.58-1-.76-1.32-.82-.84-1.73-1.62-2.48-2.33-.42-.42-.86-.79-1.31-1.19-.36-.21-.72-.41-1.07-.59a23.5,23.5,0,0,1-4.39-1.18,2.51,2.51,0,0,1-.38-.11c-1.12-.1-2.24-.21-3.36-.3-3.1-.25-6.17-.45-9.28-.44-8.1,0-16.19.39-24.14-1.94-17.42-5.11-28.85-20.52-31.34-37.57-21.29,11.65-39.61,27.35-39.61,34.11,0,9.75,6.2,19.49,6.2,19.49h62.44A22.74,22.74,0,0,1,354,472.07Z"/><path class="cls-79" d="M334.08,453.24c28.54,8.06,34,35.32,36.24,60.88.63,2,1,4.11,1.63,6.11s1.15,4.37,2.22,6.1c-4.35-7,1,1.73,1.82,3.26,2.13,4,4.43,8.86,7.41,12.56.23.21.58.54,1,.94-.47-17.89-.72-35.76-2.65-53.58,0-.26-.15-1.35-.29-2.43-.52-3.11-1-6.21-1.66-9.29a155.62,155.62,0,0,0-4.19-16.22c-.73-2.26-2.32-5-2.94-7.43-.26-.54-.52-1.09-.81-1.62-.52-1-1.15-1.95-1.65-2.95a2,2,0,0,1-.12-.26c-1-1.16-2-2.35-3-3.41a17.55,17.55,0,0,0-1.4-1.17c-1.54-.84-3-2-4.55-2.85-1.91-.47-3.83-1.3-5.74-1.78-1.09-.27-2.22-.46-3.35-.65,2.35.64,3.1,1.31-3.28-.6-4.71-.36-9.43-.48-14.15-.47-23.22,0-45.38,1.45-68.49-1.82-.74-.11-1.46-.25-2.16-.4a4.46,4.46,0,0,0-.1.86c0,9.75,6.2,19.49,6.2,19.49h40.44A31.19,31.19,0,0,1,334.08,453.24Z"/><path class="cls-80" d="M495.61,499.37c0,.53-.06,1.06-.11,1.59q.67-2.77,1.24-5.6C496.76,494.25,495.82,496.73,495.61,499.37Z"/><path class="cls-81" d="M604,430.08c-7.39-1.75-14.8-3.16-22.26-4.43l-.56,0c-1.79-.12-3.55-.33-5.34-.46-3.51-.25-7-.4-10.58-.42s-7,.08-10.49.3c-2.18.14-4.34.41-6.51.57-4.43.33,3.69-.36,3.55-.48-1.21-1-8.58,1.66-10.39,2.1-3.49.85-7,1.84-10.4,3-1.77.59-3.51,1.27-5.26,1.9a56.13,56.13,0,0,1-6.15,3.56l-.69.64c-.83.79-2.85,3.18-3.83,4.25-.83,1.22-1.65,2.43-1.92,2.9-1.13,1.86-2.16,3.77-3.15,5.7.51-.37.34,1-2.11,4.6-.65,1.74-1.28,3.49-1.87,5.26-3.25,9.79-5.67,19.83-7.93,29.88-.49,2.14-.91,4.31-1.33,6.47a35.91,35.91,0,0,1-1.25,5.82c-.05.86-.12,1.72-.16,2.58-.91,17.37-.83,34.56-2.87,51.79,4.07,1.45,7.67.74,10.75-3.6,9-12.63,12.72-37.32,14.19-52a114.72,114.72,0,0,1,5.33-25.12l1-3a22.76,22.76,0,0,1,21.59-15.56h62.44s6.2-9.74,6.2-19.49c0-1.5-.92-3.45-2.56-5.7A38.94,38.94,0,0,1,604,430.08Z"/><path class="cls-82" d="M439.64,520.27a30,30,0,0,1,25.7,14.55q0-1.89,0-3.81c0-41.47-10.73-75.09-23.95-75.09s-23.76,33.05-23.94,74A31.59,31.59,0,0,1,439.64,520.27Z"/><path class="cls-83" d="M477.34,463.11c1.31-5.38,6.13-9.26,11.33-11.41l.18-.07a76.62,76.62,0,0,1,13.76-11.56c4.93-3.26,10.31-5.72,15.26-8.92,1-.63,1.65-1.11,2-1.37.67-.59,1.33-1.2,2-1.83.85-.84,1.62-1.75,2.43-2.63.18-.23.42-.48.67-.74.87-1.3,1.72-2.62,2.53-3.95-2.26,1.33-4.45,2.88-6.52,4.3-27.52,18.85-63.79,20.8-97.93,19.75a284,284,0,0,1-36.58-3,162.36,162.36,0,0,1-33.17-8.75c-6.47-2.55-17.12-12.77-23.65-13-10.21-.35-4.14,10.2,1.75,13.52,9.41,5.3,21.14,4.76,31,9,11.62,5,20.45,16,22.18,28.2a6.76,6.76,0,0,0,4.73,5.63c5.49,1.5,7.24-5.24,9.56-9.6,4.17-7.87,14.46-10.12,23.57-11.25,7.78-1,15.82-1.69,23.47.34,8.73,2.3,17,8.92,17.61,18a9,9,0,0,0,2.21,5.56c4.6,5,10,.23,10.89-4.5C477.35,471,476.42,466.91,477.34,463.11Z"/><path class="cls-84" d="M595.57,943.5c-.51,11.71-38.93,19.58-85.83,17.57s-84.5-13.11-84-24.82,38.92-19.57,85.82-17.56S596.07,931.8,595.57,943.5Z"/><path class="cls-85" d="M470.84,943.5c-.5,11.71-38.92,19.58-85.82,17.57S300.51,948,301,936.25s38.92-19.57,85.81-17.56S471.35,931.8,470.84,943.5Z"/><path class="cls-86" d="M602.17,234.12c0,84.82-74.3,127-166,127s-166-44.62-166-127,74.31-127,166-127S602.17,149.29,602.17,234.12Z"/><path class="cls-87" d="M436.2,107.13c-91.66,0-166,44.62-166,127s74.31,127,166,127,166-42.17,166-127S527.87,107.13,436.2,107.13Zm0,221.09c-69.11,0-125.14-38.57-125.14-100.68s56-100.68,125.14-100.68,125.14,36.72,125.14,100.68S505.32,328.22,436.2,328.22Z"/><path class="cls-88" d="M436.2,107.13c-73.14,0-135.24,35.7-157.34,83.88,5.23-7.94,11.49-25.74,18.82-31.35,1.47-1.76,2.92-3.53,4.39-5.3,10.74-9.28,23.31-20.35,36.26-27.16,15.18-6.87,31.14-13.16,47.89-14.85a206.23,206.23,0,0,1,56.13-1.29c39.56,4.52,80.57,22,112.38,48.46,16.67,13.84,28.74,45.19,25.73,66.64-2.1,15-11.16,28.11-22,38.66-91.42,89.24-169.75,111.7-265.79,29-6.39-5.5-12.12-32.22-16.18-39.6a12.11,12.11,0,0,1-.79-1.85c-1.09-3.36-2-7.63-2.75-10.39-.78-3-2-6.94-2.73-10.43,0,.84,0,1.68,0,2.53,0,82.37,74.31,127,166,127s166-42.17,166-127S527.87,107.13,436.2,107.13Z"/><path class="cls-89" d="M501.56,117.92c7.41,1.46,19.9,12.68,25.86,17.47,8.94,7.18,22.05,25.52,28.27,35.2,8.91,13.83,12.3,41.48,11.74,57.93-.58,17.15-15.2,44.85-26.14,56s-24.51,19.52-38.6,26.33C444.62,339,353.24,335,313.39,322.8c2.67,3.66,16.45,12.36,24.1,15.14,9.28,3.38,18.92,10.81,28.61,12.71,21.81,4.26,44.15,5.61,66.34,5.61,89.59,0,162.21-41.66,162.21-124.56C594.65,171.67,556.58,128.75,501.56,117.92Z"/><path class="cls-83" d="M401.16,183c2.48,10.62-9.86,22.57-27.54,26.7s-34-1.13-36.51-11.75,9.84-22.56,27.54-26.68S398.68,172.4,401.16,183Z"/><path class="cls-90" d="M435.21,123.31h2a41,41,0,0,1,41,41V286.77a41,41,0,0,1-41,41h-2a41,41,0,0,1-41-41V164.28A41,41,0,0,1,435.21,123.31Z" transform="translate(661.72 -210.69) rotate(90)"/><path class="cls-91" d="M375,186.17H497.44a38.34,38.34,0,0,1,38.34,38.34v2a38.34,38.34,0,0,1-38.34,38.34H375a38.33,38.33,0,0,1-38.33-38.33v-2A38.33,38.33,0,0,1,375,186.17Z"/><path class="cls-92" d="M375,186.17H497.44a38.34,38.34,0,0,1,38.34,38.34v2a38.34,38.34,0,0,1-38.34,38.34H375a38.33,38.33,0,0,1-38.33-38.33v-2A38.33,38.33,0,0,1,375,186.17Z"/><path class="cls-93" d="M404.85,224.79A20.89,20.89,0,1,1,384,203.9,20.88,20.88,0,0,1,404.85,224.79Z"/><path class="cls-93" d="M512.1,224.79a20.89,20.89,0,1,1-20.88-20.89A20.88,20.88,0,0,1,512.1,224.79Z"/><path class="cls-94" d="M374.57,235a235.94,235.94,0,0,1,67-7.64,309.75,309.75,0,0,1,87.73,12.11l1.26.49a35.62,35.62,0,0,0,2.62-13.42v-2a35.67,35.67,0,0,0-9.3-24,135.58,135.58,0,0,1-35.5,10.62A177,177,0,0,1,438,216.85c-30.1,0-60.71-5.14-88.25-17.61a35.59,35.59,0,0,0-10.51,25.28v2a35.47,35.47,0,0,0,3.93,16.27A180,180,0,0,1,374.57,235Z"/><g class="cls-95"><path class="cls-96" d="M456.45,188.81c-8.48.29-17,.42-25.43.64l-25.44.36c-8.47.15-16.94.16-25.41.24-4.3,0-8.42-.08-12.41.81a33.37,33.37,0,0,0-11.24,4.68A34.94,34.94,0,0,0,342,214.62l-.79,3-.47,3a52.8,52.8,0,0,0-.28,6.2,35.19,35.19,0,0,0,17.95,30.58,34.33,34.33,0,0,0,11.77,4.11c4.13.64,8.41.53,12.64.72-4.24.1-8.47.45-12.74,0a35.63,35.63,0,0,1-12.29-3.67A36.79,36.79,0,0,1,340.7,239.6a35.27,35.27,0,0,1-2.59-12.76,40.41,40.41,0,0,1,1.46-12.94,37.4,37.4,0,0,1,15.53-20.58,36.34,36.34,0,0,1,12.14-5,38.77,38.77,0,0,1,6.52-.75c2.2-.12,4.26,0,6.41,0,8.47.07,16.94.08,25.41.23l25.44.36C439.49,188.38,448,188.51,456.45,188.81Z"/></g><g class="cls-97"><path class="cls-98" d="M530.53,221.89a33.63,33.63,0,0,1-9.44,26.86,34.75,34.75,0,0,1-12.55,8.08,35.21,35.21,0,0,1-3.62,1.12c-1.23.31-2.49.46-3.74.7s-2.54.19-3.79.28l-3.6.08c-9.6.24-19.2.29-28.79.43l-28.8.15-28.79-.14c-9.59-.15-19.19-.19-28.79-.44l-3.6-.07c-1.26-.09-2.54-.16-3.79-.29s-2.52-.39-3.74-.69a35.39,35.39,0,0,1-3.63-1.12,34.77,34.77,0,0,1-12.55-8.09,33.58,33.58,0,0,1-9.42-26.86,37.51,37.51,0,0,0,3,13.84,31.36,31.36,0,0,0,8.23,11.16A32.17,32.17,0,0,0,365,253.57c1,.39,2.19.53,3.29.83s2.24.31,3.36.48,2.26.07,3.39.11l3.6-.08c9.6-.25,19.2-.29,28.79-.44l28.79-.14,28.8.15c9.59.14,19.19.19,28.79.43l3.6.08c1.14,0,2.26-.05,3.39-.1s2.25-.26,3.36-.49,2.23-.42,3.3-.82a32.16,32.16,0,0,0,11.88-6.69,31.15,31.15,0,0,0,8.23-11.16A37.93,37.93,0,0,0,530.53,221.89Z"/></g><path class="cls-99" d="M509.67,240.21c-11,7-26.4,14.66-40,14.66-10.51,0-17.85-4.25-20.78-14.25-3.32-11.37,5.64-25.12,11.49-34.22a102.19,102.19,0,0,1,14.71-17.59H387.79c.49,5.42-2.57,12.47-5.54,17.1-7.83,12.18-24.58,25.8-39.77,25.8a17.91,17.91,0,0,1-2.87-.22,35.64,35.64,0,0,0,11.76,21.8,117.13,117.13,0,0,1,6.07-10.22c7.34-11.41,19.68-22.24,31-29.44,9.11-5.78,21.81-12.11,33.05-12.11,8.69,0,14.75,3.51,17.16,11.78,2.75,9.39-4.66,20.75-9.49,28.28s-11.63,14.56-19,20.64h87.24a35.75,35.75,0,0,0,35.71-35.71v-2c0-1,0-1.92-.13-2.87A144.19,144.19,0,0,1,509.67,240.21Z"/><g class="cls-100"><path class="cls-96" d="M401.16,183c2.48,10.62-9.86,22.57-27.54,26.7s-34-1.13-36.51-11.75,9.84-22.56,27.54-26.68S398.68,172.4,401.16,183Z"/></g><path class="cls-101" d="M608.93,283.54s-15.08,6.08-21.76,6.08-12.09-24.9-12.09-55.62,5.42-55.62,12.09-55.62c3.44,0,21.43,6.17,21.43,6.17Z"/><path class="cls-102" d="M594.38,259.65c-4.63-8.24-6-18.78-7.07-28.07A365.66,365.66,0,0,1,585,190.8c0-4.87,2.51-8.67,5.88-11.74a19.6,19.6,0,0,0-3.7-.68c-6.67,0-12.09,24.9-12.09,55.62s5.42,55.62,12.09,55.62,21.76-6.08,21.76-6.08l0-9A41.89,41.89,0,0,1,594.38,259.65Z"/><path class="cls-103" d="M590.58,276.24c-6.53-9.4-9.48-21.5-11-32.66-2.45-18.16.06-37.61,5.64-55.28a13.8,13.8,0,0,1,1.15-3.46c.61-1.77,1.24-3.53,1.9-5.25.14-.35.3-.68.47-1a10.18,10.18,0,0,0-1.58-.2c-6.67,0-12.09,24.9-12.09,55.62s5.42,55.62,12.09,55.62c3.14,0,8.15-1.35,12.56-2.77A67.39,67.39,0,0,1,590.58,276.24Z"/><path class="cls-104" d="M619.33,234c0,27.39-4.83,49.58-10.79,49.58S597.77,261.39,597.77,234s4.83-49.58,10.77-49.58S619.33,206.62,619.33,234Z"/><path class="cls-105" d="M619.33,234c0,27.39-4.83,49.58-10.79,49.58S597.77,261.39,597.77,234s4.83-49.58,10.77-49.58S619.33,206.62,619.33,234Z"/><path class="cls-106" d="M608.79,184.45a14.25,14.25,0,0,1,2.37,7.45c.17,10.52,2.32,20.91,2.22,31.44-.08,8.27-1.87,16.72-3.3,24.86-1.64,9.17-3.9,18.23-7.7,26.45,1.74,5.62,3.87,8.93,6.16,8.93,6,0,10.79-22.19,10.79-49.58C619.33,207,614.62,185.05,608.79,184.45Z"/><path class="cls-107" d="M619.05,234c0,24.15-3.52,43.73-7.87,43.73s-7.87-19.58-7.87-43.73,3.52-43.73,7.87-43.73S619.05,209.85,619.05,234Z"/><g class="cls-108"><path class="cls-96" d="M608.54,283.58a3.87,3.87,0,0,1-2.8-1.55,13.59,13.59,0,0,1-1.79-2.78,39.42,39.42,0,0,1-2.36-6.15,99.18,99.18,0,0,1-2.69-12.88,194,194,0,0,1,0-52.44,99.88,99.88,0,0,1,2.69-12.88,38.81,38.81,0,0,1,2.36-6.15,13.59,13.59,0,0,1,1.79-2.78,3.87,3.87,0,0,1,2.8-1.55,3.81,3.81,0,0,0-2.65,1.68,13.25,13.25,0,0,0-1.62,2.8,37,37,0,0,0-2.06,6.18,99.25,99.25,0,0,0-2.32,12.84A208.44,208.44,0,0,0,598.43,234a208.6,208.6,0,0,0,1.46,26.09,99.56,99.56,0,0,0,2.32,12.84,37.35,37.35,0,0,0,2.06,6.18,13.25,13.25,0,0,0,1.62,2.8A3.83,3.83,0,0,0,608.54,283.58Z"/></g><path class="cls-109" d="M265.57,283.54s15.07,6.08,21.74,6.08,12.1-24.9,12.1-55.62-5.42-55.62-12.1-55.62c-3.44,0-21.41,6.17-21.41,6.17Z"/><path class="cls-110" d="M280.12,259.65c4.62-8.24,6-18.78,7.06-28.07a365.66,365.66,0,0,0,2.32-40.78c0-4.87-2.5-8.67-5.88-11.74a19.53,19.53,0,0,1,3.69-.68c6.68,0,12.1,24.9,12.1,55.62s-5.42,55.62-12.1,55.62-21.74-6.08-21.74-6.08v-9A42.06,42.06,0,0,0,280.12,259.65Z"/><path class="cls-111" d="M255.17,234c0,27.39,4.82,49.58,10.77,49.58s10.77-22.19,10.77-49.58-4.82-49.58-10.77-49.58S255.17,206.62,255.17,234Z"/><path class="cls-112" d="M255.17,234c0,27.39,4.82,49.58,10.77,49.58s10.77-22.19,10.77-49.58-4.82-49.58-10.77-49.58S255.17,206.62,255.17,234Z"/><path class="cls-113" d="M265.69,184.45a14.24,14.24,0,0,0-2.36,7.45c-.17,10.52-2.32,20.91-2.22,31.44.08,8.27,1.87,16.72,3.3,24.86,1.63,9.17,3.91,18.23,7.69,26.45-1.74,5.62-3.87,8.93-6.16,8.93-5.95,0-10.77-22.19-10.77-49.58C255.17,207,259.87,185.05,265.69,184.45Z"/><path class="cls-107" d="M255.44,234c0,24.15,3.53,43.73,7.88,43.73s7.86-19.58,7.86-43.73-3.52-43.73-7.86-43.73S255.44,209.85,255.44,234Z"/><g class="cls-108"><path class="cls-96" d="M265.94,283.58a3.85,3.85,0,0,0,2.66-1.67,13.08,13.08,0,0,0,1.62-2.81,36.93,36.93,0,0,0,2.06-6.17,99.56,99.56,0,0,0,2.32-12.84A208.6,208.6,0,0,0,276.06,234a210.36,210.36,0,0,0-1.46-26.08,99.25,99.25,0,0,0-2.32-12.84,37,37,0,0,0-2.06-6.18,13.25,13.25,0,0,0-1.62-2.8,3.83,3.83,0,0,0-2.66-1.68,3.91,3.91,0,0,1,2.82,1.55,13.09,13.09,0,0,1,1.77,2.78,37,37,0,0,1,2.37,6.15,99.56,99.56,0,0,1,2.7,12.88,194,194,0,0,1,0,52.44,97.61,97.61,0,0,1-2.71,12.88,35.8,35.8,0,0,1-2.36,6.15,13.09,13.09,0,0,1-1.77,2.78A3.91,3.91,0,0,1,265.94,283.58Z"/></g><g class="cls-114"><path class="cls-107" d="M658.06,233.37c.26,46.5-20,84.31-45.36,84.46s-46.09-37.41-46.37-83.91,20-84.3,45.36-84.45S657.77,186.88,658.06,233.37Z"/></g><g class="cls-115"><path class="cls-107" d="M305.23,233.37c.28,46.5-20,84.31-45.35,84.46s-46.08-37.41-46.36-83.91,20-84.3,45.35-84.45S305,186.88,305.23,233.37Z"/></g><g class="cls-116"><path class="cls-107" d="M565.88,222.12c.24,37.83-32,88.73-72.05,89S421.18,260.82,421,223s32-68.7,72.06-68.94S565.67,184.29,565.88,222.12Z"/></g><g class="cls-117"><path class="cls-107" d="M455.39,222.12c.23,37.83-32,88.73-72.06,89S310.68,260.82,310.45,223s32-68.7,72.06-68.94S455.17,184.29,455.39,222.12Z"/></g><path class="cls-118" d="M481.72,111.49l-13.9,30a8.59,8.59,0,0,1-7.79,5H411.11a8.7,8.7,0,0,1-7.83-5l-13.43-29c-1,.33-2,.46-3,.83l13.65,29.46a11.68,11.68,0,0,0,10.58,6.78H460a11.58,11.58,0,0,0,10.54-6.78l14.13-30.41A29,29,0,0,0,481.72,111.49Z"/><path class="cls-96" d="M411.11,149.47H460a11.53,11.53,0,0,0,4.24-.84,21,21,0,0,0,3.59-7.19h0a8.59,8.59,0,0,1-7.79,5H411.11a8.7,8.7,0,0,1-7.83-5,21,21,0,0,0,3.6,7.2A11.63,11.63,0,0,0,411.11,149.47Z"/></g></g></svg>