<svg height="727.77798" viewBox="0 0 649.3779 727.77798" width="649.3779" xmlns="http://www.w3.org/2000/svg"><path d="m648.20033 259.05824h-3.99878v-109.54533a63.40187 63.40187 0 0 0 -63.40179-63.40191h-232.08676a63.40184 63.40184 0 0 0 -63.402 63.4017v600.97443a63.40181 63.40181 0 0 0 63.40184 63.40187h232.08661a63.40185 63.40185 0 0 0 63.402-63.40167v-413.45283h3.99884z" fill="#e6e6e6" transform="translate(-285.31105 -86.11101)"/><path d="m583.3578 102.606h-30.295a22.49485 22.49485 0 0 1 -20.82715 30.99053h-132.95945a22.49484 22.49484 0 0 1 -20.82715-30.99061h-28.29559a47.34781 47.34781 0 0 0 -47.34784 47.34774v600.09262a47.34781 47.34781 0 0 0 47.34777 47.34784h233.20441a47.34781 47.34781 0 0 0 47.34784-47.34778v-600.09263a47.34777 47.34777 0 0 0 -47.34784-47.34771z" fill="#fff" transform="translate(-285.31105 -86.11101)"/><path d="m611.46248 573.92982h-279.619a5.184 5.184 0 0 1 -5.178-5.178v-69.361a5.184 5.184 0 0 1 5.178-5.178h279.619a5.184 5.184 0 0 1 5.178 5.178v69.362a5.184 5.184 0 0 1 -5.178 5.177zm-279.619-77.646a3.11 3.11 0 0 0 -3.107 3.107v69.362a3.11 3.11 0 0 0 3.107 3.107h279.619a3.11 3.11 0 0 0 3.107-3.107v-69.362a3.11 3.11 0 0 0 -3.107-3.107z" fill="#e6e6e6" transform="translate(-285.31105 -86.11101)"/><circle cx="82.77841" cy="447.95985" fill="#e6e6e6" r="21.74799"/><path d="m418.31746 519.57286a3.625 3.625 0 0 0 0 7.249h170.878a3.625 3.625 0 0 0 .13989-7.24866l-.02087-.00033q-.05943-.001-.119 0z" fill="#e6e6e6" transform="translate(-285.31105 -86.11101)"/><path d="m418.31746 541.32087a3.625 3.625 0 0 0 0 7.249h170.878a3.625 3.625 0 0 0 .119-7.249q-.05943-.00092-.119 0z" fill="#e6e6e6" transform="translate(-285.31105 -86.11101)"/><path d="m611.46248 689.91981h-279.619a5.184 5.184 0 0 1 -5.178-5.178v-69.361a5.184 5.184 0 0 1 5.178-5.178h279.619a5.184 5.184 0 0 1 5.178 5.178v69.362a5.184 5.184 0 0 1 -5.178 5.177zm-279.619-77.646a3.11 3.11 0 0 0 -3.107 3.107v69.362a3.11 3.11 0 0 0 3.107 3.107h279.619a3.11 3.11 0 0 0 3.107-3.107v-69.362a3.11 3.11 0 0 0 -3.107-3.107z" fill="#e6e6e6" transform="translate(-285.31105 -86.11101)"/><circle cx="82.77841" cy="563.94987" fill="#e6e6e6" r="21.74799"/><path d="m418.31746 635.56288a3.625 3.625 0 0 0 0 7.249h170.878a3.625 3.625 0 0 0 .119-7.249q-.05943-.001-.119 0z" fill="#e6e6e6" transform="translate(-285.31105 -86.11101)"/><path d="m418.31746 657.31086a3.625 3.625 0 0 0 0 7.249h170.878a3.625 3.625 0 0 0 .119-7.249q-.05943-.00092-.119 0z" fill="#e6e6e6" transform="translate(-285.31105 -86.11101)"/><path d="m465.76845 429.99485a98.343 98.343 0 0 1 -98.384-98.30194v-.08206c0-.206 0-.423.012-.629.3-53.879 44.432-97.756 98.372-97.756a98.384 98.384 0 0 1 .0224 196.768h-.0224zm0-194.7a96.519 96.519 0 0 0 -96.3 95.749c-.011.22-.011.4-.011.564a96.325 96.325 0 1 0 96.337-96.313z" fill="#e6e6e6" transform="translate(-285.31105 -86.11101)"/><circle cx="315.11393" cy="422.84174" fill="#fff" r="40"/><path d="m586.53265 526.94884c-.06861 0-.13721-.00049-.20606-.00195h-21.5a10.39761 10.39761 0 0 1 -.0083-20.79248h21.51807c.10547-.00195.22021-.00195.334 0a10.39771 10.39771 0 0 1 -.13769 20.79443z" fill="#2795fe" transform="translate(-285.31105 -86.11101)"/><path d="m325.3453 725.34374h324.03261v2.24072h-324.03261z" fill="#3f3d56"/><g transform="translate(-285.31105 -86.11101)"><path d="m630.6207 621.842a6.56111 6.56111 0 0 1 -.62973-1.259l-5.16339-13.82657a6.50779 6.50779 0 0 1 3.81532-8.36324l115.24228-43.03187a6.50621 6.50621 0 0 1 8.363 3.81491l5.16283 13.82751a6.49951 6.49951 0 0 1 -3.81558 8.36283l-115.2412 43.03174a6.5067 6.5067 0 0 1 -7.73351-2.55634z" fill="#2795fe"/><path d="m743.51834 551.78826-46.86323 18.68723a6 6 0 0 0 -4.093 7.1996l5.43852 21.77515a6 6 0 0 0 8.37642 3.97481l46.99241-22.1188a6.0109 6.0109 0 0 0 3.52446-7.717l-5.64883-18.27558a6.01072 6.01072 0 0 0 -7.72675-3.52541z" fill="#2f2e41"/><path d="m829.28044 687.45a6.50671 6.50671 0 0 1 -6.89226-4.34039l-40.114-116.289a6.49951 6.49951 0 0 1 4.02482-8.26416l13.95295-4.81352a6.50408 6.50408 0 0 1 8.26373 4.02536l40.11465 116.2899a6.50779 6.50779 0 0 1 -4.02531 8.26422l-13.95257 4.8125a6.56115 6.56115 0 0 1 -1.37201.31509z" fill="#2795fe"/><path d="m811.5058 555.77814 15.39577 48.04524a6 6 0 0 1 -2.95088 7.73816l-20.26024 9.657a6 6 0 0 1 -8.39566-3.934l-12.83035-50.328a6.0109 6.0109 0 0 1 3.71178-7.62871l17.694-7.26835a6.01071 6.01071 0 0 1 7.63558 3.71866z" fill="#2f2e41"/><path d="m764.89068 812.11413h-14.75927a6.50753 6.50753 0 0 1 -6.5-6.5v-123.01465a6.50753 6.50753 0 0 1 6.5-6.5h14.75927a6.50753 6.50753 0 0 1 6.5 6.5v123.01465a6.50753 6.50753 0 0 1 -6.5 6.5z" fill="#2f2e41"/><path d="m794.08307 812.11413h-14.75977a6.50753 6.50753 0 0 1 -6.5-6.5v-123.01465a6.50753 6.50753 0 0 1 6.5-6.5h14.75977a6.50753 6.50753 0 0 1 6.5 6.5v123.01465a6.50753 6.50753 0 0 1 -6.5 6.5z" fill="#2f2e41"/><path d="m806.2467 697.06158h-67.0625a7.00787 7.00787 0 0 1 -7-7v-108.94433a40.53125 40.53125 0 0 1 81.0625 0v108.94433a7.00786 7.00786 0 0 1 -7 7z" fill="#ccc"/><path d="m816.34118 723.711h-34v-192.15479l.6316.17236a45.38181 45.38181 0 0 1 33.3684 43.6875z" fill="#2f2e41"/><path d="m760.32629 723.711h-34v-148.29493a45.38226 45.38226 0 0 1 33.36841-43.6875l.63159-.17236z" fill="#2f2e41"/></g><circle cx="486.89704" cy="378.42061" fill="#2795fe" r="53.51916"/><path d="m832.71545 452.21s3-83-36-56c0 0-22.5-75.5-77.5 37.5l-16 16s72-10 139 21z" fill="#2f2e41" transform="translate(-285.31105 -86.11101)"/><path d="m773.02436 491.03636c-3.30591-.09179-7.42029-.20654-10.59-2.522a8.13272 8.13272 0 0 1 -3.20008-6.07275 5.47091 5.47091 0 0 1 1.86035-4.49317c1.65552-1.39892 4.073-1.727 6.67823-.96142l-2.69922-19.72559 1.98144-.27148 3.17322 23.18994-1.65466-.75928c-1.91834-.87988-4.55164-1.32764-6.188.05518a3.51513 3.51513 0 0 0 -1.15271 2.8955 6.14685 6.14685 0 0 0 2.38123 4.52783c2.46667 1.80176 5.74621 2.03418 9.46582 2.13819z" fill="#2f2e41" transform="translate(-285.31105 -86.11101)"/><path d="m459.19183 372.85162h10.77161v2h-10.77161z" fill="#2f2e41"/><path d="m493.19183 372.85162h10.77161v2h-10.77161z" fill="#2f2e41"/><path d="m652.88209 626.94393a6.00014 6.00014 0 0 1 -7.96794-2.91753l-34.511-74.38406a6 6 0 0 1 10.88547-5.0504l34.511 74.38406a6.00012 6.00012 0 0 1 -2.91753 7.96793z" fill="#3f3d56" transform="translate(-285.31105 -86.11101)"/><path d="m617.425 546.90538a4 4 0 0 1 -4-4v-50.95263h-50a4 4 0 0 1 0-8h54a4 4 0 0 1 4 4v54.95263a4 4 0 0 1 -4 4z" fill="#2795fe" transform="translate(-285.31105 -86.11101)"/><path d="m618.371 552.55988a48 48 0 1 1 23.34031-63.74348 48.05437 48.05437 0 0 1 -23.34031 63.74348zm-35.35277-76.19831a36 36 0 1 0 47.80761 17.50523 36.04072 36.04072 0 0 0 -47.80757-17.50523z" fill="#3f3d56" transform="translate(-285.31105 -86.11101)"/></svg>